<svg width="317" height="114" viewBox="0 0 317 114" fill="none" xmlns="http://www.w3.org/2000/svg">
<rect width="317" height="114" fill="white"/>
<path d="M131.035 78.7886V58.676C131.035 54.6235 130.084 51.7717 128.133 50.0707C126.182 48.3696 123.68 47.5191 120.629 47.5191C119.128 47.5191 117.777 47.7192 116.476 48.1695C115.175 48.6198 114.024 49.3202 113.074 50.2708C112.123 51.2214 111.323 52.4722 110.772 53.9731C110.222 55.474 109.922 57.2752 109.922 59.4265V78.8887H105.319V59.3264C105.319 57.1751 105.019 55.374 104.468 53.873C103.918 52.3721 103.168 51.1213 102.217 50.1707C101.266 49.2201 100.166 48.5197 98.8649 48.0694C97.5641 47.6191 96.1633 47.419 94.7123 47.419C93.1614 47.419 91.7605 47.6191 90.5097 48.0194C89.2589 48.4196 88.1082 49.1201 87.1576 50.0206C86.207 50.9712 85.4566 52.1219 84.9563 53.5729C84.4559 55.0238 84.2058 56.7248 84.2058 58.7761V78.7386H79.6029V56.7248C79.6029 54.5234 79.9531 52.6223 80.7036 50.9712C81.4541 49.3202 82.4547 47.9693 83.8055 46.8186C85.1564 45.6679 86.6573 44.8674 88.4584 44.3171C90.2596 43.7667 92.1608 43.4665 94.2621 43.4665C97.2139 43.4665 99.8656 44.0669 102.267 45.2677C104.619 46.4684 106.47 48.3196 107.821 50.8211C109.171 48.4196 111.023 46.5685 113.324 45.3177C115.675 44.0669 118.277 43.4165 121.129 43.4165C123.18 43.4165 125.081 43.6667 126.832 44.217C128.584 44.7673 130.134 45.5678 131.435 46.6685C132.736 47.7692 133.737 49.1201 134.487 50.7211C135.238 52.3221 135.588 54.2233 135.588 56.4246V78.7386H131.035V78.7886Z" fill="#343642"/>
<path d="M144.994 48.6698V68.8324C144.994 71.434 145.644 73.2352 146.995 74.3359C148.346 75.3865 150.097 75.9369 152.298 75.9369C153.699 75.9369 155 75.6867 156.201 75.2364C157.401 74.7861 158.352 74.3359 159.002 73.9356L161.004 76.9375C160.704 77.1876 160.303 77.4378 159.703 77.788C159.103 78.0882 158.452 78.4384 157.602 78.7386C156.751 79.0388 155.851 79.339 154.75 79.5391C153.649 79.7392 152.448 79.8393 151.148 79.8393C149.296 79.8393 147.695 79.5891 146.345 79.0888C144.994 78.5885 143.893 77.8881 142.992 76.9875C142.092 76.087 141.442 74.9863 140.991 73.7355C140.541 72.4847 140.341 71.1339 140.341 69.6329V37.5128C140.341 36.8124 140.541 36.2621 140.941 35.8118C141.341 35.3615 141.992 35.1614 142.842 35.1614C143.243 35.1614 143.643 35.2114 144.043 35.3115C144.443 35.4115 144.744 35.5116 144.894 35.6117V44.4172H157.101C158.052 44.4172 158.752 44.6173 159.103 45.0676C159.453 45.5178 159.653 46.0682 159.653 46.7186C159.653 47.0688 159.603 47.419 159.503 47.7693C159.403 48.0694 159.303 48.3696 159.203 48.6198H144.994V48.6698Z" fill="#343642"/>
<path d="M188.671 46.9688C188.671 47.419 188.521 47.8693 188.271 48.2195C188.021 48.5698 187.77 48.8699 187.52 49.1201C186.72 48.7699 185.719 48.4197 184.518 48.0694C183.318 47.7693 181.917 47.5691 180.266 47.5691C178.365 47.5691 176.764 47.8193 175.513 48.2696C174.262 48.7199 173.211 49.4203 172.411 50.3209C171.61 51.2214 171.06 52.3721 170.76 53.673C170.46 55.0238 170.259 56.5247 170.259 58.2758V78.7887H165.657V56.1745C165.657 52.122 166.857 49.02 169.259 46.8187C171.66 44.6173 175.163 43.5166 179.815 43.5166C182.317 43.5166 184.418 43.8168 186.069 44.3671C187.82 44.9175 188.671 45.768 188.671 46.9688Z" fill="#343642"/>
<path d="M193.474 46.8687C193.474 46.1682 193.674 45.6179 194.074 45.1676C194.475 44.7173 195.125 44.5172 195.976 44.5172C196.376 44.5172 196.776 44.5672 197.176 44.6673C197.577 44.7674 197.877 44.8674 198.027 44.9675V78.7886H193.424V46.8687H193.474Z" fill="#343642"/>
<path d="M202.83 63.329C202.83 62.2283 202.88 61.2277 202.93 60.3771C202.98 59.5266 203.08 58.7761 203.18 58.1257C203.58 55.8743 204.331 53.823 205.331 52.0219C206.332 50.2208 207.633 48.6698 209.134 47.419C210.685 46.1683 212.436 45.2177 214.437 44.5172C216.438 43.8668 218.59 43.5166 220.891 43.5166C223.593 43.5166 226.044 44.0169 228.346 44.9175C230.597 45.8681 232.548 47.1689 234.199 48.8199C235.8 50.4709 237.101 52.3721 238.002 54.5735C238.902 56.7749 239.353 59.1264 239.353 61.6279C239.353 64.1795 238.902 66.531 238.002 68.7324C237.101 70.9337 235.85 72.8349 234.199 74.486C232.598 76.137 230.647 77.4378 228.346 78.3384C226.094 79.289 223.593 79.7392 220.891 79.7392C217.939 79.7392 215.288 79.1389 212.886 77.8881C210.535 76.6373 208.683 75.0363 207.383 73.0351V92.6473H202.78V63.329H202.83ZM234.4 61.6279C234.4 59.6767 234.099 57.8255 233.449 56.1245C232.799 54.3734 231.898 52.8724 230.747 51.6217C229.547 50.3709 228.146 49.3202 226.495 48.6198C224.844 47.8693 222.992 47.5191 220.891 47.5191C218.84 47.5191 216.989 47.8693 215.388 48.6198C213.737 49.3202 212.336 50.3209 211.185 51.5716C210.034 52.8224 209.134 54.3234 208.483 56.0744C207.833 57.8255 207.533 59.6767 207.533 61.728C207.533 63.6792 207.833 65.5304 208.483 67.2314C209.134 68.9825 210.034 70.4835 211.235 71.7342C212.436 72.985 213.837 74.0357 215.488 74.7861C217.139 75.5366 218.94 75.9369 220.941 75.9369C223.042 75.9369 224.894 75.5866 226.545 74.8362C228.196 74.1357 229.597 73.1351 230.797 71.8343C231.998 70.5335 232.899 69.0325 233.499 67.3315C234.099 65.5804 234.4 63.6792 234.4 61.6279Z" fill="#343642"/>
<path d="M195.575 39.1138C198.627 33.2602 204.331 25.5053 211.035 20.0019C211.035 20.0019 190.672 33.6104 194.074 32.8099C197.477 32.0094 173.211 28.9075 173.211 28.9075C181.667 30.8587 190.272 35.2114 195.575 39.1138Z" fill="#07A5D6"/>
</svg>
