<?xml version="1.0" standalone="no"?>
<!DOCTYPE svg PUBLIC "-//W3C//DTD SVG 20010904//EN"
 "http://www.w3.org/TR/2001/REC-SVG-20010904/DTD/svg10.dtd">
<svg version="1.0" xmlns="http://www.w3.org/2000/svg"
 width="298.000000pt" height="298.000000pt" viewBox="0 0 298.000000 298.000000"
 preserveAspectRatio="xMidYMid meet">
<metadata>
Created by potrace 1.11, written by Peter Selinger 2001-2013
</metadata>
<g transform="translate(0.000000,298.000000) scale(0.100000,-0.100000)"
fill="#000000" stroke="none">
<path d="M1413 2255 c-99 -30 -173 -93 -220 -185 -24 -48 -27 -67 -28 -145 0
-103 18 -155 79 -222 20 -22 36 -44 35 -49 0 -5 -51 -97 -112 -204 l-113 -195
-45 -6 c-88 -13 -140 -57 -157 -135 -18 -81 21 -163 92 -195 160 -72 309 87
229 244 -14 28 -12 33 98 227 l113 198 95 -5 c55 -4 92 -2 90 3 -2 5 -17 33
-33 62 -23 42 -34 52 -55 52 -14 0 -44 9 -66 19 -113 52 -164 178 -116 287 38
85 98 130 190 141 85 10 184 -49 222 -132 22 -48 24 -123 4 -171 -13 -33 -13
-39 4 -72 11 -20 26 -45 34 -56 13 -18 14 -17 35 9 68 87 81 241 28 348 -39
81 -120 151 -203 177 -74 23 -139 25 -200 5z"/>
<path d="M1447 2076 c-52 -19 -83 -50 -103 -102 -43 -113 37 -234 154 -236
l38 0 115 -202 115 -201 -43 -55 c-53 -68 -76 -134 -75 -219 1 -131 75 -252
189 -307 79 -39 194 -45 275 -14 78 29 150 96 189 176 84 170 8 380 -166 461
-48 22 -74 27 -135 28 -41 0 -86 -3 -101 -7 -24 -7 -30 1 -141 195 l-116 202
20 39 c70 137 -71 295 -215 242z m629 -805 c57 -26 111 -92 125 -156 22 -99
-31 -204 -126 -249 -56 -27 -158 -19 -209 17 -116 79 -137 230 -47 331 67 73
170 96 257 57z"/>
<path d="M1910 1218 c-119 -61 -127 -209 -16 -292 39 -30 143 -30 182 0 81 60
101 168 47 243 -24 33 -98 71 -138 71 -17 0 -51 -10 -75 -22z"/>
<path d="M913 1405 c-176 -55 -283 -241 -239 -415 29 -111 87 -184 190 -238
46 -24 62 -27 151 -27 91 0 105 3 155 29 74 38 144 113 171 184 42 107 26 247
-37 330 l-26 34 -33 -58 c-31 -54 -32 -59 -19 -90 19 -46 17 -131 -5 -179
-101 -222 -430 -151 -431 93 0 115 76 205 193 227 31 6 41 15 67 60 16 29 30
55 30 59 0 11 -124 5 -167 -9z"/>
</g>
</svg>
