<?xml version="1.0" encoding="UTF-8"?>
<svg width="165px" height="65px" viewBox="0 0 165 65" version="1.1" xmlns="http://www.w3.org/2000/svg" xmlns:xlink="http://www.w3.org/1999/xlink">
    <!-- Generator: Sketch 46.2 (44496) - http://www.bohemiancoding.com/sketch -->
    <title>austrian-airlines</title>
    <desc>Created with Sketch.</desc>
    <defs></defs>
    <g id="Page-1" stroke="none" stroke-width="1" fill="none" fill-rule="evenodd">
        <g id="austrian-airlines" fill="#C6C7CE">
            <g id="Group-3" transform="translate(5.000000, 21.000000)">
                <g id="Group-2">
                    <path d="M98.9606648,7.94667938 C97.6864373,8.38027851 96.3409798,8.70024867 94.8417556,8.92411472 L94.7750481,8.93429045 L94.7750481,9.41085378 L94.8479741,9.41707228 C96.4732643,9.53465849 96.9170391,10.1033687 96.9170391,12.0627619 L96.9170391,16.7096784 C96.9170391,20.170557 96.9170391,20.7941031 94.9146817,20.7941031 L94.714559,20.7941031 L94.714559,21.3792076 L101.666844,21.3792076 L101.666844,20.7941031 L101.46446,20.7941031 C99.4886721,20.7941031 99.4310096,20.2129559 99.4310096,16.7096784 L99.4310096,12.6399519 C99.4310096,11.6585594 99.4813229,10.7857079 100.086214,10.0575779 C100.732372,9.2910063 101.693413,8.83140252 102.658412,8.83140252 C104.434077,8.83140252 105.335759,10.0298773 105.335759,12.3962997 L105.335759,16.7102437 C105.335759,20.2129559 105.280358,20.7946684 103.333402,20.7946684 L103.131018,20.7946684 L103.131018,21.3797729 L110.083868,21.3797729 L110.083868,20.7946684 L109.882614,20.7946684 C107.911915,20.7946684 107.849164,20.1468137 107.849164,16.7102437 L107.849164,12.3652072 C107.849164,9.53691976 106.664257,7.87601459 103.633021,7.87601459 C101.922367,7.87601459 100.688843,8.33561837 99.415746,9.50865385 C99.3903067,9.25199934 99.2433239,8.02582394 99.2433239,8.02582394 L98.9855388,7.93989556 L98.9606648,7.94667938" id="Shape" fill-rule="nonzero"></path>
                    <path d="M88.3496403,17.2173342 L88.3496403,13.6784416 C87.8261555,13.9780603 87.3320673,14.2369761 86.8526774,14.4868468 C84.8441015,15.531555 83.3601409,16.4100597 83.3601409,18.5079559 C83.3601409,19.9127719 84.308745,20.973309 85.5824072,20.973309 C87.3648558,20.9738743 88.3496403,19.6097613 88.3496403,17.2173342 L88.3496403,17.2173342 Z M93.5234334,20.9840501 C92.9066711,21.5284516 92.0632162,21.8371154 91.09313,21.8371154 C89.5136306,21.8371154 88.7187931,21.3780769 88.3015882,20.4017722 C87.4083853,21.4481764 86.315625,21.8371154 84.7547812,21.8371154 C82.3476558,21.8371154 80.7218004,20.5815434 80.7218004,18.4237235 C80.7218004,16.0940468 82.791996,14.9730206 85.6027586,14.1058223 L85.8119264,14.0419413 C87.2240915,13.6066462 88.320809,13.1221684 88.320809,11.9186058 L88.320809,11.3216296 C88.320809,9.5256134 87.4954443,8.58266247 85.9815219,8.58266247 C84.8045292,8.58266247 84.3172248,9.13441313 84.171938,10.3345839 C84.097316,10.9598259 83.8338777,11.7088727 82.9231499,11.7088727 C82.1684499,11.7088727 81.6817109,11.2571834 81.6817109,10.5590153 C81.6817109,8.98573442 83.4992092,7.87488395 86.1980388,7.87488395 C89.5130653,7.87488395 90.801991,9.19942473 90.801991,11.90843 L90.801991,18.5441363 C90.801991,20.2954924 91.0936953,20.9139506 91.9196253,20.9139506 C92.3385262,20.9139506 92.7421635,20.7777089 93.1548458,20.4769595 L93.5234334,20.9840501 Z" id="Shape"></path>
                    <path d="M13.2346668,13.2131847 L6.0754758,13.2131847 L5.50959218,14.6253498 C4.82046916,16.34844 4.39648044,17.8702769 4.39421916,18.6967722 C4.3891313,20.0145292 5.32473309,20.5934151 7.12866379,20.8370673 L7.12866379,21.3780769 L0.0011306366,21.3780769 L0.0011306366,20.8155852 C2.11315981,20.6929111 3.07363561,18.0240434 5.38296088,12.3906466 L10.4159897,0.11645557 L11.0802387,0.11645557 L17.4236754,15.6977586 C18.7459549,18.9449469 19.4435577,20.7539655 21.4334781,20.8161505 L21.4334781,21.3786422 L12.7841081,21.3786422 L12.7841081,20.8161505 C14.4681913,20.7256996 15.3461306,20.259312 15.3506532,19.2168651 C15.3512185,18.6673757 15.0617755,17.8363578 14.5914307,16.6469281 L13.2346668,13.2131847 L13.2346668,13.2131847 Z M6.40788296,12.3832974 L12.9062168,12.3832974 L9.67768402,4.21783985 L6.40788296,12.3832974 Z" id="Shape" fill-rule="nonzero"></path>
                    <path d="M34.4137517,8.33448773 L29.7747497,8.33448773 L29.7747497,8.91959218 L30.0070955,8.91959218 C31.9478332,8.91959218 32.0094529,9.5629244 32.0094529,12.974055 L32.0094529,16.8600531 C32.0094529,18.078314 31.9614009,18.9319446 31.3242871,19.6860792 C30.6781283,20.4549121 29.7170872,20.9450431 28.7520889,20.9450431 C26.9741628,20.9450431 26.0753067,19.7149105 26.0753067,17.3513147 L26.0753067,8.33448773 L21.3277636,8.33448773 L21.3277636,8.91959218 L21.5589788,8.91959218 C23.5008471,8.91959218 23.5624668,9.5629244 23.5624668,12.974055 L23.5624668,17.2376857 C23.5624668,20.1937351 24.8203001,21.8365501 27.9041114,21.8365501 C29.6407692,21.8365501 30.8030637,21.3164572 32.0100182,20.2231316 L32.0100182,21.6929592 L32.7358869,21.5889406 C34.0197248,21.4052122 35.2323326,21.2305288 36.4144131,21.099375 L36.483382,21.0908952 L36.483382,20.61094 L36.4115865,20.6058521 C34.9050133,20.4899619 34.4934615,19.9286008 34.4934615,17.9901243 L34.4934615,8.33448773 L34.4137517,8.33448773" id="Shape" fill-rule="nonzero"></path>
                    <path d="M39.4462152,11.4686124 C39.4462152,13.8599088 41.4118269,14.6553117 43.5046353,15.8204327 C44.9122779,16.613009 45.9168485,17.4575945 45.9168485,18.7838312 C45.9168485,20.0965003 45.0185577,21.0349287 43.6691429,21.0349287 C41.6758306,21.0349287 40.49375,20.0015269 39.7023044,17.0556532 L39.6870408,16.9968601 L39.2732278,16.9968601 L39.2732278,21.6222944 L39.6683853,21.6222944 L39.690998,21.5889406 C39.9951393,21.16156 40.2506631,20.9789622 40.545194,20.9789622 C40.682001,20.9789622 40.8922994,21.0756316 41.1613909,21.1971751 C41.7221867,21.4515683 42.6351757,21.8365501 43.8517407,21.8365501 C46.4262003,21.8365501 48.2182593,20.1434218 48.2182593,17.8069612 C48.2182593,16.6746286 47.7778763,15.7972546 47.0333521,15.0499038 C46.3566661,14.3692606 45.3074353,13.7711538 44.1304426,13.1453465 C42.47406,12.2385759 41.3784731,11.6676044 41.3784731,10.3673723 C41.3784731,9.27687334 42.2677188,8.61318966 43.4175763,8.61318966 C45.0349519,8.61318966 46.2345574,9.78792109 46.7088594,12.0101873 L46.7229924,12.071807 L47.1407626,12.071807 L47.1407626,8.08913959 L46.7342987,8.08913959 L46.7128166,8.13662633 C46.5720524,8.47638263 46.4126326,8.60810179 46.1429758,8.60810179 C46.00843,8.60810179 45.8049155,8.5187815 45.5459997,8.40571784 C45.0349519,8.18185179 44.2418103,7.87431863 43.2943369,7.87431863 C41.0975099,7.87488395 39.4462152,9.38315318 39.4462152,11.4686124" id="Shape" fill-rule="nonzero"></path>
                    <path d="M59.0441048,20.7550962 C58.3538511,21.4730504 57.3854609,21.8371154 56.1541976,21.8371154 C53.709196,21.8371154 52.5559466,20.7273956 52.5559466,18.5690103 C52.5559466,16.5457361 52.6729675,9.10501658 52.6729675,9.10501658 L50.9939721,9.10501658 L50.9939721,8.37179874 L51.0606797,8.36105769 C52.8289954,8.06596154 53.7985162,7.05912964 54.5192971,4.83799403 L54.5356913,4.78372347 L55.0840501,4.78372347 L55.162064,4.78372347 L55.1315368,8.33448773 L58.508183,8.33448773 L58.508183,9.10445126 L55.1304062,9.10445126 L55.0699171,17.6695889 L55.0699171,18.0359151 C55.0699171,19.8601973 55.5843568,20.8822928 57.0722745,20.8822928 C57.69469,20.8822928 58.181429,20.699695 58.6252039,20.273445 L59.0441048,20.7550962" id="Shape" fill-rule="nonzero"></path>
                    <path d="M64.4694645,7.94667938 C63.1980637,8.38027851 61.8520408,8.70024867 60.3505554,8.92411472 L60.2838478,8.93429045 L60.2838478,9.41085378 L60.3567739,9.41707228 C61.982064,9.53465849 62.4269695,10.1033687 62.4269695,12.0627619 L62.4269695,16.7096784 C62.4269695,20.170557 62.4269695,20.7941031 60.4246121,20.7941031 L60.2222281,20.7941031 L60.2222281,21.3792076 L67.5131383,21.3792076 L67.5131383,20.7941031 L67.2502653,20.7941031 C66.0715766,20.7941031 65.5548757,20.6081134 65.2767391,20.085194 C64.9652487,19.5000895 64.94094,18.405068 64.94094,16.8012599 L64.94094,14.1680073 C64.94094,11.1028515 66.1032344,9.1055819 67.1892109,9.1055819 C67.7138263,9.1055819 67.9665235,9.42555206 68.2344844,9.83371187 C68.5211008,10.267311 68.8455935,10.7580073 69.5460229,10.7580073 C70.2707609,10.7580073 70.7575,10.2972729 70.7575,9.60701923 C70.7575,8.54309019 69.8241595,7.87544927 68.4442175,7.87544927 C66.9840003,7.87544927 65.7352122,8.63749834 64.8798856,10.368503 C64.8725365,9.39672082 64.8329642,8.77091346 64.7577769,8.07387599 L64.752689,8.0246933 L64.4960345,7.93876492 L64.4694645,7.94667938" id="Shape" fill-rule="nonzero"></path>
                    <path d="M73.4738544,2.9187384 C73.4738544,3.77971817 74.0990965,4.40552553 74.9617722,4.40552553 C75.8363196,4.40552553 76.4485594,3.79385113 76.4485594,2.9187384 C76.4485594,2.12785809 75.7532178,1.43138594 74.9617722,1.43138594 C74.169196,1.43138594 73.4738544,2.12785809 73.4738544,2.9187384" id="Shape" fill-rule="nonzero"></path>
                    <path d="M76.1636389,7.93367706 C74.796134,8.31922414 73.3687052,8.62901857 71.6733156,8.91337367 L71.6088694,8.92411472 L71.6088694,9.40067805 L71.6817954,9.40576592 C73.3065202,9.52391744 73.7508604,10.0926277 73.7508604,12.0503249 L73.7508604,16.7079824 C73.7508604,20.1688611 73.7508604,20.7935378 71.748503,20.7935378 L71.5466844,20.7935378 L71.5466844,21.3786422 L78.4995342,21.3786422 L78.4995342,20.7935378 L78.2994115,20.7935378 C76.3207974,20.7935378 76.2648309,20.2123906 76.2648309,16.7079824 L76.2648309,7.90597646 L76.1636389,7.93367706" id="Shape" fill-rule="nonzero"></path>
                </g>
                <g id="Group" transform="translate(112.275641, 0.000000)">
                    <path d="M14.4453203,3.77252955 C14.4453203,3.77252955 13.4913562,3.95309641 12.8639785,4.07838769 C12.8639785,4.07838769 15.0713161,3.70758076 15.7742371,4.53256861 C16.5103234,5.39440683 17.5974096,7.55752403 8.8385353,15.243131 C5.93748928,17.7844252 2.69741977,20.0516448 0.229365688,21.6675339 L5.97618217,20.7384437 C8.65059837,18.1939251 15.713434,12.4401991 21.9862896,9.14899974 C32.1772617,3.80523426 40.2797386,0.865955971 41.8813482,0.338074303 L41.8813482,0.245948358 C39.9743411,0.392889241 25.9670517,1.51314074 14.4453203,3.77252955" id="SVGID_1_"></path>
                    <path d="M12.8639785,4.07838769 L4.01528142,6.06508371 L4.00284442,6.06876875 L3.98672238,6.0835089 L4.00284442,6.09963094 L4.01850583,6.10193409 L9.26047213,6.89007155 C12.5346282,5.36907219 14.6719502,4.90521806 16.0671976,4.96556055 C16.0658157,4.9632574 16.0648945,4.96049362 16.063052,4.95772984 C16.0621307,4.95726921 16.0612094,4.9554267 16.0612094,4.95358418 C16.0589063,4.94851725 16.0570638,4.94529284 16.0547606,4.94022591 C16.0538394,4.94022591 16.0538394,4.94022591 16.0538394,4.94022591 C16.0515362,4.93423773 16.0496937,4.93101332 16.0469299,4.92640702 C16.0469299,4.92640702 16.0460087,4.9245645 16.045548,4.92272198 C15.9644772,4.76979292 15.8691268,4.64450163 15.7783828,4.53809616 C15.7765403,4.53625364 15.7751584,4.53348986 15.7733159,4.53256861 C15.6332844,4.36812379 15.4333711,4.25112384 15.2025956,4.16959238 C14.8253399,4.0350885 14.3670133,3.99547434 13.9542891,3.99547434 C13.3600767,3.99547434 12.8639785,4.07838769 12.8639785,4.07838769" id="Shape" fill-rule="nonzero"></path>
                </g>
            </g>
        </g>
    </g>
</svg>