<?xml version="1.0" encoding="UTF-8"?>
<svg width="165px" height="65px" viewBox="0 0 165 65" version="1.1" xmlns="http://www.w3.org/2000/svg" xmlns:xlink="http://www.w3.org/1999/xlink">
    <!-- Generator: Sketch 46.2 (44496) - http://www.bohemiancoding.com/sketch -->
    <title>brussels-airlines</title>
    <desc>Created with Sketch.</desc>
    <defs></defs>
    <g id="Page-1" stroke="none" stroke-width="1" fill="none" fill-rule="evenodd">
        <g id="brussels-airlines" fill-rule="nonzero" fill="#C6C7CE">
            <path d="M6.1446,42.7205 C6.1446,43.8062 4.9566,44.6807 3.4815,44.6807 C2.01135,44.6807 0.825,43.8062 0.825,42.7205 C0.825,41.63975 2.013,40.75535 3.4848,40.75535 C4.9566,40.75205 6.1446,41.63645 6.1446,42.7205" id="Shape"></path>
            <path d="M8.0025,38.0378 C8.0025,38.94695 6.963,39.67955 5.6727,39.6878 C4.3791,39.67955 3.3363,38.94695 3.3363,38.0378 C3.3363,37.12865 4.3791,36.4076 5.6727,36.4076 C6.963,36.40265 8.0025,37.12865 8.0025,38.0378" id="Shape"></path>
            <path d="M9.52875,34.1306 C9.52875,34.85825 8.64105,35.4506 7.5438,35.4539 C6.44325,35.4539 5.5506,34.86155 5.5506,34.1306 C5.5506,33.4046 6.4449,32.8106 7.5438,32.8106 C8.64105,32.8106 9.52875,33.4079 9.52875,34.1306" id="Shape"></path>
            <path d="M13.5894,23.465 C13.5861,23.7521 13.12575,23.9864 12.5532,23.9864 C11.98065,23.9864 11.5137,23.7521 11.5137,23.465 C11.5137,23.17295 11.98065,22.9436 12.5532,22.9436 C13.12575,22.9436 13.5861,23.1713 13.5894,23.465" id="Shape"></path>
            <path d="M14.78895,20.44715 C14.78895,20.65505 14.4408,20.82005 14.01015,20.82005 C13.5762,20.82005 13.23135,20.65505 13.22805,20.44715 C13.22805,20.24255 13.5762,20.0693 14.01015,20.0693 C14.4408,20.0693 14.78895,20.24255 14.78895,20.44715" id="Shape"></path>
            <path d="M14.223,21.8777 C14.223,22.12025 13.8237,22.31 13.32045,22.3133 C12.8271,22.3133 12.4245,22.12025 12.4245,21.8777 C12.4245,21.6401 12.8271,21.44705 13.32045,21.44705 C13.82205,21.44705 14.223,21.6401 14.223,21.8777" id="Shape"></path>
            <path d="M10.8174,30.6986 C10.8174,31.28765 10.06005,31.76285 9.1245,31.76285 C8.19555,31.76285 7.43655,31.28765 7.43655,30.6986 C7.43655,30.11285 8.1939,29.6327 9.1245,29.6327 C10.06005,29.63435 10.8174,30.11285 10.8174,30.6986" id="Shape"></path>
            <path d="M11.93445,27.83915 C11.93445,28.30445 11.2893,28.6889 10.48575,28.6889 C9.6888,28.6889 9.04365,28.30445 9.04365,27.83915 C9.04365,27.36395 9.6888,26.98115 10.48575,26.98115 C11.2893,26.98115 11.93445,27.36395 11.93445,27.83915" id="Shape"></path>
            <path d="M12.35025,42.3938 C12.35025,43.37225 11.2695,44.156 9.9363,44.156 C8.6031,44.156 7.51905,43.36895 7.51905,42.3938 C7.51905,41.41865 8.6031,40.625 9.933,40.625 C11.2695,40.625 12.35025,41.417 12.35025,42.3938" id="Shape"></path>
            <path d="M17.6616,40.9286 C17.6616,41.78825 16.68645,42.48125 15.4836,42.48125 C14.28405,42.48125 13.3089,41.78825 13.3089,40.9286 C13.3089,40.06895 14.28405,39.36605 15.4836,39.36605 C16.6848,39.3644 17.6616,40.0673 17.6616,40.9286" id="Shape"></path>
            <path d="M20.37255,37.93385 C20.37255,38.60705 19.5756,39.15815 18.5856,39.15815 C17.60715,39.15815 16.8102,38.60705 16.8102,37.93385 C16.8102,37.2491 17.60715,36.698 18.5856,36.698 C19.5723,36.698 20.37255,37.2491 20.37255,37.93385" id="Shape"></path>
            <path d="M17.77875,32.59445 C17.77875,33.04655 17.1963,33.4079 16.48515,33.4079 C15.7641,33.4079 15.18165,33.04655 15.18165,32.59445 C15.18165,32.14565 15.7641,31.7744 16.48515,31.7744 C17.19795,31.7744 17.77875,32.144 17.77875,32.59445" id="Shape"></path>
            <path d="M12.8898,25.4483 C12.8898,25.8245 12.342,26.1314 11.6622,26.1314 C10.98735,26.1314 10.4379,25.82285 10.4379,25.4483 C10.4379,25.07375 10.98735,24.77015 11.6622,24.77015 C12.34035,24.77015 12.8898,25.0754 12.8898,25.4483" id="Shape"></path>
            <path d="M19.89735,34.8269 C19.89735,35.378 19.2225,35.82185 18.38265,35.82185 C17.5494,35.82185 16.8729,35.3747 16.8729,34.8269 C16.8729,34.2857 17.5494,33.83525 18.3876,33.83525 C19.22085,33.83855 19.89735,34.2857 19.89735,34.8269" id="Shape"></path>
            <path d="M28.3602,42.30965 L28.3602,27.78635 L30.6768,27.78635 L30.6768,33.1505 C31.4193,32.8898 32.1255,32.75945 32.7888,32.75945 C34.2375,32.75945 35.3562,33.2396 36.15315,34.2032 C36.84285,35.03975 37.191,36.137 37.191,37.4801 C37.191,39.2423 36.6036,40.57055 35.4255,41.44505 C34.40415,42.2222 32.9835,42.605 31.1685,42.605 C30.39465,42.605 29.4558,42.51095 28.3602,42.30965 M30.6768,34.92755 L30.6768,40.66955 C31.0068,40.7207 31.3071,40.75205 31.57275,40.75205 C33.7359,40.75205 34.8183,39.70925 34.8183,37.63025 C34.8183,36.6188 34.5477,35.85485 34.01805,35.34335 C33.5478,34.89125 32.9241,34.66025 32.1255,34.66025 C31.6701,34.66355 31.1883,34.74935 30.6768,34.92755" id="Shape"></path>
            <path d="M39.57195,42.48125 L39.57195,33.60095 C40.92,33.0515 42.28125,32.77595 43.6623,32.77595 C44.3223,32.77595 44.946,32.86505 45.52515,33.0482 L45.52515,35.00345 C45.03345,34.82195 44.48895,34.7378 43.90155,34.7378 C43.2201,34.7378 42.5535,34.85825 41.8935,35.10575 L41.8935,42.4862" id="Shape"></path>
            <path d="M47.0613,32.93105 L49.38285,32.93105 L49.38285,38.6318 C49.38285,39.42875 49.5528,39.9716 49.8828,40.25045 C50.17155,40.5029 50.6682,40.6283 51.3612,40.6283 C51.82815,40.6283 52.34295,40.56395 52.9122,40.45175 L52.9122,32.93105 L55.2387,32.93105 L55.2387,42.1496 C53.6844,42.4532 52.32975,42.60335 51.1632,42.60335 C49.69305,42.60335 48.62385,42.30635 47.95725,41.71895 C47.6091,41.3807 47.37315,40.9748 47.23455,40.4831 C47.11905,40.0442 47.0613,39.46505 47.0613,38.7275" id="Shape"></path>
            <path d="M57.78465,42.15125 L57.78465,40.03595 C58.6971,40.6085 59.56005,40.8956 60.37185,40.8956 C61.40475,40.8956 61.92285,40.5722 61.92285,39.92375 C61.92285,39.48155 61.61595,39.1301 61.0104,38.84795 L60.07155,38.40245 C59.2053,38.0015 58.6047,37.55765 58.2483,37.0808 C57.93975,36.665 57.78465,36.1634 57.78465,35.59415 C57.78465,34.66685 58.15425,33.95075 58.90005,33.43265 C59.5518,32.9855 60.3867,32.7578 61.41795,32.7578 C62.26605,32.7578 63.0927,32.9327 63.8781,33.2825 L63.8781,35.28065 C63.096,34.79885 62.3304,34.55465 61.5813,34.55465 C60.5484,34.55465 60.03525,34.8632 60.03525,35.47865 C60.03525,35.7245 60.1392,35.93735 60.3504,36.1007 C60.5451,36.25085 60.98895,36.4769 61.6737,36.80855 C62.62575,37.292 63.2676,37.7243 63.58935,38.0873 C64.00185,38.5658 64.21305,39.14165 64.21305,39.82805 C64.21305,40.79165 63.8286,41.5358 63.07455,42.05885 C62.41455,42.5192 61.54665,42.7502 60.4626,42.7502 C59.5353,42.74525 58.641,42.5456 57.78465,42.15125" id="Shape"></path>
            <path d="M66.0693,42.15125 L66.0693,40.03595 C66.99,40.6085 67.8546,40.8956 68.6631,40.8956 C69.696,40.8956 70.2141,40.5722 70.2141,39.92375 C70.2141,39.48155 69.90555,39.1301 69.2934,38.84795 L68.3628,38.40245 C67.49325,38.0015 66.891,37.55765 66.53955,37.0808 C66.2277,36.665 66.0693,36.1634 66.0693,35.59415 C66.0693,34.66685 66.4455,33.95075 67.18965,33.43265 C67.8348,32.9855 68.66805,32.7578 69.70755,32.7578 C70.55895,32.7578 71.37405,32.9327 72.171,33.2825 L72.171,35.28065 C71.38395,34.79885 70.6233,34.55465 69.8676,34.55465 C68.838,34.55465 68.32485,34.8632 68.32485,35.47865 C68.32485,35.7245 68.4288,35.93735 68.64,36.1007 C68.838,36.25085 69.2736,36.4769 69.96495,36.80855 C70.917,37.292 71.55555,37.7243 71.8773,38.0873 C72.29475,38.5658 72.4977,39.14165 72.4977,39.82805 C72.4977,40.79165 72.11655,41.5358 71.36085,42.05885 C70.70415,42.5192 69.8313,42.7502 68.7522,42.7502 C67.82655,42.74525 66.9306,42.5456 66.0693,42.15125" id="Shape"></path>
            <path d="M83.061,38.1467 L76.5105,38.1467 C76.60785,39.9122 77.5962,40.80485 79.4673,40.80485 C80.6124,40.80485 81.6519,40.4732 82.5759,39.79175 L82.5759,41.7404 C81.5034,42.38885 80.3484,42.7106 79.11255,42.7106 C77.48565,42.7106 76.2399,42.23045 75.38025,41.2487 C74.63445,40.40885 74.26155,39.26375 74.26155,37.83815 C74.26155,36.20465 74.7384,34.9127 75.70365,33.95735 C76.5468,33.13235 77.6193,32.71655 78.91455,32.71655 C79.827,32.71655 80.62065,32.9459 81.2922,33.38315 C81.8829,33.76925 82.32015,34.28735 82.60725,34.9325 C82.91415,35.6189 83.05935,36.67655 83.05935,38.1071 M76.66065,36.48515 L80.81865,36.48515 C80.7147,35.15195 80.06955,34.48535 78.8799,34.48535 C78.2496,34.48535 77.7414,34.6883 77.34375,35.0843 C76.989,35.4341 76.7646,35.8961 76.66065,36.48515" id="Shape"></path>
            <rect id="Rectangle-path" x="85.4502" y="27.78635" width="2.32485" height="14.6982"></rect>
            <path d="M90.3441,42.15125 L90.3441,40.03595 C91.25655,40.6085 92.1228,40.8956 92.93625,40.8956 C93.9642,40.8956 94.4823,40.5722 94.4823,39.92375 C94.4823,39.48155 94.17705,39.1301 93.5649,38.84795 L92.63265,38.40245 C91.76805,38.0015 91.1625,37.55765 90.81105,37.0808 C90.4959,36.665 90.3441,36.1634 90.3441,35.59415 C90.3441,34.66685 90.71535,33.95075 91.4661,33.43265 C92.1129,32.9855 92.94615,32.7578 93.97905,32.7578 C94.83045,32.7578 95.64885,32.9327 96.43425,33.2825 L96.43425,35.28065 C95.6571,34.79885 94.8882,34.55465 94.1457,34.55465 C93.10455,34.55465 92.598,34.8632 92.598,35.47865 C92.598,35.7245 92.7003,35.93735 92.9115,36.1007 C93.09795,36.25085 93.54675,36.4769 94.23315,36.80855 C95.18685,37.292 95.82705,37.7243 96.15045,38.0873 C96.56295,38.5658 96.7758,39.14165 96.7758,39.82805 C96.7758,40.79165 96.39465,41.5358 95.634,42.05885 C94.97235,42.5192 94.1028,42.7502 93.02535,42.7502 C92.0931,42.74525 91.20705,42.5456 90.3441,42.15125" id="Shape"></path>
            <path d="M103.0953,35.7344 L103.0953,33.73625 C104.30805,33.08285 105.5505,32.75945 106.8045,32.75945 C108.1773,32.75945 109.06995,33.16205 109.48245,33.9689 C109.6887,34.37645 109.7976,35.12885 109.7976,36.23765 L109.7976,42.2915 C108.15585,42.53075 106.81935,42.64295 105.7881,42.64295 C104.5836,42.64295 103.7289,42.40205 103.20915,41.9054 C102.75705,41.4665 102.5376,40.81475 102.5376,39.94685 C102.5376,38.64335 103.0821,37.7276 104.1777,37.19795 C104.9004,36.8432 105.9993,36.59075 107.46615,36.42575 L107.6592,36.40925 L107.6592,36.0677 C107.6592,35.5001 107.55195,35.12225 107.31765,34.92755 C107.1114,34.751 106.77315,34.66355 106.28805,34.66355 C105.28485,34.66355 104.214,35.0216 103.0953,35.7344 M107.70375,40.7009 L107.70375,38.15825 C106.5108,38.25725 105.6957,38.4338 105.2469,38.7077 C104.85915,38.94695 104.67105,39.29675 104.67105,39.7736 C104.67105,40.4963 105.08685,40.8527 105.93825,40.8527 C106.41015,40.85765 106.9959,40.80485 107.70375,40.7009" id="Shape"></path>
            <path d="M112.6356,28.64435 L115.0248,28.64435 L115.0248,31.12925 L112.6356,31.12925 L112.6356,28.64435 Z M112.6752,32.9525 L114.99675,32.9525 L114.99675,42.48455 L112.6752,42.48455 L112.6752,32.9525 Z" id="Shape"></path>
            <path d="M117.98985,42.48125 L117.98985,33.60095 C119.3379,33.0515 120.69915,32.77595 122.08845,32.77595 C122.74185,32.77595 123.36225,32.86505 123.94635,33.0482 L123.94635,35.00345 C123.4497,34.82195 122.90685,34.7378 122.32275,34.7378 C121.6347,34.7378 120.96975,34.85825 120.3147,35.10575 L120.3147,42.4862" id="Shape"></path>
            <rect id="Rectangle-path" x="125.8125" y="27.78635" width="2.3265" height="14.6982"></rect>
            <path d="M131.1156,28.64435 L133.5081,28.64435 L133.5081,31.12925 L131.1156,31.12925 L131.1156,28.64435 Z M131.1519,32.9525 L133.4751,32.9525 L133.4751,42.48455 L131.1519,42.48455 L131.1519,32.9525 Z" id="Shape"></path>
            <path d="M136.4748,42.48125 L136.4748,33.41615 C137.97465,32.98385 139.41345,32.7743 140.8011,32.7743 C142.30095,32.7743 143.3586,33.0944 143.9724,33.7478 C144.48225,34.29725 144.73965,35.16515 144.73965,36.3581 L144.73965,42.48125 L142.41315,42.48125 L142.41315,36.5165 C142.41315,35.7938 142.25145,35.3054 141.9231,35.0315 C141.62775,34.7906 141.15585,34.66355 140.51235,34.66355 C139.96455,34.66355 139.39035,34.7543 138.8013,34.92755 L138.8013,42.48125" id="Shape"></path>
            <path d="M155.82765,38.1467 L149.2755,38.1467 C149.37285,39.9122 150.35625,40.80485 152.2224,40.80485 C153.3774,40.80485 154.4136,40.4732 155.3376,39.79175 L155.3376,41.7404 C154.2684,42.38885 153.1068,42.7106 151.87755,42.7106 C150.2523,42.7106 149.0049,42.23045 148.14195,41.2487 C147.40275,40.40885 147.0216,39.26375 147.0216,37.83815 C147.0216,36.20465 147.50505,34.9127 148.46205,33.95735 C149.3052,33.13235 150.37935,32.71655 151.6713,32.71655 C152.58705,32.71655 153.37905,32.9459 154.05225,33.38315 C154.6446,33.76925 155.07855,34.28735 155.3739,34.9325 C155.6709,35.6189 155.82105,36.67655 155.82105,38.1071 M149.42895,36.48515 L153.58695,36.48515 C153.483,35.15195 152.83785,34.48535 151.64325,34.48535 C151.0179,34.48535 150.50475,34.6883 150.10875,35.0843 C149.754,35.4341 149.5329,35.8961 149.42895,36.48515" id="Shape"></path>
            <path d="M157.75155,42.15125 L157.75155,40.03595 C158.6673,40.6085 159.53025,40.8956 160.34205,40.8956 C161.3733,40.8956 161.88975,40.5722 161.88975,39.92375 C161.88975,39.48155 161.57955,39.1301 160.96905,38.84795 L160.03515,38.40245 C159.1755,38.0015 158.565,37.55765 158.2119,37.0808 C157.905,36.665 157.75155,36.1634 157.75155,35.5925 C157.75155,34.6652 158.11785,33.9491 158.86695,33.431 C159.5154,32.98385 160.34865,32.75615 161.3832,32.75615 C162.23295,32.75615 163.0563,32.93105 163.8384,33.28085 L163.8384,35.279 C163.0629,34.7972 162.2907,34.553 161.53665,34.553 C160.5153,34.553 159.99885,34.86155 159.99885,35.477 C159.99885,35.72285 160.1028,35.9357 160.30905,36.09905 C160.50375,36.2492 160.9509,36.47525 161.63565,36.8069 C162.58935,37.29035 163.2312,37.72265 163.55295,38.08565 C163.96545,38.56415 164.1684,39.14 164.1684,39.8264 C164.1684,40.79 163.79055,41.53415 163.0365,42.0572 C162.37155,42.51755 161.5053,42.74855 160.4262,42.74855 C159.50385,42.74525 158.60625,42.5456 157.75155,42.15125" id="Shape"></path>
        </g>
    </g>
</svg>