<?xml version="1.0" encoding="UTF-8"?>
<svg width="165px" height="65px" viewBox="0 0 165 65" version="1.1" xmlns="http://www.w3.org/2000/svg" xmlns:xlink="http://www.w3.org/1999/xlink">
    <!-- Generator: Sketch 45.2 (43514) - http://www.bohemiancoding.com/sketch -->
    <title>agw-logo-gris-iberia</title>
    <desc>Created with Sketch.</desc>
    <defs></defs>
    <g id="Page-1" stroke="none" stroke-width="1" fill="none" fill-rule="evenodd">
        <g id="agw-logo-gris-iberia"></g>
        <path d="M64.273715,28.9074934 L64.273715,29.0695593 C64.0338575,31.3395936 63.9537482,34.0959845 63.9537482,36.5280847 L63.9537482,36.5280847 C63.9537482,38.9601849 64.0338575,41.3922851 64.273715,43.9866101 L64.273715,43.9866101 L68.7532494,43.9866101 C68.5931876,42.0408663 68.4332827,40.4194132 68.4332827,38.3927955 L68.4332827,38.3927955 L72.9926128,38.3927955 C73.3125796,38.798119 73.8725606,39.4465414 74.4323848,40.4194132 L74.4323848,40.4194132 C75.0724751,41.473318 75.6322993,42.5272228 76.1922803,43.9866101 L76.1922803,43.9866101 L81.1515297,43.9866101 C80.511753,42.6894476 79.7917102,41.554351 78.671905,39.9330568 L78.671905,39.9330568 C78.0319715,39.0412178 77.4721473,38.3116036 76.9121663,37.7442142 L76.9121663,37.7442142 C78.83181,37.095633 79.951772,35.3931469 79.951772,33.4474032 L79.951772,33.4474032 C79.951772,32.3123066 79.5518527,31.2585607 78.83181,30.4477547 L78.83181,30.4477547 C77.8720665,29.3938499 76.352342,28.9074934 73.8725606,28.9074934 L73.8725606,28.9074934 L64.273715,28.9074934 Z M68.5132352,31.826109 L72.4327886,31.826109 C73.8725606,31.826109 74.5924466,31.9881749 75.0724751,32.4745314 L75.0724751,32.4745314 C75.3123325,32.717789 75.4722375,33.2043044 75.4722375,33.6906609 L75.4722375,33.6906609 C75.4722375,34.501308 75.0724751,35.2310811 74.3524323,35.6362457 L74.3524323,35.6362457 L68.3533302,35.6362457 C68.4332827,34.582341 68.4332827,33.2851785 68.5132352,31.826109 L68.5132352,31.826109 Z M26.5188931,28.9074934 L26.5188931,29.0695593 C26.2788789,31.3395936 26.1987696,34.0959845 26.1987696,36.5280847 L26.1987696,36.5280847 C26.1987696,38.9601849 26.2788789,41.3112522 26.5188931,43.9866101 L26.5188931,43.9866101 L35.0775724,43.9866101 C38.1171781,43.9866101 39.9570261,43.6621606 41.1569406,42.7704805 L41.1569406,42.7704805 C42.0367316,42.1220582 42.5965558,40.9059286 42.5965558,39.5277332 L42.5965558,39.5277332 C42.5965558,37.9062801 41.7167648,36.6092765 40.1170879,35.8795034 L40.1170879,35.8795034 C41.1569406,35.2310811 41.8768266,34.0959845 41.8768266,32.798822 L41.8768266,32.798822 C41.8768266,31.5828513 41.5567031,30.7722042 40.8368171,30.1234641 L40.8368171,30.1234641 C39.5571069,28.9885264 37.3173397,28.9074934 34.837715,28.9074934 L34.837715,28.9074934 L26.5188931,28.9074934 Z M30.7582565,31.9071419 L34.5977007,31.9071419 C36.1174252,31.9071419 36.6775629,31.9881749 37.0773254,32.4745314 L37.0773254,32.4745314 C37.3173397,32.717789 37.3972922,33.1232715 37.3972922,33.6094691 L37.3972922,33.6094691 C37.3972922,34.2582092 37.1572779,34.8255986 36.6775629,35.1498893 L36.6775629,35.1498893 L30.5981948,35.1498893 C30.678304,33.9339186 30.678304,32.9610467 30.7582565,31.9071419 L30.7582565,31.9071419 Z M30.5981948,37.8250883 L36.0374727,37.8250883 C36.8373112,37.8250883 37.2373872,37.9062801 37.5573539,38.2305707 L37.5573539,38.2305707 C37.8773207,38.5548613 38.0372257,38.879152 38.0372257,39.3655084 L38.0372257,39.3655084 C38.0372257,39.8520238 37.8773207,40.2573474 37.5573539,40.581638 L37.5573539,40.581638 C37.1572779,40.9869615 36.5175012,41.1491863 35.4776485,41.1491863 L35.4776485,41.1491863 L30.7582565,41.1491863 C30.678304,40.0142486 30.678304,38.798119 30.5981948,37.8250883 L30.5981948,37.8250883 Z M98.2693587,29.0695593 C97.0694442,30.8532371 95.7895772,33.1232715 94.4299145,35.9605364 L94.4299145,35.9605364 C92.9901425,38.879152 91.7102755,41.7976087 90.9104371,44.067643 L90.9104371,44.067643 L95.6296722,44.067643 C95.949639,43.0947711 96.2696057,42.2030911 96.6696817,41.3112522 L96.6696817,41.3112522 L104.428679,41.3112522 C104.828442,42.2030911 105.148409,43.0947711 105.468532,44.067643 L105.468532,44.067643 L110.187924,44.067643 C109.307819,41.7976087 108.108062,38.879152 106.66829,35.9605364 L106.66829,35.9605364 C105.228518,33.1232715 103.948651,30.8532371 102.828689,29.0695593 L102.828689,29.0695593 L98.2693587,29.0695593 Z M100.589078,32.5555643 C101.548979,34.3392422 102.42877,36.2037941 103.388827,38.4738284 L103.388827,38.4738284 L97.7095344,38.4738284 C98.6692779,36.284827 99.5492257,34.4202751 100.589078,32.5555643 L100.589078,32.5555643 Z M84.4311496,29.0695593 C84.1912922,31.1773689 84.0312304,34.0149515 84.1113397,36.6901505 L84.1113397,36.6901505 C84.1113397,39.2034426 84.1912922,41.6355428 84.4311496,44.067643 L84.4311496,44.067643 L88.2707506,44.067643 C88.5106081,41.7165757 88.5907173,39.2844755 88.5907173,36.6901505 L88.5907173,36.6901505 C88.5907173,34.0149515 88.4306556,31.1773689 88.2707506,29.0695593 L88.2707506,29.0695593 L84.4311496,29.0695593 Z M46.276095,29.0695593 C46.0360808,31.4206266 45.9561283,34.0959845 45.9561283,36.6092765 L45.9561283,36.6092765 C45.9561283,39.0412178 46.11619,41.7165757 46.276095,44.067643 L46.276095,44.067643 L60.114304,44.067643 C60.0343515,43.0947711 59.954399,42.1220582 59.954399,41.0681534 L59.954399,41.0681534 L50.5156152,41.0681534 C50.4355059,39.9330568 50.4355059,38.879152 50.4355059,37.9062801 L50.4355059,37.9062801 L59.1545606,37.9062801 L59.1545606,35.0688563 L50.4355059,35.0688563 C50.4355059,34.2582092 50.4355059,33.0420797 50.5156152,32.0692078 L50.5156152,32.0692078 L59.954399,32.0692078 C60.0343515,31.015303 60.0343515,30.1234641 60.114304,29.0695593 L60.114304,29.0695593 L46.276095,29.0695593 Z M17.3199667,29.0695593 L21.1594109,29.0695593 C21.3194727,31.1773689 21.4793777,34.0149515 21.4793777,36.6901505 C21.4793777,39.2844755 21.3994252,41.7165757 21.1594109,44.067643 L17.3199667,44.067643 C17.0799525,41.6355428 17,39.2034426 17,36.6901505 C17,34.0149515 17.0799525,31.1773689 17.3199667,29.0695593 Z M110.246713,55.9894941 L117.04581,48.9362923 C125.52485,40.1807633 137.603164,35.3165629 145.522067,35.0733052 L142.802428,42.4507977 C139.602917,50.2334548 134.003577,55.9894941 110.246713,55.9894941 Z M133.013577,32.2423958 C136.693116,28.4321002 138.212998,26.0810329 148.931492,26 L147.171753,30.7831675 C139.892627,31.6748475 132.613658,34.9179126 125.334532,40.2684695 L133.013577,32.2423958 Z" id="Combined-Shape" fill="#C6C7CE"></path>
    </g>
</svg>