<?xml version="1.0" encoding="UTF-8"?>
<svg width="165px" height="65px" viewBox="0 0 165 65" version="1.1" xmlns="http://www.w3.org/2000/svg" xmlns:xlink="http://www.w3.org/1999/xlink">
    <!-- Generator: Sketch 46.2 (44496) - http://www.bohemiancoding.com/sketch -->
    <title>lufthansa</title>
    <desc>Created with Sketch.</desc>
    <defs></defs>
    <g id="Page-1" stroke="none" stroke-width="1" fill="none" fill-rule="evenodd">
        <g id="lufthansa" fill-rule="nonzero" fill="#C6C7CE">
            <g id="Group-4-Copy" transform="translate(0.000000, 18.000000)">
                <path d="M28.4078571,14.2313253 C28.4078571,22.0154069 22.1393878,28.255102 14.3234694,28.255102 C6.59265306,28.255102 0.303061224,21.9866314 0.303061224,14.255509 C0.303061224,6.36122327 6.59234694,0.146019184 14.5769388,0.146019184 C22.1666327,0.145713061 28.4078571,6.52683551 28.4078571,14.2313253 L28.4078571,14.2313253 Z M1.75989796,14.2313253 C1.75989796,21.1723457 7.3827551,26.7939796 14.3234694,26.7939796 C21.2944898,26.7939796 26.9476531,21.1995906 26.9476531,14.255509 C26.9476531,7.17275388 21.3792857,1.61050898 14.2420408,1.61050898 C7.41306122,1.61020286 1.75989796,7.31142735 1.75989796,14.2313253 Z M11.2619388,13.665611 L11.089898,14.0051008 C10.4442857,13.8633661 9.26510204,13.4124478 8.02806122,12.8497947 L7.85908163,13.1620396 L8.36602041,13.4409171 C10.1635714,14.3699988 10.755,14.5643865 11.7955102,14.5643865 C13.8737755,14.5643865 15.4487755,13.3848967 16.1813265,11.3054069 C17.472551,11.0534682 19.1317347,10.9417335 21.0982653,10.9417335 C22.7843878,10.9417335 24.2476531,11.0246927 26.13,11.2509171 L25.6530612,11.8408151 C24.7815306,11.7260192 23.1768367,11.6145906 22.0242857,11.6145906 C20.6488776,11.6145906 19.7767347,11.64306 19.3273469,11.6703049 L19.1041837,12.1772437 C20.2567347,12.1212233 20.6758163,12.1212233 21.5776531,12.1212233 C23.095102,12.1212233 24.3015306,12.1772437 25.2847959,12.2602029 L24.8081633,12.8785702 C23.037551,12.8259171 22.2232653,12.795611 20.9047959,12.795611 C20.1716327,12.795611 19.6377551,12.8259171 18.7662245,12.8497947 L18.54,13.3564273 C19.2973469,13.3022437 20.3378571,13.2734682 21.4359184,13.2734682 C22.4764286,13.2734682 23.7107143,13.3022437 24.4432653,13.3294886 L23.9638776,13.950611 C23.4630612,13.9190804 22.4767347,13.9190804 21.7163265,13.9190804 C20.509898,13.9190804 18.9927551,13.9747947 18.205102,14.0895906 L17.9788776,14.5374478 C19.4121429,14.3984682 20.3106122,14.3427539 21.8856122,14.3427539 C22.5039796,14.3427539 22.8961224,14.3427539 23.6017347,14.3987743 L23.0647959,15.0446927 C22.1084694,14.9883661 21.8038776,14.9883661 21.4359184,14.9883661 C18.7662245,14.9883661 17.0259184,15.380509 15.2791837,16.3653049 C16.8808163,17.9660192 19.5505102,19.0625498 21.9428571,19.0625498 C22.1390816,19.0625498 22.2505102,19.0625498 22.757449,19.0349988 L21.6021429,20.190611 C15.2528571,18.5314273 14.127551,18.0802029 8.30877551,14.6237743 C6.00704082,13.3022437 4.12163265,12.4034682 2.60142857,11.9522437 L2.80040816,11.2509171 C3.16836735,11.3054069 3.95265306,11.5316314 4.68581633,11.7847947 L5.02071429,11.0246927 L11.2619388,13.665611 L11.2619388,13.665611 Z" id="path2874"></path>
                <path d="M51.8427551,4.84101918 L51.8427551,19.8811212 L59.770102,19.8811212 L59.770102,23.5873457 L47.1489796,23.5873457 L47.1489796,4.84101918 L51.8427551,4.84101918 L51.8427551,4.84101918 Z M69.5767347,23.5873457 L69.4383673,22.2688763 C68.34,23.4211212 67.1032653,23.9549988 65.5591837,23.9549988 C63.6465306,23.9549988 62.1021429,23.1676518 61.3147959,21.8210192 C60.7236735,20.8071416 60.6391837,20.300509 60.6391837,18.0798967 L60.6391837,10.0986722 L65.0522449,10.0986722 L65.0522449,17.9103049 C65.0522449,19.8811212 65.6133673,20.6954069 66.9918367,20.6954069 C68.4523469,20.6954069 69.184898,19.7393865 69.184898,17.9103049 L69.184898,10.0986722 L73.594898,10.0986722 L73.594898,23.5873457 L69.5767347,23.5873457 L69.5767347,23.5873457 Z M83.6035714,7.82112122 L82.8704082,7.82112122 C81.2387755,7.82112122 80.8193878,8.21326408 80.8193878,9.70316204 L80.8193878,10.0983661 L83.4318367,10.0983661 L83.4318367,13.0757131 L80.8193878,13.0757131 L80.8193878,23.5870396 L76.4093878,23.5870396 L76.4093878,13.0757131 L74.4967347,13.0757131 L74.4967347,10.0986722 L76.4093878,10.0986722 L76.4093878,9.70346816 C76.4093878,6.16377429 77.727551,4.84101918 81.1845918,4.84101918 L83.6035714,4.84101918 L83.6035714,7.82112122 Z M90.3756122,5.88152939 L90.3756122,10.0986722 L92.8790816,10.0986722 L92.8790816,13.0760192 L90.3756122,13.0760192 L90.3756122,18.4169376 C90.4056122,20.3853049 90.5207143,20.4982641 92.2037755,20.4982641 L93.0756122,20.4982641 L93.0756122,23.5876518 L89.7606122,23.5876518 C87.145102,23.5876518 85.9628571,22.380611 85.9628571,19.6282641 L85.9628571,13.0757131 L84.1105102,13.0757131 L84.1105102,10.0986722 L85.9628571,10.0986722 L85.9628571,5.88152939 L90.3756122,5.88152939 Z M98.4688776,4.84101918 L98.4688776,11.6145906 C99.2895918,10.2933661 100.438776,9.70346816 102.15551,9.70346816 C104.007551,9.70346816 105.500816,10.4908151 106.312041,11.9237743 C106.903469,12.9642845 106.990408,13.5269376 106.990408,15.7757131 L106.990408,23.5873457 L102.601531,23.5873457 L102.601531,15.9462233 C102.601531,14.0051008 102.013469,13.1347947 100.661939,13.1347947 C99.2017347,13.1347947 98.4688776,14.0895906 98.4688776,15.9462233 L98.4688776,23.5873457 L94.0591837,23.5873457 L94.0591837,4.84101918 L98.4688776,4.84101918 L98.4688776,4.84101918 Z M108.87,14.3987743 C108.87,11.3369376 111.262041,9.53601918 115.252959,9.53601918 C119.440102,9.53601918 121.518673,11.278162 121.518673,14.8178559 L121.518673,21.7062233 C121.518673,22.8854069 121.518673,22.8854069 121.883571,23.5873457 L117.810918,23.5873457 L117.558061,22.4663253 C116.152041,23.7015294 114.942551,24.1493865 113.174388,24.1493865 C110.191531,24.1493865 108.031531,22.3803049 108.031531,19.9371416 C108.031531,17.9103049 109.349694,16.4770396 111.935204,15.7460192 C112.330102,15.6342845 113.624388,15.3808151 115.841327,14.9598967 C116.800714,14.7624478 117.162551,14.4544886 117.162551,13.8091824 C117.162551,13.0490804 116.375204,12.5424478 115.195714,12.5424478 C113.762449,12.5424478 112.921224,13.21806 112.891531,14.3990804 L108.87,14.3990804 L108.87,14.3987743 Z M117.27398,17.122958 C116.713163,17.2934682 116.543878,17.3470396 116.09449,17.490611 C115.560612,17.6292845 115.083673,17.7391824 114.492857,17.8542845 C113.060204,18.2194886 112.354286,18.7845906 112.354286,19.6521416 C112.354286,20.5267335 113.029898,21.0309171 114.13102,21.0309171 C116.266531,21.0309171 117.274286,20.0761212 117.274286,18.0802029 L117.274286,17.122958 L117.27398,17.122958 Z M127.086429,10.0986722 L127.228469,11.6145906 C128.266224,10.2933661 129.499592,9.70346816 131.131837,9.70346816 C133.016939,9.70346816 134.537449,10.51806 135.324796,11.9237743 C135.882551,12.9642845 135.997347,13.5557131 135.997347,15.7757131 L135.997347,23.5873457 L131.583673,23.5873457 L131.583673,15.9462233 C131.583673,13.950611 131.019796,13.1347947 129.644694,13.1347947 C128.208673,13.1347947 127.481633,14.0895906 127.481633,15.9462233 L127.481633,23.5873457 L123.06551,23.5873457 L123.06551,10.0986722 L127.086429,10.0986722 Z M145.692857,14.3142845 C145.577755,13.0487743 145.043878,12.5721416 143.698469,12.5721416 C142.600714,12.5721416 141.928163,12.99306 141.928163,13.6974478 C141.928163,14.3427539 142.570408,14.735509 144.033367,14.9598967 L145.553878,15.2421416 C148.757449,15.7760192 150.247347,17.1232641 150.247347,19.4577539 C150.247347,22.3245906 147.800816,24.1493865 143.979184,24.1493865 C139.454082,24.1493865 136.980612,22.3515294 136.980612,19.0940804 L141.279184,19.0940804 L141.279184,19.2596927 C141.279184,20.3849988 142.208571,21.0893865 143.698469,21.0893865 C144.989388,21.0893865 145.776735,20.6099988 145.776735,19.8498967 C145.776735,19.0625498 145.043571,18.6140804 143.33051,18.3048967 L141.928163,18.0802029 C138.721531,17.518162 137.342755,16.3653049 137.342755,14.2313253 C137.342755,11.3054069 139.785918,9.53601918 143.809898,9.53601918 C146.618571,9.53601918 148.361939,10.2933661 149.263776,11.9237743 C149.655612,12.6009171 149.710102,12.825611 149.824592,14.3142845 L145.692857,14.3142845 Z M151.846224,14.3987743 C151.876531,11.3611212 154.265204,9.53601918 158.283061,9.53601918 C162.473265,9.53601918 164.521224,11.278162 164.521224,14.8178559 L164.521224,21.7062233 C164.521224,22.8584682 164.521224,22.8584682 164.889184,23.5873457 L160.786531,23.5873457 L160.563673,22.4663253 C158.931429,23.7847947 157.975408,24.1493865 156.180612,24.1493865 C153.166837,24.1493865 151.007755,22.3803049 151.007755,19.9371416 C151.007755,17.9103049 152.328367,16.4770396 154.910816,15.7460192 C155.306327,15.6342845 156.600306,15.3538763 158.820306,14.9598967 C159.746327,14.7624478 160.138469,14.4544886 160.138469,13.8091824 C160.138469,13.0490804 159.351122,12.5424478 158.19949,12.5424478 C156.766224,12.5424478 155.894388,13.2468355 155.894388,14.3990804 L151.846224,14.3990804 L151.846224,14.3987743 Z M160.283571,17.122958 C159.719082,17.2934682 159.520102,17.3470396 159.070408,17.490611 C158.59102,17.5735702 158.060204,17.6883661 157.469082,17.8542845 C156.036122,18.2194886 155.333265,18.7845906 155.333265,19.6521416 C155.333265,20.5267335 156.006122,21.0309171 157.134184,21.0309171 C159.269694,21.0309171 160.283571,20.0761212 160.283571,18.0802029 L160.283571,17.122958 L160.283571,17.122958 Z" id="path2876"></path>
            </g>
        </g>
    </g>
</svg>