<?xml version="1.0" encoding="UTF-8"?>
<svg width="165px" height="65px" viewBox="0 0 165 65" version="1.1" xmlns="http://www.w3.org/2000/svg" xmlns:xlink="http://www.w3.org/1999/xlink">
    <!-- Generator: Sketch 46.2 (44496) - http://www.bohemiancoding.com/sketch -->
    <title>agw-logo-color-westjet</title>
    <desc>Created with Sketch.</desc>
    <defs></defs>
    <g id="Page-1" stroke="none" stroke-width="1" fill="none" fill-rule="evenodd">
        <g id="agw-logo-color-westjet">
            <g id="westjet-color" transform="translate(0.000000, 20.000000)">
                <polygon id="Fill-1" fill="#003B73" points="28.017544 8.85279394 21.1941711 16.8073738 21.2310895 10.6475371 12.3330034 10.6475371 7.13303529 16.4964465 7.16794452 10.6475371 0 10.6475371 2.04357116 20.125424 9.28284101 20.125424 15.6729878 12.8487764 16.5630476 20.125424 23.7264715 20.125424 32.2463324 11.4863301 28.7812775 20.125424 47.7492947 20.125424 48.5019778 18.2495923 36.5507156 18.2495923 37.3769844 16.1870988 48.2764491 16.1870988 48.9949765 14.3949883 38.0962651 14.3949883 38.846688 12.5233689 50.4069166 12.5233689 51.1593486 10.6475371 33.0728523 10.6475371 34.842926 8.85279394"></polygon>
                <path d="M86.977749,12.5232373 L87.730181,10.6474055 L68.2186849,10.6474055 C66.8160371,10.5426222 65.1850981,10.4844385 63.5132223,10.4844385 C58.2316318,10.4844385 51.7975345,11.1102423 50.8821091,13.3904639 C49.4982972,16.8383086 62.3898483,15.7275529 61.6846317,17.4912297 C61.3792387,18.2523566 59.2013047,18.4134807 56.9764065,18.4134807 C54.071155,18.4134807 51.6531259,18.1428344 49.9830081,17.7908362 L48.5414328,19.8815001 C50.7700982,20.1521464 53.7705338,20.2887859 56.2237233,20.2887859 C62.0711447,20.2887859 68.0692533,19.6227011 69.0552506,17.1660855 C70.4267564,13.7453581 57.5681053,14.7750252 58.1826584,13.2411872 C58.5161797,12.4145049 61.4791946,12.3605336 63.2520309,12.3605336 C65.2503959,12.3605336 67.2336921,12.4950669 68.9221435,12.792304 L69.0964385,12.5232373 L73.4786768,12.5232373 L70.429519,20.1252924 L77.446525,20.1252924 L80.4951806,12.5232373 L86.977749,12.5232373 Z" id="Fill-2" fill="#003B73"></path>
                <path d="M139.02987,13.1325864 L138.051407,13.2431618 C138.051407,13.2431618 141.211069,17.1514737 141.343673,17.3149673 C142.093092,18.2411675 142.077521,18.6134378 141.311778,19.5980849 C140.712294,20.3686898 140.322767,20.8686483 140.322767,20.8686483 C140.322767,20.8686483 144.706261,20.095674 145.312024,19.9887845 C145.873083,19.8897932 146.433389,20.0522337 146.294003,20.8602235 C146.198819,21.4109941 145.674929,24.4444444 145.674929,24.4444444 L148.287345,19.7876427 L152.900386,11.5605736 L139.02987,13.1325864 Z" id="Fill-4" fill="#003B73"></path>
                <path d="M89.6792712,10.6474055 L86.6524653,18.1933831 C86.0306289,19.7427544 83.7585154,21.3539951 81.6830487,21.3539951 C80.4798105,21.3539951 79.415958,21.2734331 78.6105343,21.1215236 L77.7691968,23.2156101 C78.9347632,23.3224996 80.4577097,23.471513 82.0042638,23.471513 C89.1307693,23.471513 92.5463485,20.9917292 93.3630738,18.9566163 L96.6955238,10.6474055 L89.6792712,10.6474055 Z" id="Fill-7" fill="#00AAA7"></path>
                <polygon id="Fill-9" fill="#00AAA7" points="95.0487375 20.1252924 114.017257 20.1252924 114.769438 18.2497239 102.817924 18.2497239 103.644444 16.1869671 114.543658 16.1869671 115.262185 14.3948567 104.363976 14.3948567 105.114399 12.5227107 121.700301 12.5227107 118.651896 20.1252924 125.668651 20.1252924 128.717307 12.5227107 135.200378 12.5227107 135.952307 10.6474055 98.8505785 10.6474055"></polygon>
                <path d="M160.149626,3.14639518 C160.149626,3.14639518 158.203249,4.03099796 157.568604,4.3211266 C156.928936,4.60993888 156.67327,4.56491892 156.577081,4.09523697 C156.495208,3.63898202 156.019538,0.196139604 155.991912,0 C155.807571,0.196139604 152.56905,3.63898202 152.121257,4.09523697 C151.649857,4.56491892 151.348231,4.60993888 150.947905,4.3211266 C150.538538,4.03099796 149.307674,3.15560979 149.307674,3.15560979 L147.765892,10.9985612 L157.185858,8.78758081 L160.149626,3.14639518 Z" id="Fill-11" fill="#00AAA7"></path>
                <path d="M165,8.5806996 C165,8.5806996 162.359958,9.08592363 161.751684,9.16780204 C161.276768,9.23019813 161.200922,9.03274215 161.180328,8.74103385 C161.163501,8.59123059 161.078614,6.92048974 161.078614,6.92048974 L157.241863,8.86661585 L148.38597,19.8038341 L154.925046,20.8685167 C154.925046,20.8685167 154.945138,19.819104 154.972764,19.0419173 C155.011942,18.2644673 155.427337,18.1283543 155.688277,17.965124 C155.938167,17.8013672 163.398947,13.2806784 163.398947,13.2806784 L162.650282,12.856543 C162.193198,12.611171 162.446352,12.1783475 162.650785,11.887429 C162.852455,11.5996699 165,8.5806996 165,8.5806996 Z" id="Fill-13" fill="#00AAA7"></path>
                <path d="M145.16872,7.13226786 C145.16872,7.13226786 144.043337,8.45416981 143.792192,8.74087589 C143.538786,9.03284746 143.302207,9.23030344 142.869232,9.16790735 C142.337557,9.08602894 140.003159,8.58080491 140.003159,8.58080491 C140.003159,8.58080491 139.818065,11.5997752 139.789685,11.8875343 C139.760301,12.1926696 139.664615,12.5762608 139.158306,13.019352 L147.67465,11.0203077 L145.16872,7.13226786 Z" id="Fill-16" fill="#00AAA7"></path>
            </g>
        </g>
    </g>
</svg>