<svg width="317" height="114" viewBox="0 0 317 114" fill="none" xmlns="http://www.w3.org/2000/svg">
<rect width="317" height="114" fill="white"/>
<path d="M44.8257 80.9733C47.5464 80.9733 49.1891 79.998 49.1891 77.8419C49.1891 75.8912 47.5977 74.9672 44.8257 74.9672H42.1049V80.9733H44.8257V80.9733ZM44.4663 74.1458C47.2384 74.1458 48.3678 73.1704 48.3678 71.5791C48.3678 69.6797 47.0331 68.961 44.569 68.961H42.1049V74.1458H44.4663ZM41.1809 68.191H44.8257C47.5464 68.191 49.2918 69.2177 49.2918 71.4764C49.2918 72.9138 48.5731 74.0431 47.1871 74.4538V74.5565C48.9324 74.8645 50.1131 75.9425 50.1131 77.8419C50.1131 80.46 48.1624 81.7947 45.0823 81.7947H41.1809V68.191Z" fill="#236092"/>
<path d="M59.1479 76.5585V68.191H60.072V76.4559C60.072 80.0493 61.766 81.1273 63.6654 81.1273C65.6161 81.1273 67.3615 80.0493 67.3615 76.4559V68.191H68.2342V76.5585C68.2342 80.8193 65.9755 82 63.6654 82C61.4067 82 59.1479 80.768 59.1479 76.5585Z" fill="#236092"/>
<path d="M77.166 79.9466L77.782 79.2793C78.7574 80.4087 80.1948 81.1273 81.7348 81.1273C83.7882 81.1273 85.1229 79.998 85.1229 78.4066C85.1229 76.7126 84.0449 76.1479 82.7102 75.5832L80.6568 74.6592C79.4761 74.1458 77.8847 73.3245 77.8847 71.2711C77.8847 69.3204 79.5787 67.9343 81.8375 67.9343C83.4802 67.9343 84.7636 68.653 85.5849 69.577L85.0716 70.1931C84.2502 69.3717 83.2235 68.807 81.8375 68.807C80.0408 68.807 78.8087 69.731 78.8087 71.2197C78.8087 72.7598 80.1434 73.3758 81.1701 73.8378L83.2235 74.7618C84.7635 75.4292 86.0983 76.3019 86.0983 78.3553C86.0983 80.4087 84.4042 82 81.7348 82C79.7841 82 78.244 81.1273 77.166 79.9466Z" fill="#236092"/>
<path d="M96.0065 68.191H95.0825V81.7433H96.0065V68.191Z" fill="#236092"/>
<path d="M106.171 68.191H107.146L112.895 77.7392L114.435 80.46H114.538C114.487 79.1253 114.435 77.8419 114.435 76.5072V68.191H115.359V81.7433H114.384L108.532 72.1951L106.992 69.4743H106.889C106.941 70.7577 106.992 71.9897 106.992 73.3244V81.7433H106.068V68.191H106.171Z" fill="#236092"/>
<path d="M125.421 68.191H132.813V69.0123H126.345V74.1458H131.786V74.9672H126.345V80.922H133.018V81.7433H125.421V68.191Z" fill="#236092"/>
<path d="M141.078 79.9466L141.694 79.2793C142.67 80.4087 144.107 81.1273 145.647 81.1273C147.7 81.1273 149.035 79.998 149.035 78.4066C149.035 76.7126 147.957 76.1479 146.622 75.5832L144.569 74.6592C143.388 74.1458 141.797 73.3245 141.797 71.2711C141.797 69.3204 143.491 67.9343 145.75 67.9343C147.392 67.9343 148.676 68.653 149.497 69.577L148.984 70.1931C148.162 69.3717 147.136 68.807 145.75 68.807C143.953 68.807 142.721 69.731 142.721 71.2197C142.721 72.7598 144.056 73.3758 145.082 73.8378L147.136 74.7618C148.676 75.4292 150.01 76.3019 150.01 78.3553C150.01 80.4087 148.316 82 145.647 82C143.696 82 142.156 81.1273 141.078 79.9466Z" fill="#236092"/>
<path d="M157.762 79.9466L158.378 79.2793C159.353 80.4087 160.79 81.1273 162.331 81.1273C164.384 81.1273 165.719 79.998 165.719 78.4066C165.719 76.7126 164.641 76.1479 163.306 75.5832L161.252 74.6592C160.072 74.1458 158.48 73.3245 158.48 71.2711C158.48 69.3204 160.174 67.9343 162.433 67.9343C164.076 67.9343 165.359 68.653 166.181 69.577L165.667 70.1931C164.846 69.3717 163.819 68.807 162.433 68.807C160.636 68.807 159.404 69.731 159.404 71.2197C159.404 72.7598 160.739 73.3758 161.766 73.8378L163.819 74.7618C165.359 75.4292 166.694 76.3019 166.694 78.3553C166.694 80.4087 165 82 162.331 82C160.38 82 158.84 81.1273 157.762 79.9466Z" fill="#236092"/>
<path d="M188.871 69.0123H184.559V68.191H194.107V69.0123H189.795V81.7433H188.871V69.0123Z" fill="#236092"/>
<path d="M206.53 74.7105C208.891 74.7105 210.277 73.7351 210.277 71.7331C210.277 69.6797 208.942 68.961 206.53 68.961H203.809V74.7105H206.53ZM210.38 81.7433L206.684 75.5318H203.809V81.7433H202.885V68.191H206.786C209.507 68.191 211.252 69.1663 211.252 71.7844C211.252 73.9405 209.918 75.2238 207.762 75.4805L211.509 81.7947H210.38V81.7433Z" fill="#236092"/>
<path d="M226.037 76.3019L225.164 73.7865C224.599 72.1951 224.137 70.7577 223.675 69.115H223.573C223.11 70.7577 222.648 72.1951 222.084 73.7865L221.211 76.3019H226.037ZM226.293 77.0719H220.954L219.363 81.7433H218.388L223.162 68.191H224.086L228.86 81.7433H227.885L226.293 77.0719Z" fill="#236092"/>
<path d="M235.021 68.191H236.047L238.563 76.0965C239.076 77.7392 239.435 79.0226 240 80.6653H240.103C240.667 79.0226 241.027 77.7392 241.54 76.0965L244.055 68.191H245.031L240.565 81.7433H239.538L235.021 68.191Z" fill="#236092"/>
<path d="M253.193 68.191H260.636V69.0123H254.168V74.1458H259.61V74.9672H254.168V80.922H260.842V81.7433H253.193V68.191Z" fill="#236092"/>
<path d="M269.979 68.191H270.904V80.922H277.166V81.7433H269.979V68.191Z" fill="#236092"/>
<path d="M126.191 59.5668V32.1027H122.649V53.7146L105.709 32.1027H101.858V59.5668H105.4L105.554 37.3902L122.803 59.5668H126.191Z" fill="#5B89B4"/>
<path d="M129.733 32.1027H126.191V35.6448H129.733V32.1027Z" fill="#236092"/>
<path d="M147.7 44.4231L143.953 42.7803L143.85 42.729C141.745 41.7536 140.205 40.9323 140.205 38.9302C140.205 36.8768 141.951 35.5421 144.723 35.5421C145.698 35.5421 147.751 35.5421 149.548 35.5421V39.0842H153.09V35.5421V32.1027H144.723C139.948 32.1027 136.458 34.9261 136.458 39.0329C136.458 43.653 140.41 45.3471 142.105 46.1171L145.903 47.8111C148.367 48.8892 149.753 49.6592 149.753 52.0719C149.753 54.4847 147.7 56.0247 144.569 56.0247C143.234 56.0247 140.564 56.0247 138.306 56.0247V52.4826H134.764V56.846V59.6695H144.569C149.856 59.6695 153.552 56.538 153.552 52.0206C153.552 47.6058 150.729 45.7578 147.7 44.4231Z" fill="#5B89B4"/>
<path d="M196.16 32H192.618V35.5421H196.16V32Z" fill="#236092"/>
<path d="M243.799 32H240.257V35.5421H243.799V32Z" fill="#236092"/>
<path d="M81.53 35.9014C76.0372 35.9014 71.5198 40.3675 71.5198 45.9117C71.5198 51.4558 75.9859 55.9219 81.53 55.9219C87.0228 55.9219 91.5403 51.4558 91.5403 45.9117C91.5403 40.3675 87.0742 35.9014 81.53 35.9014ZM81.53 59.5667C73.9838 59.5667 67.875 53.4579 67.875 45.9117C67.875 38.3655 73.9838 32.2567 81.53 32.2567C89.0762 32.2567 95.1851 38.3655 95.1851 45.9117C95.2364 53.4065 89.0762 59.5667 81.53 59.5667Z" fill="#5B89B4"/>
<path d="M183.121 32V43.961V46.3224C183.121 51.6612 178.758 55.9733 173.47 55.9733C168.132 55.9733 163.819 51.6099 163.819 46.3224V32H160.277V46.3224C160.277 53.6119 166.232 59.5154 173.47 59.5154C177.269 59.5154 180.709 57.8727 183.121 55.306V59.5154H186.663V46.3224V43.961V32H183.121Z" fill="#5B89B4"/>
<path d="M199.702 56.0246V32H196.16V36.6715V59.5667H197.444H199.702H211.715V56.0246H199.702Z" fill="#5B89B4"/>
<path d="M243.747 37.6469H240.205V59.5668H243.747V37.6469Z" fill="#5B89B4"/>
<path d="M234.25 32.1027H211.714V35.5421V35.5935V39.0842H215.308V35.5935V35.6448H221.211V59.5668H224.753V35.6448H230.708V39.0842H234.25V35.6448V32.1027Z" fill="#5B89B4"/>
<path d="M263.511 55.8706C258.019 55.8706 253.501 51.4045 253.501 45.8604C253.501 40.3676 257.967 35.8501 263.511 35.8501C269.004 35.8501 273.522 40.3162 273.522 45.8604C273.522 51.4045 269.056 55.8706 263.511 55.8706ZM273.881 32V36.9281C271.366 34.0534 267.67 32.2053 263.563 32.2053C256.017 32.2053 249.908 38.3142 249.908 45.8604C249.908 53.4066 256.017 59.5154 263.563 59.5154C267.67 59.5154 271.417 57.6673 273.881 54.7926V59.7721H277.218V32H273.881Z" fill="#5B89B4"/>
<path d="M53.655 35.5935C53.7064 35.5935 53.7577 35.5935 53.7577 35.5935H59.6612H62.9466V32.1027H53.655C46.1602 32.1027 40.1027 38.1602 40 45.7064C40 45.7578 40 45.7578 40 45.8091C40 45.8604 40 45.8604 40 45.9118C40.1027 53.458 46.2115 59.5155 53.655 59.5155H62.9979V55.768H53.7577C53.7064 55.768 53.655 55.768 53.655 55.768C48.1622 55.768 43.6961 51.3019 43.6448 45.7578C43.6961 40.2649 48.1622 35.5935 53.655 35.5935Z" fill="#5B89B4"/>
<path d="M62.9977 35.5934H59.4556V39.1355H62.9977V35.5934Z" fill="#236092"/>
</svg>
