<svg width="317" height="114" viewBox="0 0 317 114" fill="none" xmlns="http://www.w3.org/2000/svg">
<rect width="317" height="114" fill="white"/>
<path d="M67.145 77.145C60.748 83.542 51.4056 85.4288 42.7996 82.9437C50.4852 83.9101 58.8151 81.2409 65.028 75.028C71.2409 68.8151 73.9101 60.4852 72.9437 52.7996C75.4288 61.4516 73.542 70.748 67.145 77.145V77.145ZM30.972 40.972C37.1849 34.7591 45.5148 32.0899 53.2004 33.0563C44.5484 30.5712 35.252 32.458 28.855 38.855C22.458 45.252 20.5712 54.5484 23.0563 63.2004C22.0899 55.5148 24.7591 47.231 30.972 40.972Z" fill="black"/>
<path d="M52.05 61.6357H34.5618L36.6788 63.7526H54.213V57.6318L52.05 55.5148V61.6357ZM40.6826 73.049H34.5618L36.6788 75.166H42.7996V69.0451L40.6826 66.9281V73.049ZM63.4633 44.1014V50.2223H34.5618L36.6788 52.3853H65.6263V46.2645L63.4633 44.1014Z" fill="black"/>
<path d="M103.87 63.7526H116.71V57.6318L114.593 55.5148V61.6357H101.707V66.9281H103.87V63.7526ZM121.082 73.003H95.126L97.289 75.166H123.199V69.0451L121.082 66.9281V73.003ZM121.082 44.1014V50.2223H101.707V55.5148H103.87V52.3853H123.199V46.2645L121.082 44.1014Z" fill="black"/>
<path d="M165.999 46.2645L163.882 44.1014V66.9281H165.999V46.2645ZM182.843 66.9281V73.003H157.301L159.418 75.166H184.96V69.0451L182.843 66.9281Z" fill="black"/>
<path d="M222.146 46.2645L220.029 44.1014V66.9281H222.146V46.2645ZM238.99 66.9281V73.003H213.448L215.565 75.166H241.107V69.0451L238.99 66.9281Z" fill="black"/>
<path d="M274.012 65.0413C273.183 63.7988 272.677 62.3261 272.677 60.7153C272.677 56.4353 276.175 52.9377 280.455 52.9377C282.065 52.9377 283.538 53.4439 284.781 54.2723C283.4 52.2013 281.007 50.8207 278.338 50.8207C274.058 50.8207 270.56 54.3183 270.56 58.5983C270.56 61.2676 271.941 63.6147 274.012 65.0413V65.0413Z" fill="black"/>
<path d="M289.935 49.1179C292.052 51.6951 293.295 55.0086 293.295 58.5983C293.295 66.8822 286.576 73.6013 278.292 73.6013C274.702 73.6013 271.389 72.3587 268.812 70.2418C271.573 73.6013 275.761 75.7643 280.409 75.7643C288.693 75.7643 295.412 69.0452 295.412 60.7613C295.458 56.0211 293.295 51.8331 289.935 49.1179V49.1179Z" fill="black"/>
</svg>
