<svg width="317" height="114" viewBox="0 0 317 114" fill="none" xmlns="http://www.w3.org/2000/svg">
<rect width="317" height="114" fill="white"/>
<path d="M91.9903 73.9891C89.144 73.9891 87.1026 76.2661 87.1026 78.9945V79.0142C87.1026 81.8015 89.1637 84 91.951 84C93.698 84 94.8169 83.3326 95.818 82.2922L95.0917 81.5856C94.1691 82.4689 93.2858 82.9793 91.9706 82.9793C89.8507 82.9793 88.2215 81.2323 88.2215 78.9749V78.9553C88.2215 76.7372 89.8311 74.9902 91.9706 74.9902C93.2858 74.9902 94.1887 75.5398 95.0132 76.325L95.7591 75.5202C94.7972 74.6172 93.7373 73.9891 91.9903 73.9891ZM141.338 73.9891C138.394 73.9891 136.392 76.325 136.392 78.9945V79.0142C136.392 81.6837 138.374 84 141.319 84C144.263 84 146.265 81.6641 146.265 78.9945V78.9749C146.265 76.3053 144.283 73.9891 141.338 73.9891ZM166.11 74.0872L161.694 83.8429H162.813L163.951 81.2911H169.212L170.35 83.8429H171.528L167.111 74.0872H166.11ZM216.302 74.0872L211.886 83.8429H213.004L214.163 81.2911H219.423L220.562 83.8429H221.739L217.323 74.0872H216.302ZM65.8638 74.1657V83.8429H72.9499V82.8419H66.9826V79.446H72.2629V78.4449H66.9826V75.1472H72.891V74.1461L65.8638 74.1657ZM76.0513 74.1657L79.6239 78.916L75.9139 83.8429H77.1702L80.2716 79.6619L83.373 83.8429H84.6686L80.9783 78.8964L84.5508 74.1657H83.2749L80.3305 78.1505L77.3665 74.1657H76.0513ZM99.2334 74.1657V83.8429H106.3V82.8419H100.352V79.4656H105.633V78.4645H100.352V75.1472H106.261V74.1461L99.2334 74.1657ZM110.03 74.1657V83.8429H111.129V80.4275H113.484C115.545 80.4275 117.292 79.3479 117.292 77.2672V77.2475C117.292 75.3435 115.859 74.1854 113.661 74.1854L110.03 74.1657ZM120.099 74.1657V75.1668H123.358V83.8429H124.457V75.1668H127.715V74.1657H120.099ZM131.366 74.1657V83.8429H132.466V74.1657H131.366ZM150.093 74.1657V83.8429H151.153V75.9127L157.395 83.8429H158.259V74.1657H157.199V81.9193L151.094 74.1657H150.093ZM174.983 74.1657V83.8429H181.519V82.8419H176.062V74.1657H174.983ZM190.038 74.1657V75.1668H193.297V83.8429H194.396V75.1668H197.654V74.1657H190.038ZM201.207 74.1657V83.8429H202.307V80.0741H205.074L207.881 83.8429H209.216L206.252 79.8975C207.763 79.6227 208.882 78.6805 208.882 77.0709V77.0512C208.882 76.2857 208.607 75.6183 208.136 75.1472C207.528 74.5387 206.566 74.1854 205.388 74.1854L201.207 74.1657ZM222.956 74.1657L227.118 83.9215H228.08L232.241 74.1657H231.063L227.609 82.5082L224.173 74.1657H222.956ZM235.676 74.1657V83.8429H242.743V82.8419H236.775V79.446H242.056V78.4449H236.775V75.1472H242.684V74.1461L235.676 74.1657ZM246.472 74.1657V83.8429H253.009V82.8419H247.552V74.1657H246.472ZM141.319 75.0098C143.537 75.0098 145.127 76.8157 145.127 79.0142V79.0338C145.127 81.2323 143.556 82.9989 141.338 82.9989C139.12 82.9989 137.53 81.193 137.53 78.9945V78.9749C137.53 76.7764 139.1 75.0098 141.319 75.0098ZM111.129 75.1668H113.582C115.153 75.1668 116.173 75.8931 116.173 77.2672V77.2868C116.173 78.5627 115.113 79.4067 113.524 79.4067H111.129V75.1668ZM202.307 75.1668H205.29C206.86 75.1668 207.763 75.8931 207.763 77.0709V77.0905C207.763 78.3271 206.723 79.073 205.271 79.073H202.307V75.1668ZM166.621 75.3631L168.819 80.2901H164.402L166.621 75.3631ZM216.812 75.3631L219.011 80.2901H214.594L216.812 75.3631Z" fill="black"/>
<path d="M65 67.4526V67.9433H253.441V67.4526H65Z" fill="black"/>
<path d="M74.8735 30C69.4951 30 65.7459 33.7099 65.7459 38.735C65.7459 42.5234 68.0818 44.6827 72.5769 46.0567L77.3664 47.5093C79.7023 48.2159 82.9411 49.8059 82.9411 53.6728C82.9411 56.3817 81.4493 60.4253 75.5802 60.4253C72.4984 60.4253 67.3751 60.4646 65.4711 51.4351H65V60.386H65.6281C65.8441 59.8364 66.0403 59.4635 66.8844 59.4635C67.8462 59.4635 69.2595 60.0523 70.3391 60.386C72.2628 60.8768 73.2443 61.0142 75.5802 61.0142C82.1559 61.0142 86.1603 56.3621 86.1603 51.1799C86.1603 45.4678 81.1156 44.2312 79.0349 43.5638L73.9902 41.9738C71.1243 41.0513 68.0033 39.8539 68.0033 36.2617C68.0033 31.8451 72.1647 30.5496 74.8735 30.5496C79.6238 30.5496 82.0774 34.2595 82.7448 38.2443H83.2356V30.7459H82.6467C82.2345 31.5311 82.0971 31.6292 81.3904 31.6292C79.8201 31.6292 78.7405 30 74.8735 30ZM167.857 30.6281C167.111 30.6281 166.326 30.6674 165.521 30.6674C164.736 30.7067 163.971 30.7459 163.185 30.7459H155.451V31.3348H160.064V59.7972H155.451V60.386H162.518C163.342 60.386 164.265 60.4253 165.227 60.4646C166.189 60.5038 167.15 60.5431 167.975 60.5431C171.881 60.5431 173.628 60.4253 176.337 59.2475C181.127 57.2061 184.915 52.8288 184.915 45.5463C184.915 39.265 181.951 33.7688 175.179 31.5507C172.882 30.8048 171.214 30.5889 167.857 30.5889V30.6281ZM167.779 31.217C177.103 31.217 180.145 36.9684 180.145 45.7426C180.145 49.4526 179.556 52.4951 177.77 55.4787C175.434 59.385 171.744 59.9738 167.955 59.9738C166.463 59.9738 165.207 59.8953 164.245 59.7972V31.3348C165.286 31.2955 166.405 31.217 167.779 31.217ZM129.05 36.831V42.5431H125.851V43.132H129.05V56.3621C129.05 59.2672 130.463 60.9749 134.625 60.9749C138.001 60.9749 138.904 58.5213 139.198 57.108L138.61 56.892C138.276 58.7176 137.059 60.386 135.116 60.386C133.997 60.386 132.623 59.8364 132.623 56.7154V43.1123H141.397V56.3424C141.397 59.2475 142.81 60.9553 146.972 60.9553C150.348 60.9553 151.251 58.5016 151.545 57.0883L150.956 56.8724C150.623 58.6979 149.425 60.3664 147.462 60.3664C146.344 60.3664 144.969 59.8168 144.969 56.6957V43.1123H150.878V42.5234H144.969V36.8113H141.397V42.5234H132.623V36.8113L129.05 36.831ZM98.2519 41.9935C92.8735 41.9935 88.5551 46.1549 88.5551 51.5725C88.5551 58.5213 93.9335 60.9749 98.1734 60.9749C103.748 60.9749 104.867 57.0294 105.26 55.8124L104.631 55.6947C104.219 57.0294 103.14 60.4057 98.2127 60.4057C93.7176 60.4057 92.7165 56.4602 92.7165 51.7099C92.7165 43.2105 95.7983 42.5823 98.2519 42.5823C99.9204 42.5823 101.412 43.289 101.412 44.5845C101.412 45.2912 100.823 46.5867 100.823 47.3719C100.823 48.373 101.864 48.7459 102.826 48.7459C104.2 48.7459 104.985 47.9215 104.985 46.7437C104.985 43.3282 101.196 41.9935 98.2323 41.9935H98.2519ZM116.527 41.9935C112.071 41.9935 106.83 45.9978 106.83 51.494C106.83 56.735 111.659 60.9749 116.527 60.9749C121.395 60.9749 126.224 56.735 126.224 51.494C126.224 45.9978 120.983 41.9935 116.527 41.9935ZM221.013 42.072C216.224 42.072 214.516 45.5267 213.848 46.9793H213.77V42.5234H207.076V43.1123H210.276V59.7972H204.25V42.5234H197.497V43.1123H200.658V52.7699C200.658 57.3828 197.497 60.386 195.083 60.386C192.256 60.386 191.55 58.1876 191.55 55.3021V42.5234H187.957V43.1123V54.9291C187.957 58.3053 189.174 59.2083 189.96 59.7972C190.706 60.3468 192.08 60.9553 194.298 60.9553C197.968 60.9553 199.676 58.4231 200.658 56.1658H200.736V60.3664H217.048V59.7775H213.848V50.3751C213.848 45.9586 216.891 42.6412 220.463 42.6412C222.623 42.6412 223.624 44.1723 223.624 46.3511V59.7972H220.424V60.386H239.543V59.7972H236.344V50.3948C236.344 45.9782 239.386 42.6609 242.959 42.6609C245.118 42.6609 246.119 44.1919 246.119 46.3708V59.7972H242.919V60.386H252.911V59.7972H249.711V47.6467C249.711 43.7797 247.179 42.072 243.508 42.072C238.719 42.072 237.011 45.5267 236.344 46.9793H236.265V42.5234H229.571V43.1123H232.771V59.7972H227.216V47.6467C227.216 43.7797 224.684 42.072 221.013 42.072ZM116.527 42.5627C120.276 42.5627 122.062 44.8593 122.062 51.4744C122.062 59.3457 119.471 60.386 116.527 60.386C113.563 60.386 110.991 59.3457 110.991 51.4744C110.991 44.8593 112.778 42.5627 116.527 42.5627Z" fill="black"/>
</svg>
