<?xml version="1.0" encoding="UTF-8"?>
<svg width="96px" height="100px" viewBox="0 0 96 100" version="1.1" xmlns="http://www.w3.org/2000/svg" xmlns:xlink="http://www.w3.org/1999/xlink">
    <!-- Generator: Sketch 45.2 (43514) - http://www.bohemiancoding.com/sketch -->
    <title>Combined Shape</title>
    <desc>Created with Sketch.</desc>
    <defs></defs>
    <g id="Page-1" stroke="none" stroke-width="1" fill="none" fill-rule="evenodd">
        <path d="M30.5967448,1.69746875 L32.7749794,1.56319402e-13 L47.6462718,3.71997199 L62.5198874,0.0030975408 L64.6957146,1.70313509 L64.6958316,7.32351758 C64.6958695,9.14245971 63.8236063,10.8721713 62.3739273,11.9699495 L54.880201,17.5901759 L56.6624272,39.4794716 L93.1302971,30.5936827 L95.29869,32.2961982 L95.2963261,37.7802839 C95.2963667,39.7280884 94.3249801,41.5321416 92.7117445,42.6051352 L56.4102277,66.8082045 L56.4107365,91.237539 C56.410837,96.0649222 52.4830944,100.002578 47.6482767,99.9999987 C42.8159373,99.9998981 38.8855527,96.0695135 38.8879302,91.2396522 L38.8874221,66.8400552 L2.58241852,42.6032583 C0.964181893,41.5252412 -0.00232356502,39.7211477 0.00259222204,37.7782995 L3.97903932e-13,32.2991699 L2.16584392,30.5992228 L38.6316057,39.4790962 L40.4129203,17.5948309 L32.9164817,11.9718142 C31.4642791,10.8814099 30.5969,9.14670587 30.594384,7.33024181 L30.5967448,1.69746875 Z" id="Combined-Shape" fill="#000000"></path>
    </g>
</svg>