<?xml version="1.0" encoding="UTF-8"?>
<svg width="100px" height="100px" viewBox="0 0 100 100" version="1.1" xmlns="http://www.w3.org/2000/svg" xmlns:xlink="http://www.w3.org/1999/xlink">
    <!-- Generator: Sketch 44.1 (41455) - http://www.bohemiancoding.com/sketch -->
    <title>airplane-o</title>
    <desc>Created with Sketch.</desc>
    <defs></defs>
    <g id="Page-1" stroke="none" stroke-width="1" fill="none" fill-rule="evenodd">
        <path d="M28.6633689,100 L25.4058839,99.5959217 L16.0333247,83.9701733 L0.408227024,74.593058 L0.00833116376,71.3354373 L4.73210102,66.6114707 C6.26086957,65.0826385 8.44780005,64.3619628 10.5889091,64.6577314 L21.6110388,66.2323869 L38.5108045,46.3367393 L0.391564697,23.1543106 L0,19.9008557 L4.61129914,15.2935302 C6.24837282,13.6563884 8.58109867,12.9565415 10.8388441,13.4106088 L61.6922676,23.5792177 L82.2244207,3.04620942 C86.2816975,-1.01123632 92.8924759,-1.01956783 96.9539183,3.04620942 L96.9539183,3.04620942 C101.015361,7.10782091 101.015361,13.7147089 96.9539183,17.7721547 L76.4467587,38.2801684 L86.5899505,89.1648703 C87.043999,91.4310412 86.3400156,93.7596984 84.7029419,95.3885088 L80.099974,99.9958342 L76.8508201,99.6042532 L53.6651914,61.4917573 L33.7745379,78.3880611 L35.3491278,89.4148156 C35.6532153,91.5518481 34.9242385,93.7388697 33.3996355,95.2677019 L28.6633689,100 Z M52.8195782,56.7386304 L55.9437646,57.2426868 L79.0210883,95.1760553 L81.75371,92.439154 C82.3993752,91.7934619 82.6784691,90.8769957 82.4993491,89.9813583 L72.1187191,37.759449 L72.7227285,36.1139756 L94.0088519,14.8269656 C96.4415517,12.3899987 96.4415517,8.42836536 94.0088519,5.99139847 C91.5678209,3.55859733 87.6021869,3.55443157 85.1694871,5.99139847 L63.8833637,27.2784084 L62.1338193,27.8699457 L61.658943,27.8199566 L10.0182244,17.4930491 C9.13095548,17.3180873 8.20203072,17.5930272 7.55636553,18.2387193 L4.82374382,20.9714548 L42.7555324,44.0497396 L43.2595678,47.1782219 L24.0354074,69.806605 L22.1525644,70.523115 L9.99323093,68.785995 C9.14345223,68.6443593 8.2770112,68.9484594 7.67300182,69.5608255 L4.83207498,72.3977049 L18.6159854,80.6708951 L19.3282999,81.387405 L27.59698,95.1718895 L30.4379068,92.3308444 C31.0419162,91.7226441 31.3335069,90.856167 31.212705,90.0063529 L29.4756574,77.8423472 L30.1879719,75.9635915 L52.8195782,56.7386304 Z" id="airplane-o" fill="#E63946" fill-rule="nonzero"></path>
    </g>
</svg>