<?xml version="1.0" encoding="UTF-8"?>
<svg width="128px" height="128px" viewBox="0 0 128 128" version="1.1" xmlns="http://www.w3.org/2000/svg" xmlns:xlink="http://www.w3.org/1999/xlink">
    <!-- Generator: Sketch 45.2 (43514) - http://www.bohemiancoding.com/sketch -->
    <title>agw-services-plane</title>
    <desc>Created with Sketch.</desc>
    <defs></defs>
    <g id="Page-1" stroke="none" stroke-width="1" fill="none" fill-rule="evenodd">
        <g id="agw-services-plane" fill="#000000">
            <path d="M114.827043,0 C111.313755,0 108.017362,1.36433514 105.543567,3.84312719 L80.7496496,28.6370448 L15.9852102,15.5973992 C15.4154878,15.4844542 14.846765,15.4284815 14.2810407,15.4284815 C11.9951546,15.4284815 9.7602437,16.3520314 8.14902887,17.9632463 L4.67772048,21.4345547 L0,26.1132747 L5.64924705,29.5555972 L51.3959541,57.4310131 L29.8024769,82.8606209 L15.7713144,80.8416048 C15.3355268,80.7726384 14.8917431,80.7376555 14.4509579,80.7376555 C12.1750669,80.7376555 9.94415408,81.6761981 8.32994071,83.3124008 L4.7486859,86.888658 L0.0269868489,91.6033605 L5.75119736,95.0326893 L22.773902,105.228721 L32.9699333,122.251425 L36.3982626,127.975636 L41.1139646,123.253937 L44.7182082,119.644696 C46.670257,117.718634 47.5908084,114.942987 47.1610178,112.232308 L45.1410022,98.1991462 L70.5716095,76.6066685 L98.4470255,122.353376 L101.889348,128.002623 L106.567068,123.324902 L110.039376,119.852594 C112.087378,117.804592 112.972947,114.880017 112.408222,112.031406 L99.3655778,47.252973 L124.162494,22.4560569 C129.281999,17.3465468 129.279001,9.00261291 124.154498,3.86011891 C121.651717,1.36633417 118.344329,0 114.827043,0 M114.827043,5.20246477 C116.868049,5.20246477 118.911053,5.98008582 120.469294,7.5323294 C123.568783,10.6428136 123.580777,15.6873553 120.484286,18.7778493 L93.7153313,45.5468044 L107.305708,113.043912 C107.529599,114.173362 107.180769,115.353787 106.361169,116.174387 L102.888861,119.646695 L71.844989,68.6995218 L39.5827108,96.0951715 L42.0185238,113.017925 C42.2004352,114.099398 41.8146232,115.201861 41.0370021,115.968487 L37.4327585,119.577728 L26.566054,101.436569 L8.42389492,90.5698641 L12.0331361,86.9656205 C12.6748234,86.3159371 13.5493972,85.9391207 14.4509579,85.9391207 C14.6278716,85.9391207 14.8067845,85.9541134 14.9836982,85.9840988 L31.9074511,88.4189123 L59.3021013,56.1566341 L8.35592804,25.1137617 L11.8282359,21.6414538 C12.4849159,20.9847738 13.3724834,20.6309463 14.2810407,20.6309463 C14.5069306,20.6309463 14.73382,20.651936 14.9587104,20.6969141 L82.4558182,34.2862918 L109.224773,7.51833621 C110.767022,5.97308923 112.795033,5.20246477 114.827043,5.20246477" id="Fill-1"></path>
        </g>
    </g>
</svg>