<?xml version="1.0" encoding="UTF-8"?>
<svg width="128px" height="128px" viewBox="0 0 128 128" version="1.1" xmlns="http://www.w3.org/2000/svg" xmlns:xlink="http://www.w3.org/1999/xlink">
    <!-- Generator: Sketch 45.2 (43514) - http://www.bohemiancoding.com/sketch -->
    <title>agw-nav-plane</title>
    <desc>Created with Sketch.</desc>
    <defs></defs>
    <g id="Page-1" stroke="none" stroke-width="1" fill="none" fill-rule="evenodd">
        <g id="agw-nav-plane" fill="#000000">
            <path d="M64,128 C28.653776,128 0,99.346224 0,64 C0,28.653776 28.653776,0 64,0 C99.346224,0 128,28.653776 128,64 C128,99.346224 99.346224,128 64,128 Z M63.997,99 L64.001,99 L64.003,99 C67.048,98.994 69.522,96.522 69.52,93.488 L69.52,77.504 L94.439,60.937 C95.418,60.282 96,59.196 96,58.027 L96,55.819 L96,53.353 L93.604,53.935 L69.737,59.729 L68.46,46.546 L73.758,42.582 C74.632,41.962 75.169,40.897 75.162,39.765 L75.164,37.487 L75.165,35 L72.754,35.605 L64.001,37.799 L55.248,35.605 L52.834,35 L52.836,37.487 L52.838,39.781 C52.83,40.897 53.369,41.96 54.279,42.609 L59.54,46.546 L58.264,59.729 L34.396,53.935 L32,53.353 L32,55.819 L32,58.027 C32,59.196 32.582,60.282 33.557,60.933 L58.482,77.504 L58.482,93.49 C58.478,96.522 60.953,98.994 63.997,99 Z" id="Combined-Shape"></path>
        </g>
    </g>
</svg>