<?xml version="1.0" encoding="UTF-8"?>
<svg width="128px" height="128px" viewBox="0 0 128 128" version="1.1" xmlns="http://www.w3.org/2000/svg" xmlns:xlink="http://www.w3.org/1999/xlink">
    <!-- Generator: Sketch 45.2 (43514) - http://www.bohemiancoding.com/sketch -->
    <title>agw-angellist</title>
    <desc>Created with Sketch.</desc>
    <defs></defs>
    <g id="Page-1" stroke="none" stroke-width="1" fill="none" fill-rule="evenodd">
        <g id="agw-angellist" fill="#000000">
            <path d="M63.9977681,0 C99.3512119,0 128,28.6577158 128,64.0022319 C128,64.8905318 127.973217,65.7699041 127.933043,66.6448126 C127.964289,68.8945772 127.767881,71.0729207 127.339355,73.1843069 C122.884464,104.1766 96.2310026,128.004464 63.9977681,128.004464 C28.653252,128.004464 0,99.346748 0,64.0022319 C0,28.6577158 28.653252,0 63.9977681,0 Z M78.9664787,57.3558866 L72.0075177,56.1416029 L77.5307021,40.179977 C78.8188168,36.3894639 79.9969705,33.6357261 81.0651631,31.925047 C82.1333558,30.212797 83.182698,29.356672 84.2131897,29.356672 C85.0221886,29.356672 85.6568207,29.6519958 86.1186569,30.2395018 C86.5789223,30.8285786 86.8082695,31.6579988 86.8082695,32.7246206 C86.8082695,33.7189823 86.1186569,36.3973183 84.7378608,40.7611995 C83.3570647,45.1235098 81.4327471,50.6545485 78.9664787,57.3558866 Z M71.6210833,72.2116188 C70.5528907,72.9106567 69.5318242,73.7118012 68.5563129,74.6134814 C67.5808017,75.5167326 66.6508457,76.5189486 65.7680159,77.6232713 C65.4726921,76.4828186 65.0956829,75.3235154 64.6354175,74.1453617 C64.1735813,72.9672081 63.6489102,71.7890544 63.0614042,70.6109007 C64.3495189,71.0884457 65.7036102,71.4576005 67.1205363,71.7152234 C68.5374625,71.9728464 70.0376448,72.1377879 71.6210833,72.2116188 Z M65.3815815,55.4786951 C63.8704031,55.3310331 62.7849309,55.2383517 62.1220231,55.2022217 C61.4591153,55.1660916 61.0177004,55.1472412 60.7977783,55.1472412 C60.0971696,55.1472412 59.5457937,55.2289265 59.1405089,55.3954389 C58.735224,55.5603804 58.4226206,55.846279 58.2011277,56.2515639 C55.6248983,49.4402648 53.6911554,43.9359309 52.4030408,39.7385621 C51.1133552,35.5411933 50.4692979,32.5958091 50.4692979,30.9024096 C50.4692979,29.9080479 50.7096412,29.1163286 51.1871862,28.5272518 C51.666302,27.9397459 52.2930797,27.644422 53.0659486,27.644422 C54.0603102,27.644422 54.9792701,28.316755 55.8275407,29.6598502 C56.6742405,31.0045163 57.8696738,33.8666442 59.4169822,38.247805 L65.3815815,55.4786951 Z M59.9683582,82.152094 C59.1216584,82.152094 57.9812056,81.5441667 56.545429,80.329883 C55.1080816,79.1155993 53.5811944,77.4221998 51.9616259,75.2496844 C50.4143174,73.260961 49.1811832,71.3837695 48.2606525,69.616539 C47.3401217,67.8493085 46.8798564,66.5234929 46.8798564,65.6390923 C46.8798564,64.7923925 47.349547,63.881287 48.2889282,62.9057758 C49.2267385,61.9318354 50.0828635,61.4432943 50.8557323,61.4432943 C51.8139639,61.4432943 52.8256052,61.9114141 53.8937979,62.8507953 C54.9619905,63.7901764 56.0474628,65.1788269 57.1517855,67.0198884 C58.661393,69.4877276 59.921232,71.9995512 60.9344442,74.5585009 C61.9476563,77.1190216 62.453477,78.7480154 62.453477,79.4470532 C62.453477,80.1083901 62.195854,80.7257427 61.6806082,81.295969 C61.1637914,81.8677663 60.5951359,82.152094 59.9683582,82.152094 Z M43.4003759,80.8262784 C43.1804539,81.0477713 43.0233667,81.3148195 42.9322562,81.6274229 C42.8395747,81.9400264 42.7940195,82.299756 42.7940195,82.7050408 C42.7940195,84.8775562 43.9894527,87.0956268 46.383461,89.3592527 C48.7758983,91.6228786 51.1322057,92.755477 53.452383,92.755477 C54.9242896,92.755477 56.1935538,92.2685068 57.2633173,91.2929956 C58.3299391,90.3174844 58.8640355,89.1471851 58.8640355,87.7852394 C58.8640355,87.5637465 58.8373306,87.2605683 58.7807793,86.8741339 C58.7257988,86.4876995 58.6425426,86.0918399 58.5325816,85.686555 C58.9001655,85.796516 59.2316194,85.8797722 59.5269433,85.9347527 C59.8206962,85.9913041 60.1348705,86.0180089 60.4663244,86.0180089 C60.7977783,86.0180089 61.1009565,85.9630284 61.3774299,85.8530674 C61.6539033,85.7415355 61.9382311,85.5577436 62.2335549,85.3001206 L62.2335549,85.796516 C62.2335549,88.7796011 62.7016747,91.1626133 63.6410559,92.9486942 C64.580437,94.7347752 65.8591265,95.6820107 67.4802659,95.7935426 L67.5902269,95.2955763 L67.5902269,94.9091419 C67.5902269,94.5038571 67.3043283,93.4466605 66.7341019,91.7344105 C66.1623047,90.0221605 65.8779769,88.5581082 65.8779769,87.3438245 C65.8779769,85.3551011 66.5487391,83.2485624 67.8934051,81.0194956 C69.2380712,78.7919998 71.0147269,76.869253 73.2233723,75.2496844 C74.2522932,74.5129457 75.7446212,73.7667817 77.6956436,73.0127633 C79.648237,72.258745 80.9347808,71.586412 81.5615585,70.9973351 C81.4515975,70.2228955 81.2395299,69.6432438 80.9269264,69.2568094 C80.614323,68.870375 80.1996129,68.6771578 79.684367,68.6771578 L77.4207411,68.6771578 C71.160818,68.6771578 66.6319953,68.1163567 63.8342731,66.9931835 C61.0365508,65.8700104 59.6369043,64.0572246 59.6369043,61.5532554 C59.6369043,60.4850627 59.9133777,59.7310443 60.4663244,59.2880586 C61.0177004,58.8466437 61.9570815,58.6267216 63.2828971,58.6267216 C68.0316418,58.6267216 72.5871693,59.1231171 76.9510505,60.1174788 C81.3133608,61.1118404 84.2493198,62.2350136 85.7589273,63.4854274 C86.6056271,64.1483352 87.2135544,65.2071026 87.5811383,66.6617296 C87.9487223,68.1163567 88.1340851,70.0768044 88.1340851,72.5430727 C88.1340851,80.6063564 85.7118012,87.3155488 80.8719459,92.6722208 C76.0305198,98.0288928 70.0203652,100.707229 62.8399114,100.707229 C58.9378664,100.707229 55.3751297,99.9265057 52.1548431,98.3603467 C48.9314146,96.7957586 46.235799,94.5604084 44.0632837,91.6511543 C42.6275071,89.7739628 41.5310387,87.9046257 40.7770204,86.0462846 C40.023002,84.1879436 39.6459929,82.5023984 39.6459929,80.9927908 C39.6459929,79.1155993 40.1879436,77.4850346 41.2749867,76.1058094 C42.3604589,74.7250133 43.5480378,74.0338298 44.8361525,74.0338298 C45.4252293,74.0338298 46.2075234,74.4673904 47.1846055,75.3313697 C48.1585458,76.19692 49.3838256,77.5682908 50.8557323,79.4470532 C52.1454178,81.0666218 53.1570591,82.5212488 53.8937979,83.8093635 C54.6305366,85.0990491 54.9981206,86.0180089 54.9981206,86.5709557 C54.9981206,87.0485007 54.7216472,87.508766 54.1702713,87.9517518 C53.6173245,88.3931667 52.9905467,88.6130887 52.2930797,88.6130887 C50.2305254,88.6130887 47.9841791,86.9385397 45.5540408,83.5878706 C44.6350809,82.3735869 43.9171926,81.4530562 43.4003759,80.8262784 Z M82.9423546,58.2952677 C85.4463239,51.3363068 87.3140902,45.7031614 88.5487952,41.3958316 C89.7819294,37.0885018 90.397711,34.1242672 90.397711,32.5046986 C90.397711,30.3698841 89.8369099,28.6654885 88.7137367,27.3962243 C87.5905636,26.1253892 86.0903812,25.4907571 84.2131897,25.4907571 C80.3834049,25.4907571 75.8184521,33.1487559 70.5167606,48.4647536 C69.7800219,50.563438 69.2097955,52.1845774 68.8045106,53.3250302 C68.3269657,51.8892536 67.626357,49.8455497 66.7058263,47.1939185 C61.4041348,31.7318298 57.022974,24 53.562344,24 C51.5374905,24 49.9367724,24.6707622 48.7586188,26.0154282 C47.5788942,27.3600943 46.9913883,29.17288 46.9913883,31.4553564 C46.9913883,33.111055 47.6338747,36.1208449 48.9235603,40.4847261 C50.2116749,44.8470364 52.2726584,51.0409829 55.1080816,59.0681366 C54.1514208,58.5151898 53.304721,58.120901 52.5679823,57.8805577 C51.8312435,57.6417852 51.1322057,57.5208281 50.4692979,57.5208281 C48.9235603,57.5208281 47.275716,58.3863783 45.527336,60.1174788 C43.7789559,61.8485792 42.9039805,63.5419787 42.9039805,65.1976774 C42.9039805,65.6767932 43.0327919,66.3569806 43.2904149,67.2413812 C43.5480378,68.1242111 43.9533227,69.2112542 44.5062695,70.4993688 C41.5593144,71.1261466 39.4056495,72.3043003 38.0437039,74.0338298 C36.6817583,75.7649303 36,78.2123482 36,81.3792252 C36,84.2146484 36.6629078,86.9840949 37.9887234,89.6907066 C39.314539,92.3973183 41.3016915,94.9641224 43.9533227,97.3942607 C46.2735,99.6029061 49.0429465,101.324581 52.2648041,102.557716 C55.4866616,103.79085 58.809055,104.408202 62.2335549,104.408202 C70.9220455,104.408202 78.0553732,101.453393 83.6335381,95.5453449 C89.2101321,89.6357261 92,82.042133 92,72.7645656 C92,68.0896519 91.3182417,64.6651519 89.9562961,62.4926365 C88.5943505,60.3201212 86.2568936,58.9220455 82.9423546,58.2952677 Z" id="Combined-Shape"></path>
        </g>
    </g>
</svg>