<?xml version="1.0" encoding="UTF-8"?>
<svg width="128px" height="128px" viewBox="0 0 128 128" version="1.1" xmlns="http://www.w3.org/2000/svg" xmlns:xlink="http://www.w3.org/1999/xlink">
    <!-- Generator: Sketch 45.2 (43514) - http://www.bohemiancoding.com/sketch -->
    <title>agw-github</title>
    <desc>Created with Sketch.</desc>
    <defs></defs>
    <g id="Page-1" stroke="none" stroke-width="1" fill="none" fill-rule="evenodd">
        <g id="agw-github" fill="#000000">
            <path d="M63.9941066,0 C28.6535498,0 0,29.3786912 0,65.6216755 C0,94.613646 18.3362289,119.206668 43.7680715,127.887743 C46.9701341,128.487966 48.1370208,126.46171 48.1370208,124.721467 C48.1370208,123.166527 48.082016,119.037478 48.0505847,113.562962 C30.2486878,117.52685 26.4926486,104.765065 26.4926486,104.765065 C23.5813254,97.1877559 19.3852482,95.1655287 19.3852482,95.1655287 C13.5743884,91.0969043 19.8252862,91.1774711 19.8252862,91.1774711 C26.2490561,91.6407303 29.6279198,97.9410557 29.6279198,97.9410557 C35.3366279,107.967597 44.6088585,105.071219 48.2548881,103.395429 C48.836367,99.1535864 50.4865097,96.2612375 52.3173824,94.6217027 C38.1065103,92.9660545 23.1648608,87.3344337 23.1648608,62.189529 C23.1648608,55.0271386 25.6597195,49.1699307 29.753645,44.5816503 C29.0935879,42.9219738 26.8973265,36.251041 30.3783419,27.2154721 C30.3783419,27.2154721 35.7530925,25.4510587 47.9798643,33.9428016 C53.0835201,32.4845421 58.5604224,31.7594408 64.0019645,31.7352707 C69.4356487,31.7594408 74.912551,32.4845421 80.0240646,33.9428016 C92.2429786,25.4510587 97.6059425,27.2154721 97.6059425,27.2154721 C101.098745,36.251041 98.9024832,42.9219738 98.2424261,44.5816503 C102.344209,49.1699307 104.823352,55.0271386 104.823352,62.189529 C104.823352,87.3988872 89.8581295,92.9459128 75.6001105,94.5693342 C77.8985236,96.5955898 79.9454864,100.599761 79.9454864,106.722839 C79.9454864,115.492538 79.8669081,122.570333 79.8669081,124.721467 C79.8669081,126.477824 81.0180791,128.520193 84.2672887,127.879686 C109.679487,119.182498 128,94.6055893 128,65.6216755 C128,29.3786912 99.3425213,0 63.9941066,0" id="Fill-1"></path>
        </g>
    </g>
</svg>