<?xml version="1.0" encoding="UTF-8"?>
<svg width="128px" height="128px" viewBox="0 0 128 128" version="1.1" xmlns="http://www.w3.org/2000/svg" xmlns:xlink="http://www.w3.org/1999/xlink">
    <!-- Generator: Sketch 46.2 (44496) - http://www.bohemiancoding.com/sketch -->
    <title>agw-services-stats</title>
    <desc>Created with Sketch.</desc>
    <defs></defs>
    <g id="Page-1" stroke="none" stroke-width="1" fill="none" fill-rule="evenodd">
        <g id="agw-services-stats" fill="#000000">
            <path d="M16,64 C10.1173333,64 5.33333333,59.216 5.33333333,53.3333333 C5.33333333,47.4506667 10.1173333,42.6666667 16,42.6666667 C18.3221333,42.6666667 20.4661333,43.4208 22.2186667,44.6837333 L38.3701333,31.2245333 C37.712,29.84 37.3333333,28.2986667 37.3333333,26.6666667 C37.3333333,20.784 42.1173333,16 48,16 C53.8826667,16 58.6666667,20.784 58.6666667,26.6666667 C58.6666667,27.8965333 58.4469333,29.0741333 58.0618667,30.1738667 L72.8970667,40.064 C74.7850667,38.3722667 77.2704,37.3333333 80,37.3333333 C81.6832,37.3333333 83.2714667,37.7354667 84.688,38.4330667 L103.2672,16.7744 C102.052267,15.0421333 101.333333,12.9386667 101.333333,10.6666667 C101.333333,4.784 106.117333,0 112,0 C117.882667,0 122.666667,4.784 122.666667,10.6666667 C122.666667,16.5493333 117.882667,21.3333333 112,21.3333333 C110.321067,21.3333333 108.737067,20.9322667 107.322667,20.2389333 L88.7392,41.9018667 C89.9498667,43.632 90.6666667,45.7322667 90.6666667,48 C90.6666667,53.8826667 85.8826667,58.6666667 80,58.6666667 C74.1173333,58.6666667 69.3333333,53.8826667 69.3333333,48 C69.3333333,46.7722667 69.552,45.5978667 69.9349333,44.4992 L55.0976,34.6069333 C53.2096,36.2965333 50.7274667,37.3333333 48,37.3333333 C45.6810667,37.3333333 43.5381333,36.5813333 41.7866667,35.3194667 L25.6330667,48.7818667 C26.2890667,50.1642667 26.6666667,51.7034667 26.6666667,53.3333333 C26.6666667,59.216 21.8826667,64 16,64 Z M16,48 C13.0613333,48 10.6666667,50.3946667 10.6666667,53.3333333 C10.6666667,56.272 13.0613333,58.6666667 16,58.6666667 C18.9386667,58.6666667 21.3333333,56.272 21.3333333,53.3333333 C21.3333333,50.3946667 18.9386667,48 16,48 Z M48,21.3333333 C45.0613333,21.3333333 42.6666667,23.728 42.6666667,26.6666667 C42.6666667,29.6053333 45.0613333,32 48,32 C50.9386667,32 53.3333333,29.6053333 53.3333333,26.6666667 C53.3333333,23.728 50.9386667,21.3333333 48,21.3333333 Z M85.3333333,48 C85.3333333,45.0613333 82.944,42.6666667 80,42.6666667 C77.056,42.6666667 74.6666667,45.0613333 74.6666667,48 C74.6666667,50.9386667 77.056,53.3333333 80,53.3333333 C82.944,53.3333333 85.3333333,50.9386667 85.3333333,48 Z M112,5.33333333 C109.056,5.33333333 106.666667,7.728 106.666667,10.6666667 C106.666667,13.6053333 109.056,16 112,16 C114.944,16 117.333333,13.6053333 117.333333,10.6666667 C117.333333,7.728 114.944,5.33333333 112,5.33333333 Z M122.666667,122.666667 L128,122.666667 L128,128 L120,128 L104,128 L88,128 L72,128 L56,128 L40,128 L24,128 L8,128 L-1.77635684e-15,128 L-1.77635684e-15,122.666667 L5.33333333,122.666667 L5.33333333,85.3493333 C5.33333333,82.4 7.73333333,80 10.6826667,80 L21.3173333,80 C24.2666667,80 26.6666667,82.4 26.6666667,85.3493333 L26.6666667,122.666667 L37.3333333,122.666667 L37.3333333,58.6826667 C37.3333333,55.7333333 39.7333333,53.3333333 42.6826667,53.3333333 L53.3173333,53.3333333 C56.2666667,53.3333333 58.6666667,55.7333333 58.6666667,58.6826667 L58.6666667,122.666667 L69.3333333,122.666667 L69.3333333,80.016 C69.3333333,77.0666667 71.7333333,74.6666667 74.6826667,74.6666667 L85.3173333,74.6666667 C88.2666667,74.6666667 90.6666667,77.0666667 90.6666667,80.016 L90.6666667,122.666667 L101.333333,122.666667 L101.333333,42.6826667 C101.333333,39.7333333 103.733333,37.3333333 106.682667,37.3333333 L117.317333,37.3333333 C120.266667,37.3333333 122.666667,39.7333333 122.666667,42.6826667 L122.666667,122.666667 Z M106.666667,122.666667 L117.333333,122.666667 L117.333333,42.6666667 L106.682667,42.6666667 L106.666667,122.666667 Z M74.6666667,122.666667 L85.3333333,122.666667 L85.3333333,80 L74.6666667,80 L74.6666667,122.666667 Z M42.6666667,122.666667 L53.3333333,122.666667 L53.3333333,58.6666667 L42.6826667,58.6666667 L42.6666667,122.666667 Z M10.6666667,122.666667 L21.3333333,122.666667 L21.3333333,85.3333333 L10.6826667,85.3333333 L10.6666667,122.666667 Z" id="Combined-Shape"></path>
        </g>
    </g>
</svg>