<?xml version="1.0" encoding="UTF-8"?>
<svg width="128px" height="128px" viewBox="0 0 128 128" version="1.1" xmlns="http://www.w3.org/2000/svg" xmlns:xlink="http://www.w3.org/1999/xlink">
    <!-- Generator: Sketch 45.2 (43514) - http://www.bohemiancoding.com/sketch -->
    <title>agw-services-stats</title>
    <desc>Created with Sketch.</desc>
    <defs></defs>
    <g id="Page-1" stroke="none" stroke-width="1" fill="none" fill-rule="evenodd">
        <g id="agw-services-stats" fill="#000000">
            <path d="M16,48 C18.9386667,48 21.3333333,50.3946667 21.3333333,53.3333333 C21.3333333,56.272 18.9386667,58.6666667 16,58.6666667 C13.0613333,58.6666667 10.6666667,56.272 10.6666667,53.3333333 C10.6666667,50.3946667 13.0613333,48 16,48 L16,48 Z M48,21.3333333 C50.9386667,21.3333333 53.3333333,23.728 53.3333333,26.6666667 C53.3333333,29.6053333 50.9386667,32 48,32 C45.0613333,32 42.6666667,29.6053333 42.6666667,26.6666667 C42.6666667,23.728 45.0613333,21.3333333 48,21.3333333 L48,21.3333333 Z M85.3333333,48 C85.3333333,50.9386667 82.944,53.3333333 80,53.3333333 C77.056,53.3333333 74.6666667,50.9386667 74.6666667,48 C74.6666667,45.0613333 77.056,42.6666667 80,42.6666667 C82.944,42.6666667 85.3333333,45.0613333 85.3333333,48 L85.3333333,48 Z M112,5.33333333 C114.944,5.33333333 117.333333,7.728 117.333333,10.6666667 C117.333333,13.6053333 114.944,16 112,16 C109.056,16 106.666667,13.6053333 106.666667,10.6666667 C106.666667,7.728 109.056,5.33333333 112,5.33333333 L112,5.33333333 Z M16,64 C21.8826667,64 26.6666667,59.216 26.6666667,53.3333333 C26.6666667,51.7034667 26.2890667,50.1642667 25.6330667,48.7818667 L41.7866667,35.3194667 C43.5381333,36.5813333 45.6810667,37.3333333 48,37.3333333 C50.7274667,37.3333333 53.2096,36.2965333 55.0976,34.6069333 L69.9349333,44.4992 C69.552,45.5978667 69.3333333,46.7722667 69.3333333,48 C69.3333333,53.8826667 74.1173333,58.6666667 80,58.6666667 C85.8826667,58.6666667 90.6666667,53.8826667 90.6666667,48 C90.6666667,45.7322667 89.9498667,43.632 88.7392,41.9018667 L107.322667,20.2389333 C108.737067,20.9322667 110.321067,21.3333333 112,21.3333333 C117.882667,21.3333333 122.666667,16.5493333 122.666667,10.6666667 C122.666667,4.784 117.882667,0 112,0 C106.117333,0 101.333333,4.784 101.333333,10.6666667 C101.333333,12.9386667 102.052267,15.0421333 103.2672,16.7744 L84.688,38.4330667 C83.2714667,37.7354667 81.6832,37.3333333 80,37.3333333 C77.2704,37.3333333 74.7850667,38.3722667 72.8970667,40.064 L58.0618667,30.1738667 C58.4469333,29.0741333 58.6666667,27.8965333 58.6666667,26.6666667 C58.6666667,20.784 53.8826667,16 48,16 C42.1173333,16 37.3333333,20.784 37.3333333,26.6666667 C37.3333333,28.2986667 37.712,29.84 38.3701333,31.2245333 L22.2186667,44.6837333 C20.4661333,43.4208 18.3221333,42.6666667 16,42.6666667 C10.1173333,42.6666667 5.33333333,47.4506667 5.33333333,53.3333333 C5.33333333,59.216 10.1173333,64 16,64 L16,64 Z M106.666667,122.666667 L106.682667,42.6666667 L117.333333,42.6666667 L117.333333,122.666667 L106.666667,122.666667 Z M74.6666667,122.666667 L85.3333333,122.666667 L85.3333333,80 L74.6666667,80 L74.6666667,122.666667 Z M42.6666667,122.666667 L42.6826667,58.6666667 L53.3333333,58.6666667 L53.3333333,122.666667 L42.6666667,122.666667 Z M10.6666667,122.666667 L10.6826667,85.3333333 L21.3333333,85.3333333 L21.3333333,122.666667 L10.6666667,122.666667 Z M122.666667,122.666667 L122.666667,42.6826667 C122.666667,39.7333333 120.266667,37.3333333 117.317333,37.3333333 L106.682667,37.3333333 C103.733333,37.3333333 101.333333,39.7333333 101.333333,42.6826667 L101.333333,122.666667 L90.6666667,122.666667 L90.6666667,80.016 C90.6666667,77.0666667 88.2666667,74.6666667 85.3173333,74.6666667 L74.6826667,74.6666667 C71.7333333,74.6666667 69.3333333,77.0666667 69.3333333,80.016 L69.3333333,122.666667 L58.6666667,122.666667 L58.6666667,58.6826667 C58.6666667,55.7333333 56.2666667,53.3333333 53.3173333,53.3333333 L42.6826667,53.3333333 C39.7333333,53.3333333 37.3333333,55.7333333 37.3333333,58.6826667 L37.3333333,122.666667 L26.6666667,122.666667 L26.6666667,85.3493333 C26.6666667,82.4 24.2666667,80 21.3173333,80 L10.6826667,80 C7.73333333,80 5.33333333,82.4 5.33333333,85.3493333 L5.33333333,122.666667 L0,122.666667 L0,128 L8,128 L24,128 L40,128 L56,128 L72,128 L88,128 L104,128 L120,128 L128,128 L128,122.666667 L122.666667,122.666667 Z" id="Page-1"></path>
        </g>
    </g>
</svg>