<?xml version="1.0" encoding="UTF-8"?>
<svg width="100px" height="100px" viewBox="0 0 100 100" version="1.1" xmlns="http://www.w3.org/2000/svg" xmlns:xlink="http://www.w3.org/1999/xlink">
    <!-- Generator: Sketch 44.1 (41455) - http://www.bohemiancoding.com/sketch -->
    <title>graph-o</title>
    <desc>Created with Sketch.</desc>
    <defs></defs>
    <g id="Page-1" stroke="none" stroke-width="1" fill="none" fill-rule="evenodd">
        <path d="M12.5,37.5 C14.7958333,37.5 16.6666667,39.3708333 16.6666667,41.6666667 C16.6666667,43.9625 14.7958333,45.8333333 12.5,45.8333333 C10.2041667,45.8333333 8.33333333,43.9625 8.33333333,41.6666667 C8.33333333,39.3708333 10.2041667,37.5 12.5,37.5 L12.5,37.5 Z M37.5,16.6666667 C39.7958333,16.6666667 41.6666667,18.5375 41.6666667,20.8333333 C41.6666667,23.1291667 39.7958333,25 37.5,25 C35.2041667,25 33.3333333,23.1291667 33.3333333,20.8333333 C33.3333333,18.5375 35.2041667,16.6666667 37.5,16.6666667 L37.5,16.6666667 Z M66.6666667,37.5 C66.6666667,39.7958333 64.8,41.6666667 62.5,41.6666667 C60.2,41.6666667 58.3333333,39.7958333 58.3333333,37.5 C58.3333333,35.2041667 60.2,33.3333333 62.5,33.3333333 C64.8,33.3333333 66.6666667,35.2041667 66.6666667,37.5 L66.6666667,37.5 Z M87.5,4.16666667 C89.8,4.16666667 91.6666667,6.0375 91.6666667,8.33333333 C91.6666667,10.6291667 89.8,12.5 87.5,12.5 C85.2,12.5 83.3333333,10.6291667 83.3333333,8.33333333 C83.3333333,6.0375 85.2,4.16666667 87.5,4.16666667 L87.5,4.16666667 Z M12.5,50 C17.0958333,50 20.8333333,46.2625 20.8333333,41.6666667 C20.8333333,40.3933333 20.5383333,39.1908333 20.0258333,38.1108333 L32.6458333,27.5933333 C34.0141667,28.5791667 35.6883333,29.1666667 37.5,29.1666667 C39.6308333,29.1666667 41.57,28.3566667 43.045,27.0366667 L54.6366667,34.765 C54.3375,35.6233333 54.1666667,36.5408333 54.1666667,37.5 C54.1666667,42.0958333 57.9041667,45.8333333 62.5,45.8333333 C67.0958333,45.8333333 70.8333333,42.0958333 70.8333333,37.5 C70.8333333,35.7283333 70.2733333,34.0875 69.3275,32.7358333 L83.8458333,15.8116667 C84.9508333,16.3533333 86.1883333,16.6666667 87.5,16.6666667 C92.0958333,16.6666667 95.8333333,12.9291667 95.8333333,8.33333333 C95.8333333,3.7375 92.0958333,0 87.5,0 C82.9041667,0 79.1666667,3.7375 79.1666667,8.33333333 C79.1666667,10.1083333 79.7283333,11.7516667 80.6775,13.105 L66.1625,30.0258333 C65.0558333,29.4808333 63.815,29.1666667 62.5,29.1666667 C60.3675,29.1666667 58.4258333,29.9783333 56.9508333,31.3 L45.3608333,23.5733333 C45.6616667,22.7141667 45.8333333,21.7941667 45.8333333,20.8333333 C45.8333333,16.2375 42.0958333,12.5 37.5,12.5 C32.9041667,12.5 29.1666667,16.2375 29.1666667,20.8333333 C29.1666667,22.1083333 29.4625,23.3125 29.9766667,24.3941667 L17.3583333,34.9091667 C15.9891667,33.9225 14.3141667,33.3333333 12.5,33.3333333 C7.90416667,33.3333333 4.16666667,37.0708333 4.16666667,41.6666667 C4.16666667,46.2625 7.90416667,50 12.5,50 L12.5,50 Z M83.3333333,95.8333333 L83.3458333,33.3333333 L91.6666667,33.3333333 L91.6666667,95.8333333 L83.3333333,95.8333333 Z M58.3333333,95.8333333 L66.6666667,95.8333333 L66.6666667,62.5 L58.3333333,62.5 L58.3333333,95.8333333 Z M33.3333333,95.8333333 L33.3458333,45.8333333 L41.6666667,45.8333333 L41.6666667,95.8333333 L33.3333333,95.8333333 Z M8.33333333,95.8333333 L8.34583333,66.6666667 L16.6666667,66.6666667 L16.6666667,95.8333333 L8.33333333,95.8333333 Z M95.8333333,95.8333333 L95.8333333,33.3458333 C95.8333333,31.0416667 93.9583333,29.1666667 91.6541667,29.1666667 L83.3458333,29.1666667 C81.0416667,29.1666667 79.1666667,31.0416667 79.1666667,33.3458333 L79.1666667,95.8333333 L70.8333333,95.8333333 L70.8333333,62.5125 C70.8333333,60.2083333 68.9583333,58.3333333 66.6541667,58.3333333 L58.3458333,58.3333333 C56.0416667,58.3333333 54.1666667,60.2083333 54.1666667,62.5125 L54.1666667,95.8333333 L45.8333333,95.8333333 L45.8333333,45.8458333 C45.8333333,43.5416667 43.9583333,41.6666667 41.6541667,41.6666667 L33.3458333,41.6666667 C31.0416667,41.6666667 29.1666667,43.5416667 29.1666667,45.8458333 L29.1666667,95.8333333 L20.8333333,95.8333333 L20.8333333,66.6791667 C20.8333333,64.375 18.9583333,62.5 16.6541667,62.5 L8.34583333,62.5 C6.04166667,62.5 4.16666667,64.375 4.16666667,66.6791667 L4.16666667,95.8333333 L0,95.8333333 L0,100 L6.25,100 L18.75,100 L31.25,100 L43.75,100 L56.25,100 L68.75,100 L81.25,100 L93.75,100 L100,100 L100,95.8333333 L95.8333333,95.8333333 Z" id="graph-o" fill="#E63946"></path>
    </g>
</svg>