<?xml version="1.0" encoding="UTF-8"?>
<svg width="128px" height="128px" viewBox="0 0 128 128" version="1.1" xmlns="http://www.w3.org/2000/svg" xmlns:xlink="http://www.w3.org/1999/xlink">
    <!-- Generator: Sketch 45.2 (43514) - http://www.bohemiancoding.com/sketch -->
    <title>agw-linkedin</title>
<svg width="32" height="32" viewBox="0 0 32 32" fill="none" xmlns="http://www.w3.org/2000/svg">
<g id="agw-linkedin">
<path opacity="0.5" fill-rule="evenodd" clip-rule="evenodd" d="M16 32C24.8365 32 32 24.8366 32 16C32 7.16344 24.8365 0 16 0C7.16345 0 0 7.16344 0 16C0 24.8366 7.16345 32 16 32ZM9.08334 10C10.225 10 11.15 9.0675 11.15 7.91666C11.15 6.76667 10.225 5.83334 9.08334 5.83334C7.94168 5.83334 7.01666 6.76667 7.01666 7.91666C7.01666 9.0675 7.94168 10 9.08334 10ZM7 11.6667H11.1667V25H7V11.6667ZM13.6783 11.6667H17.8183V13.4625C19.565 10.23 27 9.99084 27 16.5575V25H22.8433V18.0008C22.8433 13.7908 17.8192 14.1092 17.8192 18.0008V25H13.6783V11.6667Z" fill="white"/>
</g>
</svg>
