<?xml version="1.0" encoding="UTF-8"?>
<svg width="128px" height="128px" viewBox="0 0 128 128" version="1.1" xmlns="http://www.w3.org/2000/svg" xmlns:xlink="http://www.w3.org/1999/xlink">
    <!-- Generator: Sketch 45.2 (43514) - http://www.bohemiancoding.com/sketch -->
    <title>agw-services-radar</title>
    <desc>Created with Sketch.</desc>
    <defs></defs>
    <g id="Page-1" stroke="none" stroke-width="1" fill="none" fill-rule="evenodd">
        <g id="agw-services-radar" fill-rule="nonzero" fill="#000000">
            <path d="M107.461333,24.64 L107.093333,24.64 L105.386667,22.9333333 C100.64,18.0266667 95.04,14.08 88.9066667,11.0933333 L86.6133333,9.70666667 L89.0666667,5.22666667 L91.1946667,6.29333333 C97.9146667,9.54666667 103.994667,13.8666667 109.221333,19.2 L109.221333,19.2 L110.928,20.9066667 L110.874667,21.28 L107.461333,24.64 Z M20.96,23.52 L20.5866667,23.52 L17.28,20.1066667 L17.28,19.68 L20.6933333,16.3733333 L21.0666667,16.3733333 L24.4266667,19.84 L24.4266667,20.2133333 L20.96,23.52 Z M28.64,16.8 L28.2666667,16.6933333 L25.5466667,12.7466667 L25.6,12.3733333 L27.6266667,11.04 C33.12,7.30666667 39.0933333,4.42666667 45.44,2.56 L45.4933333,2.50666667 L50.1333333,1.33333333 L50.1866667,1.38666667 C53.0133333,0.8 55.8933333,0.373333333 58.7733333,0.16 L61.1733333,0 L61.44,0.266666667 L61.8133333,5.01333333 L61.5466667,5.33333333 L59.2,5.49333333 C55.84,5.70666667 52.4266667,6.29333333 49.12,7.09333333 C42.4533333,8.8 36.2666667,11.5733333 30.6133333,15.4133333 L28.64,16.8 Z M77.0462655,54.7478356 C78.9055748,57.3617633 80,60.5556651 80,64 C80,72.8213333 72.8213333,80 64,80 C55.1786667,80 48,72.8213333 48,64 C48,55.1786667 55.1786667,48 64,48 C67.4560409,48 70.6599436,49.1018769 73.2787956,50.9727182 L80.4512349,43.8789639 C75.9806258,39.6581156 70.163435,37.3333333 64,37.3333333 C63.8933333,37.3333333 63.7866667,37.3333333 63.68,37.3333333 L61.2266667,37.3866667 L60.96,37.12 L60.9066667,32.32 L61.1733333,32.0533333 L63.5733333,32 C63.68,32 63.84,32 64,32 C71.6131084,32 78.7735975,34.8665894 84.260577,40.1114121 L91.8264421,32.628548 C87.20564,28.1032366 81.4548298,24.7421031 75.2533333,22.9333333 L72.96,22.2933333 L72.8,21.92 L74.4586667,17.1733333 L76.752,17.8133333 C83.8163157,19.8910733 90.3241427,23.6888691 95.6349511,28.8618202 L107.336182,17.2889568 L111.086582,21.0809568 L77.0462655,54.7478356 Z M81.7013333,8.16 L77.0666667,6.88 L76.9066667,6.50666667 L78.5066667,1.70666667 L83.1466667,3.04 L83.3066667,3.36 L82.0266667,8 L81.7013333,8.16 Z M64,128 C28.7093333,128 0,99.2906667 0,64 C0,53.104 2.81066667,42.3146667 8.128,32.8106667 L9.42933333,30.48 L14.0853333,33.0826667 L12.784,35.4133333 C7.90933333,44.1226667 5.33333333,54.0106667 5.33333333,64 C5.33333333,96.3466667 31.6533333,122.666667 64,122.666667 C96.3466667,122.666667 122.666667,96.3466667 122.666667,64 C122.666667,54.048 120.101333,44.1866667 115.232,35.4826667 L113.930667,33.1573333 L118.586667,30.5546667 L119.888,32.8853333 C125.2,42.3786667 128,53.1413333 128,64 C128,99.2906667 99.2906667,128 64,128 Z M52.16,40.32 L51.7866667,40.2133333 L49.8666667,35.7866667 L49.9733333,35.4666667 L54.4,33.4933333 L54.72,33.6533333 L56.6933333,38.0266667 L56.5333333,38.4 L52.16,40.32 Z M34.0266667,34.7733333 L33.6533333,34.7733333 L30.24,31.36 L30.24,30.9866667 L31.9466667,29.28 C32.1066667,29.12 32.32,28.9066667 32.48,28.7466667 L32.48,28.64 L36.1066667,25.4933333 L36.2133333,25.4933333 C38.56,23.68 41.0666667,22.1333333 43.68,20.8 L45.8666667,19.7333333 L46.1866667,19.84 L48.3733333,24.1066667 L48.2133333,24.48 L46.08,25.5466667 C43.0933333,27.0933333 40.32,28.96 37.8133333,31.0933333 C37.0133333,31.7866667 36.32,32.4266667 35.7333333,33.0666667 L34.0266667,34.7733333 Z M67.84,21.44 L62.7733333,21.0133333 L62.9333333,16.2133333 L63.2,15.9466667 L68.2666667,16.3733333 L68.1066667,21.1733333 L67.84,21.44 Z M64,53.3333333 C58.1173333,53.3333333 53.3333333,58.1173333 53.3333333,64 C53.3333333,69.8826667 58.1173333,74.6666667 64,74.6666667 C69.8826667,74.6666667 74.6666667,69.8826667 74.6666667,64 C74.6666667,58.1173333 69.8826667,53.3333333 64,53.3333333 Z" id="Combined-Shape"></path>
        </g>
    </g>
</svg>