<?xml version="1.0" encoding="UTF-8"?>
<svg width="101px" height="100px" viewBox="0 0 101 100" version="1.1" xmlns="http://www.w3.org/2000/svg" xmlns:xlink="http://www.w3.org/1999/xlink">
    <!-- Generator: Sketch 44.1 (41455) - http://www.bohemiancoding.com/sketch -->
    <title>radar-o</title>
    <desc>Created with Sketch.</desc>
    <defs></defs>
    <g id="Page-1" stroke="none" stroke-width="1" fill="none" fill-rule="evenodd">
        <path d="M84.24107,19.25 L83.95357,19.25 L82.6202367,17.9166667 C78.9119033,14.0833333 74.5369033,11 69.7452367,8.66666667 L67.95357,7.58333333 L69.8702367,4.08333333 L71.5327367,4.91666667 C76.7827367,7.45833333 81.5327367,10.8333333 85.61607,15 L85.61607,15 L86.9494033,16.3333333 L86.9077367,16.625 L84.24107,19.25 Z M16.6619033,18.375 L16.3702367,18.375 L13.7869033,15.7083333 L13.7869033,15.375 L16.45357,12.7916667 L16.7452367,12.7916667 L19.3702367,15.5 L19.3702367,15.7916667 L16.6619033,18.375 Z M22.6619033,13.125 L22.3702367,13.0416667 L20.2452367,9.95833333 L20.2869033,9.66666667 L21.8702367,8.625 C26.1619033,5.70833333 30.82857,3.45833333 35.7869033,2 L35.82857,1.95833333 L39.45357,1.04166667 L39.4952367,1.08333333 C41.70357,0.625 43.95357,0.291666667 46.20357,0.125 L48.07857,0 L48.2869033,0.208333333 L48.57857,3.91666667 L48.3702367,4.16666667 L46.5369033,4.29166667 C43.9119033,4.45833333 41.2452367,4.91666667 38.6619033,5.54166667 C33.45357,6.875 28.6202367,9.04166667 24.20357,12.0416667 L22.6619033,13.125 Z M60.4792983,42.7717465 C61.9318837,44.8138775 62.7869033,47.3091133 62.7869033,50 C62.7869033,56.8916667 57.17857,62.5 50.2869033,62.5 C43.3952367,62.5 37.7869033,56.8916667 37.7869033,50 C37.7869033,43.1083333 43.3952367,37.5 50.2869033,37.5 C52.9869353,37.5 55.4899843,38.3608413 57.5359624,39.8224361 L63.1394306,34.2804406 C59.6467672,30.9829028 55.1020869,29.1666667 50.2869033,29.1666667 C50.20357,29.1666667 50.1202367,29.1666667 50.0369033,29.1666667 L48.1202367,29.2083333 L47.9119033,29 L47.8702367,25.25 L48.07857,25.0416667 L49.95357,25 C50.0369033,25 50.1619033,25 50.2869033,25 C56.2346443,25 61.8287764,27.239523 66.1154791,31.3370407 L72.0263112,25.4910531 C68.4163096,21.9556536 63.9234891,19.3297681 59.07857,17.9166667 L57.2869033,17.4166667 L57.1619033,17.125 L58.4577367,13.4166667 L60.2494033,13.9166667 C65.7684,15.539901 70.8526399,18.506929 75.0017089,22.548297 L84.1432958,13.5069975 L87.0732958,16.4694975 L60.4792983,42.7717465 Z M64.11607,6.375 L60.4952367,5.375 L60.3702367,5.08333333 L61.6202367,1.33333333 L65.2452367,2.375 L65.3702367,2.625 L64.3702367,6.25 L64.11607,6.375 Z M50.2869033,100 C22.71607,100 0.286903334,77.5708333 0.286903334,50 C0.286903334,41.4875 2.48273667,33.0583333 6.63690333,25.6333333 L7.65357,23.8125 L11.29107,25.8458333 L10.2744033,27.6666667 C6.46607,34.4708333 4.45357,42.1958333 4.45357,50 C4.45357,75.2708333 25.01607,95.8333333 50.2869033,95.8333333 C75.5577367,95.8333333 96.1202367,75.2708333 96.1202367,50 C96.1202367,42.225 94.11607,34.5208333 90.3119033,27.7208333 L89.2952367,25.9041667 L92.9327367,23.8708333 L93.9494033,25.6916667 C98.0994033,33.1083333 100.286903,41.5166667 100.286903,50 C100.286903,77.5708333 77.8577367,100 50.2869033,100 Z M41.0369033,31.5 L40.7452367,31.4166667 L39.2452367,27.9583333 L39.32857,27.7083333 L42.7869033,26.1666667 L43.0369033,26.2916667 L44.57857,29.7083333 L44.45357,30 L41.0369033,31.5 Z M26.8702367,27.1666667 L26.57857,27.1666667 L23.9119033,24.5 L23.9119033,24.2083333 L25.2452367,22.875 C25.3702367,22.75 25.5369033,22.5833333 25.6619033,22.4583333 L25.6619033,22.375 L28.4952367,19.9166667 L28.57857,19.9166667 C30.4119033,18.5 32.3702367,17.2916667 34.4119033,16.25 L36.1202367,15.4166667 L36.3702367,15.5 L38.07857,18.8333333 L37.95357,19.125 L36.2869033,19.9583333 C33.95357,21.1666667 31.7869033,22.625 29.82857,24.2916667 C29.20357,24.8333333 28.6619033,25.3333333 28.20357,25.8333333 L26.8702367,27.1666667 Z M53.2869033,16.75 L49.32857,16.4166667 L49.45357,12.6666667 L49.6619033,12.4583333 L53.6202367,12.7916667 L53.4952367,16.5416667 L53.2869033,16.75 Z M50.2869033,41.6666667 C45.69107,41.6666667 41.95357,45.4041667 41.95357,50 C41.95357,54.5958333 45.69107,58.3333333 50.2869033,58.3333333 C54.8827367,58.3333333 58.6202367,54.5958333 58.6202367,50 C58.6202367,45.4041667 54.8827367,41.6666667 50.2869033,41.6666667 Z" id="radar-o" fill="#E63946" fill-rule="nonzero"></path>
    </g>
</svg>