<?xml version="1.0" encoding="UTF-8"?>
<svg width="128px" height="128px" viewBox="0 0 128 128" version="1.1" xmlns="http://www.w3.org/2000/svg" xmlns:xlink="http://www.w3.org/1999/xlink">
    <!-- Generator: Sketch 45.2 (43514) - http://www.bohemiancoding.com/sketch -->
    <title>agw-twitter</title>
    <desc>Created with Sketch.</desc>
    <defs></defs>
    <g id="Page-1" stroke="none" stroke-width="1" fill="none" fill-rule="evenodd">
        <g id="agw-twitter" fill="#000000">
            <path d="M93.4589712,52.3873758 C93.4857541,52.9810636 93.4946818,53.5747515 93.4946818,54.1729032 C93.4946818,72.4522406 79.5898867,93.5214647 54.155048,93.5214647 C46.3433653,93.5214647 39.0807323,91.2404534 32.960837,87.3078291 C34.0410811,87.4372799 35.1436443,87.4997733 36.259599,87.4997733 C42.7365998,87.4997733 48.7002616,85.2946469 53.4319093,81.576286 C47.383435,81.4736181 42.2723627,77.4740366 40.5136181,71.9790759 C41.3572799,72.1442371 42.2277245,72.2335135 43.1204882,72.2335135 C44.3748213,72.2335135 45.5934438,72.0594246 46.7629643,71.7424935 C40.4332694,70.4703051 35.6659111,64.8816042 35.6659111,58.1858762 L35.6659111,58.0117873 C37.5317873,59.0384656 39.6654926,59.667864 41.9331125,59.7348213 C38.2192153,57.2529381 35.7775065,53.0257018 35.7775065,48.2270968 C35.7775065,45.6916478 36.456007,43.3213601 37.6523104,41.2724673 C44.4685615,49.6421273 54.6639233,55.1415519 66.1537925,55.7263121 C65.9172101,54.7130253 65.796687,53.6506364 65.796687,52.5703923 C65.796687,44.9327986 71.9835397,38.7414821 79.6211334,38.7414821 C83.5983958,38.7414821 87.1917698,40.4243418 89.7093636,43.1115606 C92.8652833,42.4910898 95.8203313,41.3394246 98.4986225,39.754769 C97.4585527,42.9821099 95.2712816,45.6916478 92.4144377,47.4012903 C95.213252,47.0798954 97.8781517,46.3299738 100.355571,45.2274106 C98.4986225,48.0039058 96.1595815,50.436687 93.4589712,52.3873758 M63.9977681,0 C28.653252,0 0,28.6577158 0,64.0022319 C0,99.346748 28.653252,128.004464 63.9977681,128.004464 C96.2310026,128.004464 122.884464,104.1766 127.339355,73.1843069 C127.767881,71.0729207 127.964289,68.8945772 127.933043,66.6448126 C127.973217,65.7699041 128,64.8905318 128,64.0022319 C128,28.6577158 99.3512119,0 63.9977681,0" id="Fill-1"></path>
        </g>
    </g>
</svg>