<?xml version="1.0" encoding="UTF-8"?>
<svg width="50px" height="50px" viewBox="0 0 50 50" version="1.1" xmlns="http://www.w3.org/2000/svg" xmlns:xlink="http://www.w3.org/1999/xlink">
    <!-- Generator: Sketch 43.2 (39069) - http://www.bohemiancoding.com/sketch -->
    <title>twiiter</title>
    <desc>Created with Sketch.</desc>
    <defs></defs>
    <g id="Page-1" stroke="none" stroke-width="1" fill="none" fill-rule="evenodd">
        <path d="M25,0 C31.9010762,0 37.7929443,2.44138184 42.6757812,7.32421875 C47.5586182,12.2070557 50,18.0989238 50,25 C50,31.9010762 47.5586182,37.7929443 42.6757812,42.6757812 C37.7929443,47.5586182 31.9010762,50 25,50 C18.0989238,50 12.2070557,47.5586182 7.32421875,42.6757812 C2.44138184,37.7929443 0,31.9010762 0,25 C0,18.0989238 2.44138184,12.2070557 7.32421875,7.32421875 C12.2070557,2.44138184 18.0989238,0 25,0 Z M37.4023437,19.4335937 C38.6393291,18.5221309 39.6809854,17.4479229 40.5273437,16.2109375 C39.3554629,16.7317734 38.1835996,17.057291 37.0117188,17.1875 C38.3138086,16.4062461 39.1927061,15.2669346 39.6484375,13.7695312 C38.4765566,14.4856807 37.1744863,14.973957 35.7421875,15.234375 C34.5703066,13.9322852 33.0729258,13.28125 31.25,13.28125 C29.5572832,13.28125 28.10873,13.8834575 26.9042969,15.0878906 C25.6998638,16.2923237 25.0976562,17.740877 25.0976562,19.4335937 C25.0976562,19.9544297 25.1627598,20.4427061 25.2929687,20.8984375 C20.0846094,20.6380195 15.8528809,18.4896035 12.5976562,14.453125 C12.0117158,15.4296924 11.71875,16.4713486 11.71875,17.578125 C11.71875,19.7265732 12.662751,21.4192646 14.5507812,22.65625 C13.5091094,22.65625 12.5651084,22.3958359 11.71875,21.875 L11.71875,21.9726562 C11.71875,23.4700596 12.1907505,24.7721299 13.1347656,25.8789062 C14.0787808,26.9856826 15.2669199,27.7018213 16.6992188,28.0273437 C16.1132783,28.1575527 15.5598984,28.2226562 15.0390625,28.2226562 C14.6484355,28.2226562 14.2578145,28.1901045 13.8671875,28.125 C14.2578145,29.3619854 14.9739531,30.3710898 16.015625,31.1523437 C17.0572969,31.9335977 18.2617119,32.3567705 19.6289063,32.421875 C17.350249,34.1796963 14.8112119,35.0585937 12.0117188,35.0585937 C11.4908828,35.0585937 11.0026064,35.026042 10.546875,34.9609375 C13.4114727,36.7838633 16.5364414,37.6953125 19.921875,37.6953125 C25.2604434,37.6953125 29.5247236,35.8886899 32.7148438,32.2753906 C35.9049639,28.6620913 37.5,24.6419492 37.5,20.2148437 C37.5,19.9544258 37.4674482,19.6940117 37.4023437,19.4335937 Z" id="twiiter" fill="#000000"></path>
    </g>
</svg>