<?xml version="1.0" encoding="utf-8"?>
<!-- Generator: Adobe Illustrator 24.0.1, SVG Export Plug-In . SVG Version: 6.00 Build 0)  -->
<svg version="1.1" id="Layer_1" xmlns="http://www.w3.org/2000/svg" xmlns:xlink="http://www.w3.org/1999/xlink" x="0px" y="0px"
	 viewBox="0 0 861 120.6" style="enable-background:new 0 0 861 120.6;" xml:space="preserve">
<style type="text/css">
	.st0{fill-rule:evenodd;clip-rule:evenodd;fill:#CD0000;}
	.st1{fill-rule:evenodd;clip-rule:evenodd;fill:#2B3842;}
	.st2{fill:#323339;}
	.st3{fill:#2886AD;}
	.st4{fill:#808080;}
	.st5{font-family:'MyriadPro-Regular';}
	.st6{font-size:72.6769px;}
</style>
<g>
	<g>
		<path class="st0" d="M29.8,75.5l4.8-8.4c-1.6-0.3-3.1-0.4-4.8-0.4c-14.7,0-26.6,11.9-26.6,26.6c0,14.7,11.9,26.6,26.6,26.6
			c14.7,0,26.6-11.9,26.6-26.6c0-6.7-2.4-12.7-6.5-17.4l-4.8,8.3c1.6,2.7,2.5,5.7,2.5,9.1c0,9.9-8,17.9-17.9,17.9
			c-9.9,0-17.9-8-17.9-17.9C12,83.5,20,75.5,29.8,75.5z"/>
		<path class="st0" d="M77.6,36.3c2-2.4,3.3-5.4,3.3-8.8c0-7.4-6-13.4-13.4-13.4c-7.4,0-13.4,6-13.4,13.4c0,3.4,1.2,6.4,3.3,8.8
			c2,2.2,4.6,3.8,7.7,4.4c0.8,0.1,1.6,0.2,2.4,0.2c0.8,0,1.7-0.1,2.4-0.2l2.3,4l4.5,7.8l11.6,20.3c-6,4.9-9.7,12.3-9.7,20.6
			c0,14.7,11.9,26.6,26.6,26.6c14.7,0,26.6-11.9,26.6-26.6c0-14.7-11.9-26.6-26.6-26.6c-3.2,0-6.3,0.6-9.2,1.6L84.4,48.1l-4.5-7.8
			L77.6,36.3L77.6,36.3z M100.4,76.1c1.5-0.4,3.1-0.6,4.7-0.6c9.9,0,17.9,8,17.9,17.9c0,9.9-8,17.9-17.9,17.9
			c-9.9,0-17.9-8-17.9-17.9c0-5,2.1-9.6,5.4-12.8C94.9,78.5,97.5,77,100.4,76.1z"/>
		<path class="st0" d="M32.3,80.2c-0.8-0.1-1.6-0.2-2.4-0.2c-7.4,0-13.4,6-13.4,13.4c0,7.4,6,13.4,13.4,13.4c7.4,0,13.4-6,13.4-13.4
			c0-3.4-1.2-6.4-3.3-8.8l2.3-4l4.5-7.8l11.6-20.3c1.4,0.5,2.9,0.9,4.4,1.2c1.6,0.3,3.1,0.4,4.8,0.4s3.2-0.1,4.8-0.4l-4.8-8.4l0,0
			c-1.6,0-3.2-0.2-4.7-0.6c-2.9-0.8-5.6-2.3-7.7-4.4c-1.1-1.1-2.1-2.4-3-3.8c-1.6-2.7-2.5-5.7-2.5-9.1c0-9.9,8-17.9,17.9-17.9
			c9.9,0,17.9,8,17.9,17.9c0,3.3-0.9,6.4-2.5,9.1l4.8,8.3c4-4.7,6.5-10.8,6.5-17.4c0-14.7-11.9-26.6-26.6-26.6
			c-14.7,0-26.6,11.9-26.6,26.6c0,6.7,2.4,12.7,6.5,17.4c1,1.2,2.1,2.2,3.3,3.2L39,68.4l-4.5,7.8L32.3,80.2z"/>
		<circle class="st0" cx="105.2" cy="93.4" r="13.4"/>
	</g>
	<g>
		<path class="st1" d="M183.6,70.8l3.2,8.2h12.1l-18.8-44.6h-11.6L149.2,79h11.6l3.2-8.2H183.6L183.6,70.8z M180.3,62.2h-12.9
			l6.5-16.5L180.3,62.2z"/>
		<path class="st1" d="M208.5,29c-1.1,0-2.1,0.3-3,0.8c-0.9,0.5-1.5,1.2-2,2c-0.5,0.9-0.7,1.9-0.8,3c0,1.2,0.3,2.2,0.8,3
			c0.5,0.9,1.2,1.6,2,2.1c0.9,0.5,1.9,0.7,3,0.8c1.1,0,2.1-0.3,3-0.8c0.9-0.5,1.5-1.2,2-2.1c0.5-0.9,0.7-1.9,0.8-3
			c0-1.1-0.3-2.1-0.8-3c-0.5-0.9-1.2-1.5-2-2C210.6,29.3,209.6,29,208.5,29L208.5,29z M213.9,79V44.7h-10.9V79H213.9z"/>
		<path class="st1" d="M233.7,44.7h-11V79h11V61.4c0.2-1.6,0.8-3,1.7-4.2c1-1.1,2.2-2,3.8-2.5c1.6-0.6,3.5-0.7,5.6-0.6v-9.9
			c-2.5,0-4.6,0.6-6.5,1.7c-1.9,1.1-3.4,2.6-4.6,4.6V44.7z"/>
		<path class="st1" d="M279.6,56.3v11.5c-0.9,0.4-1.8,0.8-2.7,1.2c-0.9,0.3-1.8,0.6-2.7,0.7c-0.9,0.2-1.7,0.3-2.5,0.3
			c-1.9,0-3.6-0.3-5.2-1c-1.6-0.7-3-1.6-4.1-2.8c-1.2-1.2-2.1-2.6-2.8-4.2c-0.7-1.6-1-3.4-1-5.3c0-1.9,0.3-3.6,1-5.2
			c0.7-1.6,1.6-3,2.7-4.2c1.2-1.2,2.5-2.1,4.1-2.8c1.6-0.7,3.3-1,5.1-1c1.4,0,2.8,0.2,4.2,0.6c1.4,0.4,2.8,0.9,4.1,1.7
			c1.3,0.7,2.5,1.6,3.6,2.6l6.4-7.7c-1.5-1.4-3.3-2.5-5.3-3.5c-2-1-4.1-1.7-6.3-2.3c-2.2-0.5-4.4-0.8-6.6-0.8c-2.8,0-5.5,0.4-8,1.1
			c-2.5,0.7-4.7,1.8-6.8,3.1c-2,1.4-3.8,3-5.3,4.8c-1.5,1.9-2.6,4-3.4,6.2c-0.8,2.3-1.2,4.7-1.2,7.3c0,2.6,0.4,5.1,1.2,7.4
			c0.8,2.3,1.9,4.4,3.3,6.3c1.4,1.9,3.1,3.5,5.1,4.9c2,1.4,4.2,2.4,6.6,3.2c2.4,0.7,5,1.1,7.7,1.1c1.6,0,3.2-0.1,4.9-0.4
			c1.7-0.3,3.3-0.7,5-1.2c1.6-0.5,3.2-1.1,4.7-1.8c1.5-0.7,2.8-1.5,4-2.3V56.3H279.6z"/>
		<path class="st1" d="M312.6,44.2c-1.9,0-3.7,0.1-5.5,0.5c-1.8,0.3-3.5,0.7-5.2,1.3c-1.7,0.6-3.5,1.3-5.2,2.1l3.1,7.3
			c1.2-0.6,2.4-1.1,3.6-1.6c1.2-0.4,2.4-0.8,3.5-1c1.1-0.2,2.2-0.3,3.1-0.3c2.2,0,3.9,0.5,5,1.4c1.1,0.9,1.7,2.3,1.7,4v0.5h-9
			c-2.8,0-5.3,0.5-7.2,1.3c-2,0.8-3.4,2-4.5,3.5c-1,1.5-1.5,3.4-1.5,5.6c0,2.1,0.5,4,1.4,5.6c0.9,1.6,2.3,2.9,4,3.8
			c1.8,0.9,3.9,1.4,6.3,1.4c2.3,0,4.4-0.4,6.2-1.1c1.8-0.7,3.2-1.9,4.3-3.3V79h10.8V56.6c0-2.6-0.6-4.8-1.8-6.7
			c-1.2-1.8-2.9-3.3-5.1-4.2C318.4,44.7,315.8,44.2,312.6,44.2L312.6,44.2z M309.7,72c-1.5,0-2.7-0.4-3.6-1.1
			c-0.8-0.7-1.3-1.7-1.3-3c0-1.3,0.4-2.2,1.2-2.8c0.8-0.6,2.1-0.9,3.7-0.9h6.9v3.1c-0.2,0.9-0.7,1.8-1.4,2.5
			c-0.7,0.7-1.5,1.3-2.5,1.7C311.9,71.8,310.8,72,309.7,72z"/>
		<path class="st1" d="M355.4,69.5c-0.8,0.4-1.6,0.6-2.3,0.8c-0.7,0.2-1.4,0.3-1.9,0.3c-1,0-1.8-0.2-2.4-0.8
			c-0.6-0.6-0.8-1.6-0.8-2.9V53.5h9v-7.3h-9v-9.5H337v9.5h-4.8v7.2h4.8v15.1c0,1.8,0.3,3.4,0.8,4.7c0.6,1.4,1.3,2.5,2.4,3.4
			c1,0.9,2.2,1.6,3.6,2.1c1.4,0.5,2.9,0.7,4.6,0.7c1.1,0,2.2-0.1,3.3-0.3c1.1-0.2,2.1-0.5,3.1-0.8c1-0.4,1.9-0.8,2.7-1.3L355.4,69.5
			z"/>
		<path class="st1" d="M377.9,44.3c-2.7,0-5.1,0.4-7.3,1.3c-2.2,0.8-4.1,2-5.7,3.6c-1.6,1.5-2.8,3.4-3.6,5.6
			c-0.9,2.2-1.3,4.6-1.3,7.2c0,2.6,0.4,5,1.3,7.1c0.8,2.1,2,4,3.6,5.5c1.6,1.5,3.5,2.7,5.7,3.5c2.2,0.8,4.8,1.3,7.6,1.3
			c3.2,0,6-0.5,8.5-1.6c2.5-1.1,4.7-2.5,6.4-4.5l-5.8-5.7c-1.2,1.1-2.4,2-3.8,2.6c-1.4,0.6-2.9,0.9-4.4,0.9c-2,0-3.8-0.6-5.2-1.7
			c-1.4-1.1-2.4-2.7-2.9-4.7h24.1c0.2-3.1,0-6-0.7-8.5c-0.6-2.5-1.7-4.7-3.2-6.5c-1.5-1.8-3.3-3.2-5.6-4.1
			C383.6,44.8,380.9,44.3,377.9,44.3L377.9,44.3z M370.9,58.9c0.2-1.4,0.7-2.6,1.3-3.6c0.6-1,1.4-1.8,2.4-2.4c1-0.6,2.1-0.9,3.4-0.9
			c1.3,0,2.5,0.3,3.5,0.9c1,0.6,1.8,1.4,2.3,2.4c0.6,1,0.8,2.3,0.8,3.7H370.9z"/>
		<polygon class="st1" points="443.2,79 455.8,44.7 445,44.7 438.1,68.4 431,44.7 420.5,44.7 413.6,68.4 406.6,44.7 395.4,44.7 
			407.9,79 418.8,79 425.6,57.2 432.3,79 		"/>
		<path class="st1" d="M474,44.2c-1.9,0-3.7,0.1-5.5,0.5c-1.8,0.3-3.5,0.7-5.2,1.3c-1.7,0.6-3.5,1.3-5.2,2.1l3.1,7.3
			c1.2-0.6,2.4-1.1,3.6-1.6c1.2-0.4,2.4-0.8,3.5-1c1.1-0.2,2.2-0.3,3.1-0.3c2.2,0,3.9,0.5,5,1.4c1.1,0.9,1.7,2.3,1.7,4v0.5h-9
			c-2.8,0-5.3,0.5-7.2,1.3c-2,0.8-3.4,2-4.5,3.5c-1,1.5-1.5,3.4-1.5,5.6c0,2.1,0.5,4,1.4,5.6c0.9,1.6,2.3,2.9,4,3.8
			c1.8,0.9,3.9,1.4,6.3,1.4c2.3,0,4.4-0.4,6.2-1.1c1.8-0.7,3.2-1.9,4.3-3.3V79H489V56.6c0-2.6-0.6-4.8-1.8-6.7
			c-1.2-1.8-2.9-3.3-5.1-4.2C479.9,44.7,477.2,44.2,474,44.2L474,44.2z M471.1,72c-1.5,0-2.7-0.4-3.6-1.1c-0.8-0.7-1.3-1.7-1.3-3
			c0-1.3,0.4-2.2,1.2-2.8c0.8-0.6,2.1-0.9,3.7-0.9h6.9v3.1c-0.2,0.9-0.7,1.8-1.4,2.5c-0.7,0.7-1.5,1.3-2.5,1.7
			C473.3,71.8,472.3,72,471.1,72z"/>
		<path class="st1" d="M529.3,44.7h-10.9l-7.4,22.8l-8.4-22.8h-11.3l14.3,33.5l-0.8,1.7c-0.4,0.9-1,1.6-1.7,2.1
			c-0.7,0.5-1.5,0.7-2.5,0.7c-0.8,0-1.5-0.1-2.3-0.4c-0.7-0.3-1.5-0.8-2.3-1.4l-4.6,7.5c1.5,1.2,3.1,2.1,4.7,2.6
			c1.6,0.6,3.4,0.9,5.3,0.9c3.2,0,5.9-0.8,8.1-2.3c2.2-1.5,3.9-3.9,5.2-7L529.3,44.7z"/>
	</g>
</g>
<g>
	<path class="st2" d="M721.4,82.7V57.5c0-5.1-1.2-8.7-3.7-10.8c-2.4-2.1-5.6-3.2-9.4-3.2c-1.9,0-3.6,0.3-5.2,0.8
		c-1.6,0.6-3,1.4-4.3,2.6c-1.2,1.2-2.2,2.7-2.9,4.6c-0.7,1.9-1,4.2-1,6.8v24.4h-5.7V58.4c0-2.7-0.3-4.9-1-6.8
		c-0.7-1.9-1.6-3.4-2.8-4.6c-1.2-1.2-2.6-2.1-4.2-2.6c-1.6-0.6-3.4-0.8-5.2-0.8c-1.9,0-3.7,0.3-5.3,0.8c-1.6,0.5-3,1.4-4.2,2.5
		c-1.2,1.2-2.1,2.6-2.7,4.4c-0.6,1.8-1,4-1,6.5v25H657V55c0-2.7,0.5-5.1,1.4-7.2c0.9-2.1,2.2-3.8,3.9-5.2c1.7-1.4,3.6-2.4,5.8-3.1
		c2.2-0.7,4.7-1,7.3-1c3.7,0,7.1,0.8,10,2.3c3,1.5,5.3,3.8,7,7c1.7-3,4-5.3,6.9-6.9c2.9-1.6,6.2-2.4,9.8-2.4c2.6,0,4.9,0.3,7.1,1
		c2.2,0.7,4.1,1.7,5.7,3c1.6,1.4,2.9,3.1,3.8,5.1c0.9,2,1.4,4.4,1.4,7.1v28H721.4z"/>
	<path class="st2" d="M738.9,44.9v25.3c0,3.3,0.8,5.5,2.5,6.9c1.7,1.3,3.9,2,6.6,2c1.7,0,3.4-0.3,4.9-0.9c1.5-0.6,2.7-1.1,3.5-1.7
		l2.5,3.7c-0.3,0.3-0.9,0.6-1.6,1c-0.7,0.4-1.6,0.8-2.6,1.2s-2.2,0.7-3.6,1c-1.4,0.3-2.9,0.4-4.5,0.4c-2.3,0-4.3-0.3-6-1
		c-1.7-0.6-3.1-1.5-4.2-2.7s-1.9-2.5-2.5-4.1c-0.6-1.6-0.8-3.3-0.8-5.1V31c0-0.9,0.2-1.6,0.7-2.1c0.5-0.6,1.3-0.8,2.4-0.8
		c0.5,0,1,0.1,1.5,0.2c0.5,0.1,0.9,0.3,1.1,0.4v11.1h15.3c1.2,0,2.1,0.3,2.5,0.8c0.5,0.6,0.7,1.2,0.7,2c0,0.5-0.1,0.9-0.2,1.3
		c-0.1,0.4-0.2,0.8-0.3,1H738.9z"/>
	<path class="st2" d="M793.7,42.9c0,0.6-0.2,1.1-0.5,1.6c-0.3,0.5-0.6,0.8-0.9,1.1c-1-0.5-2.2-0.9-3.7-1.3c-1.5-0.4-3.3-0.6-5.3-0.6
		c-2.4,0-4.4,0.3-6,0.9c-1.6,0.6-2.9,1.4-3.9,2.6c-1,1.1-1.7,2.5-2.1,4.2c-0.4,1.7-0.6,3.6-0.6,5.7v25.7H765V54.3
		c0-5.1,1.5-9,4.5-11.7c3-2.8,7.4-4.1,13.2-4.1c3.1,0,5.7,0.3,7.8,1C792.7,40.2,793.7,41.3,793.7,42.9z"/>
	<path class="st2" d="M799.7,42.7c0-0.9,0.2-1.6,0.7-2.1c0.5-0.6,1.3-0.8,2.4-0.8c0.5,0,1,0.1,1.5,0.2c0.5,0.1,0.9,0.3,1.1,0.4v42.4
		h-5.7V42.7z"/>
	<path class="st2" d="M811.5,63.3c0-1.4,0-2.6,0.1-3.7c0.1-1.1,0.2-2,0.3-2.8c0.5-2.8,1.4-5.4,2.7-7.7c1.3-2.3,2.9-4.2,4.8-5.7
		c1.9-1.6,4.1-2.8,6.6-3.6c2.5-0.8,5.2-1.3,8.1-1.3c3.4,0,6.5,0.6,9.3,1.8c2.8,1.2,5.3,2.8,7.3,4.9c2,2.1,3.6,4.5,4.7,7.2
		c1.1,2.8,1.7,5.7,1.7,8.8c0,3.2-0.6,6.2-1.7,8.9c-1.1,2.8-2.7,5.2-4.7,7.2c-2,2.1-4.5,3.7-7.3,4.8c-2.8,1.2-6,1.7-9.3,1.7
		c-3.7,0-7.1-0.8-10-2.3c-3-1.5-5.3-3.6-6.9-6.1v24.6h-5.7V63.3z M851,61.2c0-2.4-0.4-4.7-1.2-6.9c-0.8-2.2-1.9-4.1-3.4-5.7
		c-1.5-1.6-3.3-2.9-5.3-3.8c-2.1-0.9-4.4-1.4-7-1.4c-2.6,0-4.9,0.5-6.9,1.4c-2.1,0.9-3.8,2.1-5.3,3.7c-1.5,1.6-2.6,3.4-3.4,5.6
		c-0.8,2.2-1.2,4.5-1.2,7.1c0,2.4,0.4,4.7,1.2,6.9c0.8,2.2,2,4.1,3.4,5.7c1.5,1.6,3.3,2.9,5.3,3.8c2.1,1,4.3,1.4,6.8,1.4
		c2.6,0,4.9-0.4,7-1.4c2.1-0.9,3.8-2.2,5.3-3.8c1.5-1.6,2.6-3.5,3.4-5.7C850.6,66.1,851,63.8,851,61.2z"/>
	<g>
		<path class="st3" d="M802.4,33c3.8-7.4,11-17.1,19.4-24c0,0-25.5,17-21.3,16c4.3-1-26.2-4.9-26.2-4.9
			C784.9,22.6,795.7,28.1,802.4,33z"/>
	</g>
</g>
<text transform="matrix(1 0 0 1 570.7441 81.8311)" class="st4 st5 st6">+</text>
</svg>
