<?xml version="1.0" encoding="UTF-8"?>
<svg width="165px" height="65px" viewBox="0 0 165 65" version="1.1" xmlns="http://www.w3.org/2000/svg" xmlns:xlink="http://www.w3.org/1999/xlink">
    <!-- Generator: Sketch 45.2 (43514) - http://www.bohemiancoding.com/sketch -->
    <title>agw-logo-gris-american</title>
    <desc>Created with Sketch.</desc>
    <defs>
        <linearGradient x1="49.9526846%" y1="3.77818385%" x2="49.9526846%" y2="96.7349822%" id="linearGradient-1">
            <stop stop-color="#C5C8CE" offset="0%"></stop>
            <stop stop-color="#777B7E" offset="100%"></stop>
        </linearGradient>
        <linearGradient x1="0.120977011%" y1="49.9688811%" x2="99.9856322%" y2="49.9688811%" id="linearGradient-2">
            <stop stop-color="#C3C4CB" offset="0%"></stop>
            <stop stop-color="#80818A" offset="100%"></stop>
        </linearGradient>
        <linearGradient x1="132.664835%" y1="-47.4321104%" x2="11.2092063%" y2="82.497318%" id="linearGradient-3">
            <stop stop-color="#C1C1C1" offset="0%"></stop>
            <stop stop-color="#717171" offset="100%"></stop>
        </linearGradient>
        <linearGradient x1="23.2220198%" y1="50.3610813%" x2="97.433403%" y2="48.1990534%" id="linearGradient-4">
            <stop stop-color="#E6EAEF" offset="0%"></stop>
            <stop stop-color="#A7ADAF" offset="100%"></stop>
        </linearGradient>
    </defs>
    <g id="Page-1" stroke="none" stroke-width="1" fill="none" fill-rule="evenodd">
        <g id="agw-logo-gris-american"></g>
        <g id="american-grey" transform="translate(0.000000, 25.000000)">
            <path d="M85.4765082,18.4836221 L80.2324011,18.4836221 L79.2495999,21.3660883 L77.0111014,21.3660883 L81.7084785,8.53590653 L84.202993,8.53590653 L88.8281604,21.3660883 L86.4574339,21.3660883 L85.4765082,18.4836221 Z M82.8722726,10.8751163 L82.8328856,10.8751163 L80.8297717,16.7430634 L84.8800755,16.7430634 L82.8722726,10.8751163 Z M105.457944,8.02180517 L107.647678,8.02180517 L107.647678,10.1666477 L105.457944,10.1666477 L105.457944,8.02180517 Z M107.622358,11.5933033 L107.622358,21.3660883 L105.482327,21.3660883 L105.482327,11.5933033 L107.622358,11.5933033 Z M89.6806092,8.02083333 L91.8712805,8.02083333 L91.8712805,10.1666477 L89.6806092,10.1666477 L89.6806092,8.02083333 Z M91.8459603,11.5933033 L91.8459603,21.3660883 L89.7059294,21.3660883 L89.7059294,11.5933033 L91.8459603,11.5933033 Z M103.146298,8.0334672 L103.146298,21.3660883 L101.006268,21.3660883 L101.006268,8.0334672 L103.146298,8.0334672 Z M96.3248329,21.3660883 L94.1782375,21.3660883 L94.1782375,14.1045281 C94.1782375,13.4067497 94.101339,12.0782496 94.0750809,11.595247 L95.8034231,11.595247 C95.9900428,11.595247 96.0434967,11.6768812 96.0491234,11.8673611 C96.0528746,12.1559964 96.0678791,13.078269 96.0678791,13.078269 L96.1166441,13.078269 C96.2854458,12.6555203 96.8940698,11.3901895 98.6721148,11.3901895 C99.2676098,11.3901895 99.7083698,11.5894159 99.7805795,11.6195429 C99.7805795,12.0403479 99.738379,12.9635923 99.7168099,13.2075232 C99.7036809,13.3678762 99.6361602,13.4203554 99.5592616,13.4203554 C99.4861142,13.4203554 99.4523539,13.4028623 99.412029,13.3863411 C99.2788632,13.3280309 98.9675178,13.2298755 98.5351978,13.2298755 C97.3929727,13.2298755 96.3248329,14.0841195 96.3248329,16.6002035 L96.3248329,21.3660883 Z M115.815806,21.3660883 L115.815806,15.0549839 C115.815806,13.849907 115.285019,13.1151988 114.289088,13.1151988 C112.972435,13.1151988 112.098417,14.5671221 112.098417,16.5263439 L112.098417,21.3660883 L109.957448,21.3660883 L109.957448,14.1871341 C109.957448,13.3970313 109.888052,12.2454054 109.852416,11.595247 L111.572318,11.595247 C111.76644,11.595247 111.82177,11.677853 111.823645,11.8586146 C111.829272,12.0675594 111.846152,13.078269 111.846152,13.078269 L111.894917,13.078269 C112.152809,12.6185905 112.812073,11.3892177 114.785178,11.3892177 C116.819239,11.3892177 117.955837,12.8304508 117.955837,14.4485581 L117.955837,21.3660883 L115.815806,21.3660883 Z M127.182727,19.4389371 C127.219301,19.8558548 127.253999,20.798536 127.248372,21.0385795 C127.019552,21.1143827 125.868887,21.5526809 124.323414,21.5526809 C121.321556,21.5526809 119.515378,19.9433201 119.515378,16.478724 C119.515378,13.5039333 121.055224,11.3901895 123.823573,11.3901895 C126.541281,11.3901895 127.833552,13.2736081 127.833552,15.611846 C127.833552,15.8868757 127.80448,16.3514134 127.757591,16.9685294 L121.711676,16.9685294 C121.711676,18.6371722 122.737615,19.8344744 124.633821,19.8344744 C125.678516,19.8344744 126.509396,19.4467118 126.839497,19.2814996 C126.905142,19.2484572 126.943592,19.2202739 127.019552,19.2202739 C127.138651,19.2202739 127.173349,19.3281478 127.182727,19.4389371 Z M125.700085,15.475789 C125.781673,13.9004425 124.983616,13.0180152 123.779497,13.0180152 C122.519111,13.0180152 121.796076,13.96264 121.738871,15.475789 L125.700085,15.475789 Z M136.152664,18.6167636 C136.152664,20.3718999 134.81913,21.5526809 132.032964,21.5526809 C130.563451,21.5526809 129.469991,21.0424668 129.217726,20.9297338 C129.217726,20.5925067 129.268367,19.5798533 129.274931,19.474895 C129.276807,19.4389371 129.27962,19.2202739 129.438106,19.2202739 C129.523445,19.2202739 129.560018,19.2533164 129.621912,19.2814996 C129.926693,19.4292187 130.685363,19.849052 131.789139,19.849052 C133.134864,19.849052 133.916979,19.4729513 133.916979,18.7120036 C133.916979,18.1289019 133.573748,17.7528012 132.370567,17.338799 C132.082666,17.237728 131.590328,17.0705722 131.324934,16.9772759 C130.172394,16.5817386 129.124885,15.8567488 129.124885,14.2687684 C129.124885,12.6312244 130.540006,11.3901895 132.842274,11.3901895 C134.349299,11.3901895 135.286148,11.8887415 135.545915,12.0121647 C135.545915,12.5826325 135.508404,13.1764245 135.486835,13.5039333 C135.475581,13.6769201 135.392118,13.7206528 135.324598,13.7206528 C135.239259,13.7206528 135.191432,13.6846948 135.137978,13.6594271 C134.817255,13.4990741 134.007944,13.0802127 133.017641,13.0802127 C131.903549,13.0802127 131.367135,13.5068488 131.367135,14.1161901 C131.367135,14.6934608 131.812584,15.0802516 132.671597,15.374718 C133.00076,15.4893947 133.353368,15.611846 133.713479,15.7323537 C134.968238,16.1619053 136.152664,16.8888388 136.152664,18.6167636 Z M8.46353129,18.4836221 L3.21942415,18.4836221 L2.23756074,21.3660883 L0,21.3660883 L4.69737709,8.53493469 L7.190016,8.53493469 L11.8151835,21.3660883 L9.4453947,21.3660883 L8.46353129,18.4836221 Z M5.86117126,10.8751163 L5.82178419,10.8751163 L3.81773251,16.7430634 L7.86522293,16.7430634 L5.86117126,10.8751163 Z M44.423927,8.02083333 L46.6127228,8.02083333 L46.6127228,10.1656759 L44.423927,10.1656759 L44.423927,8.02083333 Z M44.4492472,11.5933033 L46.5874025,11.5933033 L46.5874025,21.3660883 L44.4492472,21.3660883 L44.4492472,11.5933033 Z M39.854089,21.3660883 L37.7112448,21.3660883 L37.7112448,14.1045281 C37.7112448,13.4057778 37.6343462,12.0772777 37.6062126,11.5933033 L39.3354925,11.5933033 C39.5221122,11.5933033 39.5774417,11.6768812 39.5783795,11.8663893 C39.5840062,12.1540528 39.6008864,13.078269 39.6008864,13.078269 L39.6487135,13.078269 C39.818453,12.6555203 40.4252015,11.3901895 42.2041842,11.3901895 C42.7978036,11.3901895 43.2423148,11.5884441 43.3154623,11.618571 C43.3154623,12.0393761 43.2713863,12.9626205 43.2507549,13.2075232 C43.2366881,13.3669044 43.1682296,13.4184117 43.0922689,13.4184117 C43.0200592,13.4184117 42.9834855,13.4028623 42.9440985,13.3863411 C42.8090571,13.3270591 42.4986494,13.2289036 42.0700806,13.2289036 C40.9269178,13.2289036 39.854089,14.0841195 39.854089,16.6002035 L39.854089,21.3660883 Z M24.0458067,15.1132941 C24.0458067,13.9869359 23.5862909,13.1132551 22.4768884,13.1132551 C21.2277556,13.1132551 20.5075349,14.5301923 20.5075349,16.5146819 L20.5075349,21.3660883 L18.3684418,21.3660883 L18.3684418,15.0938573 C18.3684418,14.069542 17.9558154,13.1132551 16.8079636,13.1132551 C15.5410128,13.1132551 14.8320455,14.5272768 14.8320455,16.5846541 L14.8320455,21.3660883 L12.6882635,21.3660883 L12.6882635,14.2483598 C12.6882635,13.3290028 12.6094894,12.0286859 12.5841691,11.5933033 L14.2975067,11.5933033 C14.4906909,11.5933033 14.5544605,11.6593881 14.5582116,11.8663893 C14.5629006,12.1258695 14.5779051,13.078269 14.5779051,13.078269 L14.6266701,13.078269 C14.7570225,12.799352 15.4613009,11.3892177 17.4269033,11.3892177 C19.2584021,11.3892177 19.9589293,12.7507602 20.1324199,13.1705935 C20.3012217,12.8012957 21.1142833,11.3892177 22.9589112,11.3892177 C24.8776242,11.3892177 26.1867754,12.4562938 26.1867754,14.6001645 L26.1867754,21.3660883 L24.0458067,21.3660883 L24.0458067,15.1132941 Z M35.4127278,19.4389371 C35.4493015,19.8558548 35.4839997,20.7995078 35.478373,21.0385795 C35.2504906,21.1143827 34.0998255,21.5526809 32.5543518,21.5526809 C29.5515566,21.5526809 27.745378,19.9413764 27.745378,16.4767803 C27.745378,13.505877 29.2842872,11.3901895 32.0554489,11.3901895 C34.7703435,11.3901895 36.0654279,13.2726363 36.0654279,15.611846 C36.0654279,15.8868757 36.0354187,16.3514134 35.9875915,16.9665857 L29.9416761,16.9665857 C29.9416761,18.6371722 30.9685533,19.8344744 32.8619461,19.8344744 C33.9075791,19.8344744 34.7403343,19.4467118 35.0694976,19.2795559 C35.1351428,19.2465135 35.1726543,19.2202739 35.2504906,19.2202739 C35.367714,19.2202739 35.40335,19.3281478 35.4127278,19.4389371 Z M33.9291482,15.4738453 C34.0107357,13.9014143 33.215492,13.0170433 32.0085596,13.0170433 C30.7481733,13.0170433 30.0270148,13.96264 29.9669964,15.4738453 L33.9291482,15.4738453 Z M62.2822125,21.047326 C62.2615811,20.7285637 62.2193807,20.1114477 62.2193807,20.1114477 L62.1903093,20.1114477 C62.063708,20.2912374 61.2834689,21.5526809 59.324431,21.5526809 C57.4479184,21.5526809 56.3713385,20.0541094 56.3713385,18.4087907 C56.3713385,16.1278911 58.508556,14.9820962 61.6792152,14.9820962 L62.1012195,14.9820962 L62.1012195,14.6234886 C62.1012195,13.6001451 61.3988167,13.0520294 60.0859144,13.0520294 C58.9043022,13.0520294 57.9233766,13.4815811 57.5416971,13.6827512 C57.5163769,13.695385 57.4469806,13.737174 57.3832111,13.737174 C57.28193,13.737174 57.224725,13.672061 57.2190983,13.5564124 C57.2022181,13.1890584 57.1656444,12.4825334 57.1600177,12.0345169 C57.5463861,11.8819386 58.8274037,11.3892177 60.2368981,11.3892177 C63.0390069,11.3892177 64.2421881,12.7371545 64.2421881,14.8897717 L64.2421881,18.7003416 C64.2421881,20.0900673 64.3669138,20.9997061 64.4109899,21.3660883 L62.6170026,21.3660883 C62.4444497,21.3660883 62.3009682,21.3068063 62.2822125,21.047326 Z M62.1012195,16.4077799 L61.737358,16.4077799 C59.0477837,16.4077799 58.5188716,17.3767006 58.5188716,18.3611707 C58.5188716,19.1658511 59.0309035,19.9277707 60.0362116,19.9277707 C61.3716209,19.9277707 62.1012195,18.5914959 62.1012195,17.1852489 L62.1012195,16.4077799 Z M55.3735327,19.4301906 C55.4147953,19.8957001 55.4316755,20.6576197 55.4335511,20.8966914 C55.00592,21.1153546 54.0793861,21.5526809 52.9427877,21.5526809 C50.0862873,21.5526809 48.3345004,19.8344744 48.3345004,16.4728929 C48.3345004,13.3231717 49.8921653,11.3901895 52.9427877,11.3901895 C53.9546603,11.3901895 54.8858832,11.7555999 55.4335511,12.0471508 C55.4335511,12.3950682 55.4007285,13.1832273 55.3735327,13.5146235 C55.3604036,13.6535961 55.2956963,13.7206528 55.2187977,13.7206528 C55.1334591,13.7206528 55.1043877,13.6973287 55.0537472,13.6740046 C54.3644734,13.3241436 53.7164623,13.1550441 53.1331586,13.1550441 C51.3147888,13.1550441 50.5664345,14.3883042 50.5664345,16.4728929 C50.5664345,18.3310438 51.1647428,19.7878263 53.1331586,19.7878263 C53.8852641,19.7878263 54.5707867,19.5098811 54.9956043,19.2980208 C55.1100144,19.2426262 55.1297079,19.2202739 55.2187977,19.2202739 C55.275065,19.2202739 55.3547769,19.2591474 55.3735327,19.4301906 Z M71.9536139,15.0549839 C71.9536139,13.8489351 71.4228262,13.114227 70.4287716,13.114227 C69.1111803,13.114227 68.2352869,14.5651784 68.2352869,16.5263439 L68.2352869,21.3660883 L66.0961938,21.3660883 L66.0961938,14.1871341 C66.0961938,13.3970313 66.0267975,12.2454054 65.9930372,11.5933033 L67.7101259,11.5933033 C67.9061235,11.5933033 67.9623907,11.677853 67.9633285,11.8586146 C67.9680175,12.0656157 67.9839599,13.078269 67.9839599,13.078269 L68.0308492,13.078269 C68.2915541,12.6176187 68.9498809,11.3882458 70.9229856,11.3882458 C72.9598598,11.3882458 74.0964581,12.8304508 74.0964581,14.4466144 L74.0964581,21.3660883 L71.9536139,21.3660883 L71.9536139,15.0549839 Z" id="Combined-Shape" fill="#C6C7CE"></path>
            <g id="Group" opacity="0.598505435" transform="translate(137.500000, 0.000000)" fill-rule="nonzero">
                <path d="M0.182334242,0.136750681 C3.03130677,0.136750681 4.87744096,-0.296293143 6.95149296,2.11963556 L13.7662352,10.5298025 L8.70646004,10.5298025 C7.56687103,10.5298025 6.26773955,10.2107175 5.19652589,8.41016689 L0.182334242,0.136750681 Z" id="Shape" fill="url(#linearGradient-1)"></path>
                <path d="M15.6351612,12.9685229 L26.3928815,26.0054212 L18.8488022,26.0054212 C16.2505393,26.0054212 14.7462818,24.4555802 13.7662352,22.7917802 L10.5298025,17.2989612 L11.4642654,14.4044051 L15.6351612,12.9685229 Z" id="Shape" fill="url(#linearGradient-2)"></path>
                <g id="Clipped" transform="translate(10.256301, 12.535479)" fill="url(#linearGradient-3)">
                    <path d="M1.09400545,6.15378065 C1.57263283,4.0341451 5.26490123,2.27917802 7.17941076,2.57547116 L5.24210945,0.205126022 L2.074052,0.888879428 L0,4.23927112 L1.09400545,6.15378065 Z" id="Shape"></path>
                </g>
                <path d="M11.2819312,18.5980926 L8.79762716,14.4044051 C8.06829019,13.1052736 8.72925182,11.5554326 11.3730983,11.2591394 C14.0169448,10.9628463 18.6208844,10.5298025 19.9200159,13.2192325 C16.3417064,12.854564 11.0084298,13.9485695 11.2819312,18.5980926 Z" id="Shape" fill="url(#linearGradient-4)"></path>
            </g>
        </g>
    </g>
</svg>