<?xml version="1.0" encoding="UTF-8"?>
<svg width="165px" height="65px" viewBox="0 0 165 65" version="1.1" xmlns="http://www.w3.org/2000/svg" xmlns:xlink="http://www.w3.org/1999/xlink">
    <!-- Generator: Sketch 45.2 (43514) - http://www.bohemiancoding.com/sketch -->
    <title>agw-logo-gris-british</title>
    <desc>Created with Sketch.</desc>
    <defs></defs>
    <g id="Page-1" stroke="none" stroke-width="1" fill="none" fill-rule="evenodd">
        <g id="agw-logo-gris-british" fill="#C6C7CE">
            <path d="M26.2003534,35.3148169 L34.4408073,35.3148169 C35.1083904,35.3148169 35.7909381,35.2995536 36.4385686,35.1587926 C36.124314,36.0220139 35.1898639,36.6613744 34.6519731,36.6613744 C33.998523,36.6461111 32.9152592,36.6020173 31.9824717,36.6020173 L31.9824717,45.7599652 C31.9824717,46.1618973 32.1770103,46.6079233 32.5419779,46.7809068 L29.1092868,46.7809068 C29.4792426,46.6079233 29.6596481,46.1618973 29.6596481,45.7599652 L29.6596481,36.6299999 L27.1763717,36.6299999 C26.6035637,36.6299999 25.9201846,36.7012284 25.4280187,36.9997097 L26.2003534,35.3148169 Z M57.8502806,35.3148169 L61.1773888,35.3148169 C60.927149,35.4411626 60.6802347,35.8261356 60.6802347,36.3484778 L60.6802347,45.7599652 C60.6802347,46.2746758 60.927149,46.6511692 61.1773888,46.7809068 L57.8502806,46.7809068 C58.0947008,46.6689763 58.3549169,46.2746758 58.3549169,45.7599652 L58.3549169,41.4930398 C57.7538427,41.4243552 56.9133363,41.3946767 55.9697412,41.3946767 C55.0128443,41.3946767 54.1648557,41.4243552 53.5488169,41.4930398 L53.5488169,45.7599652 C53.5488169,46.2746758 53.8032135,46.6511692 54.0509592,46.7809068 L50.7196942,46.7809068 C50.9666085,46.6689763 51.2293187,46.2746758 51.2293187,45.7599652 L51.2293187,36.3484778 C51.2293187,35.8261356 50.9666085,35.4411626 50.7196942,35.3148169 L54.0509592,35.3148169 C53.8032135,35.4411626 53.5488169,35.8261356 53.5488169,36.3484778 L53.5488169,40.2032955 C54.1648557,40.2702842 54.9978797,40.3025066 55.9697412,40.3025066 C56.9133363,40.3025066 57.7538427,40.2609567 58.3549169,40.2032955 L58.3549169,36.3484778 C58.3549169,35.8261356 58.0947008,35.4411626 57.8502806,35.3148169 Z M21.6012623,35.3148169 L25.0613884,35.3148169 C24.763761,35.4564259 24.4935685,35.8261356 24.4935685,36.3484778 L24.4935685,45.7599652 C24.4935685,46.2746758 24.763761,46.6511692 25.0613884,46.7809068 L21.6012623,46.7809068 C21.8797684,46.6511692 22.1724076,46.2746758 22.1724076,45.7599652 L22.1724076,36.3484778 C22.1724076,35.8261356 21.8797684,35.4564259 21.6012623,35.3148169 Z M45.9784403,36.1202923 C45.1620434,36.1202923 44.307404,36.5323999 44.307404,37.483809 C44.307404,39.7487051 49.4360722,40.3024218 49.4360722,43.6043708 C49.4360722,46.0007005 47.3826096,46.9928115 45.3100258,46.9928115 C44.2267619,46.9928115 42.7527582,46.780822 41.8382607,46.1431574 C41.7825595,45.7598804 41.7576186,45.3587962 41.7576186,44.9670395 C41.7576186,44.4989666 41.7966926,44.0291978 41.8648643,43.5670606 C42.4368409,44.8932672 43.6157113,45.93032 45.0905464,45.93032 C46.2120528,45.93032 47.0450769,45.4317206 47.0450769,44.186918 C47.0450769,42.0034258 42.0028702,41.5099142 42.0028702,38.0239583 C42.0028702,35.8659048 44.0147648,35.1587078 45.7847331,35.1587078 C46.5745264,35.1587078 47.7176483,35.2706382 48.4392699,35.6098215 L48.5648055,37.7534597 C48.1208585,36.8062904 47.0093284,36.1202923 45.9784403,36.1202923 Z M8.27287694,38.4046915 C8.27287694,39.6087921 7.24365157,40.5585052 6.13295279,40.7721906 C7.7316607,40.7569274 9.27633011,41.7532782 9.27633011,43.5526453 C9.27633011,46.1245024 6.63343233,46.780822 4.77201424,46.780822 L0,46.780822 C0.362473555,46.5917273 0.524589021,46.1431574 0.524589021,45.7598804 L0.524589021,36.348393 C0.524589021,35.9498527 0.362473555,35.5140022 0,35.3147321 L4.39790162,35.3147321 C6.35908308,35.3147321 8.27287694,36.1330117 8.27287694,38.4046915 Z M2.83993042,45.6623652 C3.32793954,45.7598804 3.85502265,45.7912548 4.34053769,45.7912548 C5.46869506,45.7912548 6.61597374,45.2790881 6.61597374,43.5204229 C6.61597374,41.7855006 5.259192,41.3945919 3.84088951,41.3945919 C3.51998402,41.3945919 3.23150163,41.3945919 2.83993042,41.4242704 L2.83993042,45.6623652 Z M2.83993042,36.348393 L2.83993042,40.3626268 L3.28387739,40.3626268 C4.63234553,40.3626268 5.93508879,39.9369519 5.93508879,38.3444865 C5.93508879,36.7638925 4.89422436,36.3026033 3.56072073,36.3026033 C3.35703719,36.3026033 3.2148744,36.3026033 2.83993042,36.348393 Z M18.2533701,38.1741317 C18.2533701,39.9921539 16.7785351,40.9240599 15.1341023,40.9240599 C17.4743845,40.9376273 18.8486249,46.5366948 21.4316646,46.553654 C20.739972,46.7630996 20.0175189,46.8487434 19.2950659,46.8487434 C18.8635894,46.8487434 18.3880507,46.8648546 17.9773582,46.7402048 C17.2116743,46.5095602 16.155014,44.750895 15.7343452,44.0606571 C15.0825579,42.9388085 14.5139067,41.3946767 13.0498793,41.3777175 L13.0498793,45.7599652 C13.0498793,46.1432422 13.2203084,46.6079233 13.5836133,46.7809068 L10.2074548,46.7809068 C10.5616148,46.5918121 10.7312125,46.1618973 10.7312125,45.7599652 L10.7312125,36.3484778 C10.7312125,35.9499375 10.5616148,35.514087 10.2074548,35.3148169 L14.2719806,35.3148169 C16.0402862,35.3148169 18.2533701,36.0067507 18.2533701,38.1741317 Z M13.0498793,40.3296413 C13.2352729,40.3423606 13.4007138,40.3627116 13.5836133,40.3627116 C14.848114,40.3627116 15.7842269,39.6495788 15.7842269,38.2470561 C15.7842269,36.8131589 14.8639098,36.3026881 13.6268441,36.3026881 C13.4256547,36.3026881 13.2494061,36.3357585 13.0498793,36.3637411 L13.0498793,40.3296413 Z M36.8500925,35.3148169 L40.3085558,35.3148169 C40.0150852,35.4564259 39.7340851,35.8261356 39.7340851,36.3484778 L39.7340851,45.7599652 C39.7340851,46.2746758 40.0150852,46.6511692 40.3085558,46.7809068 L36.8500925,46.7809068 C37.1261045,46.6511692 37.417081,46.2746758 37.417081,45.7599652 L37.417081,36.3484778 C37.417081,35.8261356 37.1261045,35.4564259 36.8500925,35.3148169 Z M111.70587,35.3142233 L115.487733,45.8891092 C115.644029,46.3130883 115.978236,46.6234409 116.253416,46.7811612 L113.026072,46.7811612 C113.142462,46.6683827 113.230587,46.5852828 113.230587,46.3817729 C113.230587,46.3130883 113.196501,46.1994619 113.12916,45.9849285 C113.12916,45.9849285 112.212169,43.422399 112.099935,43.1247657 C111.40076,43.0382739 110.679139,43.0382739 109.969987,43.0382739 C109.306561,43.0382739 108.623182,43.0543851 107.954767,43.1247657 C107.857498,43.381697 106.87566,45.9306591 106.87566,45.9306591 C106.733497,46.2749301 106.695255,46.3927963 106.695255,46.4674166 C106.695255,46.6378562 106.832429,46.7209561 106.952146,46.7811612 L104.690011,46.7811612 C105.024219,46.6081777 105.312701,46.2528832 105.45237,45.8984367 L109.183519,36.1079121 C109.195158,36.0672101 109.205966,36.0222683 109.205966,35.967151 C109.205966,35.6975004 109.029718,35.441417 108.78696,35.3142233 L111.70587,35.3142233 Z M108.387907,41.9613671 C108.901688,42.0181803 109.428771,42.0317476 109.941721,42.0317476 C110.524505,42.0317476 111.113941,42.0317476 111.684254,41.9613671 L110.093029,37.4960196 L108.387907,41.9613671 Z M77.3182697,35.3142233 L80.7759016,35.3142233 C80.4815997,35.4566803 80.2080818,35.82639 80.2080818,36.3487322 L80.2080818,45.7593716 C80.2080818,46.2749301 80.4815997,46.6505756 80.7759016,46.7811612 L77.3182697,46.7811612 C77.5976071,46.6505756 77.8860895,46.2749301 77.8860895,45.7593716 L77.8860895,36.3487322 C77.8860895,35.82639 77.5976071,35.4566803 77.3182697,35.3142233 Z M121.912493,35.3142233 L124.2985,35.3142233 C123.828781,35.543172 123.441367,36.0672101 123.184476,36.5191718 L120.522457,41.2813047 L120.522457,45.7593716 C120.522457,46.1248416 120.668777,46.6081777 121.023768,46.7811612 L117.711624,46.7811612 C118.049988,46.5912185 118.205453,46.1121222 118.205453,45.7593716 L118.205453,41.2660414 L115.890943,37.4841482 C115.683103,37.1297017 114.717892,35.482119 113.541516,35.482119 C113.86159,35.3583171 114.834283,35.1683745 115.487733,35.1683745 C116.575985,35.1683745 117.11637,35.2701295 117.783121,36.3351649 L119.92554,39.7982259 C120.105114,39.4581947 121.80026,36.4504872 121.80026,36.4504872 C122.005606,36.0833213 122.145274,35.82639 122.145274,35.6975004 C122.145274,35.5329965 122.076271,35.4253058 121.912493,35.3142233 Z M90.6657764,38.1735381 C90.6657764,39.9924083 89.0529353,40.9243143 87.8341596,40.9243143 C90.2592407,41.0667713 91.7224367,46.5539084 94.1292278,46.5539084 C93.4317157,46.7625061 92.710094,46.8481498 91.9834842,46.8481498 C91.5520076,46.8481498 91.0872766,46.865109 90.6657764,46.7404592 C89.8992612,46.5098145 88.8442636,44.7511494 88.4244262,44.0609115 C87.7743016,42.9390628 86.9271443,41.3779719 85.4722619,41.3779719 L85.4722619,45.7593716 C85.4722619,46.1434966 85.6343774,46.6081777 85.9918628,46.7811612 L82.6190297,46.7811612 C82.9823347,46.5912185 83.1502697,46.1613038 83.1502697,45.7593716 L83.1502697,36.3487322 C83.1502697,35.9501919 82.9823347,35.5143414 82.6190297,35.3142233 L86.6927004,35.3142233 C88.4568492,35.3142233 90.6657764,36.0070051 90.6657764,38.1735381 Z M85.4722619,40.3290477 C85.6510046,40.3417671 85.8164455,40.3621181 85.9918628,40.3621181 C87.2596889,40.3621181 88.1941391,39.6489853 88.1941391,38.2464625 C88.1941391,36.8134133 87.2713279,36.3020945 86.0317681,36.3020945 C85.8447118,36.3020945 85.6659691,36.3351649 85.4722619,36.3639955 L85.4722619,40.3290477 Z M72.1987464,35.3142233 L75.9814406,45.8891092 C76.1352425,46.3130883 76.4661243,46.6234409 76.7429676,46.7811612 L73.5239364,46.7811612 C73.631182,46.6683827 73.7292827,46.5852828 73.7292827,46.3817729 C73.7292827,46.3130883 73.7026791,46.1994619 73.6212057,45.9849285 C73.6212057,45.9849285 72.6975632,43.422399 72.5903176,43.1247657 C71.8969622,43.0382739 71.1736778,43.0382739 70.4661893,43.0382739 C69.7927866,43.0382739 69.1119016,43.0543851 68.4468125,43.1247657 C68.3520374,43.381697 67.3627173,45.9306591 67.3627173,45.9306591 C67.2296995,46.2749301 67.1839746,46.3927963 67.1839746,46.4674166 C67.1839746,46.6378562 67.3269688,46.7209561 67.4483475,46.7811612 L65.1853819,46.7811612 C65.5204205,46.6081777 65.8089029,46.2528832 65.9510657,45.8984367 L69.6714078,36.1079121 C69.6872037,36.0672101 69.6938546,36.0222683 69.6938546,35.967151 C69.6938546,35.6975004 69.517606,35.441417 69.2814994,35.3142233 L72.1987464,35.3142233 Z M68.8824459,41.9613671 C69.3895763,42.0181803 69.9174908,42.0317476 70.4321035,42.0317476 C71.0207073,42.0317476 71.6034917,42.0317476 72.1762996,41.9613671 L70.5867367,37.4960196 L68.8824459,41.9613671 Z M104.648443,35.3142233 L106.849888,35.3142233 C106.443352,35.5329965 106.14905,36.0070051 106.007719,36.433528 L102.591655,46.7811612 C102.311486,46.7811612 102.033812,46.68195 101.876684,46.5700196 C101.539983,46.23762 101.008743,44.8520564 100.81753,44.3407376 L99.2728606,40.3621181 L97.048969,46.7811612 L95.9906459,46.7811612 L92.167215,36.4089372 C92.0026055,35.967151 91.7224367,35.543172 91.3050933,35.3142233 L94.6280447,35.3142233 C94.4883759,35.4253058 94.391938,35.5508036 94.391938,35.7924717 C94.391938,35.9086419 94.4484706,36.0672101 94.4883759,36.191012 L96.9774719,43.0543851 L99.6286833,35.3142233 L102.549256,42.7754069 L104.760677,36.0222683 C104.814715,35.8391094 104.84797,35.7712727 104.84797,35.6551025 C104.84797,35.5143414 104.787281,35.4253058 104.648443,35.3142233 Z M128.343905,36.1206315 C127.526677,36.1206315 126.677025,36.5318912 126.677025,37.4841482 C126.677025,39.7490443 131.806525,40.301913 131.806525,43.60471 C131.806525,46.0001917 129.767195,46.9931507 127.68131,46.9931507 C126.596383,46.9931507 125.119054,46.7811612 124.204557,46.1434966 C124.143867,45.7593716 124.115601,45.3582874 124.115601,44.9665307 C124.115601,44.4984579 124.159663,44.028689 124.228666,43.5673998 C124.79898,44.8936063 125.98367,45.9306591 127.457674,45.9306591 C128.581674,45.9306591 129.418024,45.4312118 129.418024,44.1872572 C129.418024,42.0029171 124.374154,41.5102534 124.374154,38.0242975 C124.374154,35.866244 126.381061,35.1590469 128.152692,35.1590469 C128.944979,35.1590469 130.079787,35.2701295 130.806397,35.6093127 L130.931101,37.7529509 C130.482166,36.8066296 129.375624,36.1206315 128.343905,36.1206315 Z M159.542818,28.0690994 C159.738188,28.0886024 159.93439,28.1106493 160.126434,28.136936 C161.248772,28.2938083 163.705445,28.5363243 164.800348,31.4066626 C164.045472,32.5098561 163.010427,33.668167 160.14805,35.2792874 C156.4169,37.3796797 154.019254,38.0758533 154.019254,38.0758533 C154.019254,38.0758533 148.927997,37.4127501 141.704298,35.2131467 C141.704298,35.2131467 145.191859,34.1353919 146.934392,33.5587804 C148.475736,33.0474616 149.696174,32.67436 152.448812,31.6203481 C154.183863,30.9563968 157.458596,29.6437576 159.542818,28.0690994 Z M164.721036,29.015675 C164.844077,29.3107645 164.895622,29.4905316 164.935527,29.6151815 C165.014506,29.8653291 164.998711,30.0934298 164.998711,30.0934298 C164.960468,29.9391015 164.892296,29.7907088 164.79087,29.6355324 C164.667829,29.4506776 164.501556,29.2336003 164.255473,28.9936281 C164.07008,28.814709 163.866396,28.6569888 163.621976,28.489941 C162.636813,27.8310775 161.365661,27.4605198 160.238335,27.3036476 C158.494971,27.0670673 156.493884,27.1086172 156.304333,27.1018335 C155.66086,27.092506 151.503222,27.1272723 150.434091,27.1467753 C145.687849,27.2468344 139.876633,27.2595538 138.35441,27.2595538 C122.64168,27.3333261 115.800408,26.9882071 108.188463,25.431356 C101.712989,24.1195648 98.1190142,22.8730663 98.1190142,22.8730663 C103.831298,22.6712523 137.160575,21.2610979 143.241152,21.0957461 C147.222542,20.9821197 150.048339,20.9566809 152.309642,21.0906583 C153.470222,21.156799 154.548498,21.2568581 155.903617,21.4917425 C157.118236,21.703732 158.222284,22.0632663 158.865758,22.3074782 C159.534726,22.5600509 159.849416,22.651902 160.503392,23.0551144 C161.157368,23.4583268 161.408113,23.7250106 161.924336,24.3154431 C161.924336,24.3154431 162.09144,24.4901225 162.318402,24.8004752 C162.571967,25.1600094 162.866269,25.6034915 162.966863,25.7679954 C163.791574,27.0416285 164.182314,27.841253 164.317826,28.1202313 C164.464977,28.4136248 164.593838,28.7180417 164.721036,29.015675 Z" id="british-grey"></path>
        </g>
    </g>
</svg>