<?xml version="1.0" encoding="UTF-8"?>
<svg width="165px" height="65px" viewBox="0 0 165 65" version="1.1" xmlns="http://www.w3.org/2000/svg" xmlns:xlink="http://www.w3.org/1999/xlink">
    <!-- Generator: Sketch 45.2 (43514) - http://www.bohemiancoding.com/sketch -->
    <title>agw-logo-gris-emirates</title>
    <desc>Created with Sketch.</desc>
    <defs></defs>
    <g id="Page-1" stroke="none" stroke-width="1" fill="none" fill-rule="evenodd">
        <g id="agw-logo-gris-emirates"></g>
        <path d="M31.2289482,32.806455 L30.5155795,32.806455 C30.5840763,32.749607 31.8086646,31.684114 32.0191669,31.5119459 C32.3532974,31.1854763 32.5688116,30.6153725 32.5688116,30.0257781 L32.5688116,22.8223305 C32.5688116,21.6528869 33.071678,20.8229068 33.3991259,20.5029341 C33.6480531,20.2852876 36.0420983,18.1819134 36.2241994,18.0064969 L36.9292148,18.0113696 C36.7287365,18.1981557 35.8934102,18.8949492 35.6294471,19.1808132 C35.3487775,19.4601802 34.8809948,20.0351567 34.8809948,21.0697894 C34.8809948,21.3524049 34.8759828,27.6852667 34.8759828,27.9954941 C34.8759828,29.3046212 34.1509196,30.1378497 33.8719206,30.4724405 C33.619652,30.7323169 31.4210732,32.6099235 31.2289482,32.806455 Z M27.9494571,46.7114639 L32.480267,46.7114639 C34.2294402,46.7114639 35.4874416,45.5517657 35.9418592,45.1424604 C38.4645446,42.7467253 38.4762391,41.2410668 37.6843498,40.4175836 C37.50559,40.2502882 36.6568985,39.3894478 36.6568985,39.3894478 L36.6568985,36.5210626 L37.5540389,37.3542911 C37.7829183,37.5686891 38.5931848,38.3125851 38.5931848,39.5551189 L38.5931848,43.2940899 C38.5931848,44.6519438 38.1688391,46.097506 37.0645377,47.169496 C35.9669189,48.2479828 34.2795598,49 32.4501952,49 L30.6492317,49 L27.9494571,46.7114639 Z M19.1200581,32.449125 C19.1133755,32.1746306 19.1200581,29.3484753 19.1200581,28.9050613 C19.1200581,28.323588 18.7391494,27.3409305 18.1260199,27.0388243 L19.0515614,27.0388243 C19.1584832,27.0843026 19.7482235,27.3165671 19.7482235,29.4849104 L19.7064572,32.1453945 C19.7064572,33.2417479 20.5985857,34.5037724 21.905036,34.5037724 C22.1522926,34.5037724 32.5621289,34.4907786 32.5621289,34.4907786 C32.5688116,34.2260296 32.8929182,33.1589123 33.3740661,32.5969297 C33.6848075,32.2818296 35.9786135,30.2482972 36.2208581,30.0485172 L36.9125083,30.0403961 C36.8206224,30.1346013 35.721333,31.0993922 35.4506873,31.3543959 C35.1466285,31.6646233 34.8809948,32.4166405 34.8809948,33.0874463 L34.8809948,34.4907786 L36.3361332,34.4907786 C36.9225322,34.4907786 37.4421052,34.086346 37.8430618,33.7208949 L37.8430618,32.3126899 C37.8430618,32.3126899 38.2189586,32.734989 38.5664544,33.0809494 C39.0459317,32.6359111 40.3323342,31.3365294 41.266229,31.3365294 C43.1473838,31.3365294 42.7130141,33.6283139 41.9445139,34.3657131 C41.6955867,34.6060987 40.587944,35.5952531 40.2454602,35.9136016 C39.3583437,36.7273394 37.8397205,36.3440218 37.8397205,34.2260296 C37.8397205,34.2260296 36.1907864,35.723567 35.9552244,35.9217227 C35.7230037,36.1328723 34.8809948,37.0002096 34.8809948,37.0002096 L34.8809948,40.7326836 C34.8809948,42.5242062 34.2945957,43.1544064 33.7716814,43.6546683 C33.4926824,43.8901813 31.5213124,45.6199832 31.1838406,45.9350833 L30.4671306,45.9350833 C30.4671306,45.9350833 31.7351559,44.8549722 32.0058016,44.5999686 C32.2680941,44.3254742 32.5688116,43.7618673 32.5688116,42.8198156 C32.5688116,42.5713088 32.5420811,36.9514828 32.5420811,36.9514828 L23.1062352,36.9514828 C19.8484627,36.9514828 19.140106,33.3944252 19.1200581,32.449125 Z M39.9814971,34.5362569 C41.0005952,35.3191344 41.458354,34.4193126 40.795105,33.4106675 C40.6430756,33.1654092 40.0065569,32.7609766 38.9106088,33.4480247 C38.9106088,33.4480247 39.6857916,34.3104894 39.9814971,34.5362569 Z M23.9883398,39.7743896 L25.7959859,38.0088547 C26.9971851,39.2026616 27.5100755,39.4397988 27.5100755,40.1804464 C27.5100755,40.6823326 25.8494468,42.007702 25.7642435,42.093786 C25.6456272,41.5659122 25.237988,40.9552028 23.9883398,39.7743896 Z M27.6203386,33.0078592 L22.6250873,33.0078592 C21.828186,33.0078592 21.0078956,32.4020224 21.0078956,31.805931 L21.0162488,30.0030389 C21.2651761,30.2905271 21.5475164,30.6251179 22.150622,30.6169968 C22.6735362,30.6104998 23.1630374,30.2320549 23.3150668,30.0972441 L27.1208134,26.2591952 C27.1208134,26.2591952 25.4117358,24.7161794 24.2740214,23.9885256 C23.7293887,23.6295714 22.9909602,24.0811066 22.8823678,24.5537567 C22.5515786,26.0236823 22.8823678,28.2375039 22.8823678,28.2375039 C22.8823678,28.2375039 21.7814077,27.1573929 21.510762,26.8910196 C20.9393988,26.3534004 20.9677999,25.1222362 21.6394023,24.4790422 C21.7446534,24.3750917 22.7470449,23.2706172 24.0083876,23.2706172 L26.0064882,23.2706172 C27.3780939,23.2706172 28.796478,24.5440113 28.796478,24.5440113 C28.796478,24.5440113 29.0554291,24.3182437 29.0554291,24.0957246 C29.0554291,23.4297915 29.0487465,21.6447658 29.0487465,21.6447658 C28.0263071,20.6653568 27.8642538,19.6550875 28.3738029,19.1824374 C29.2759553,18.3037305 29.5883673,18 29.5883673,18 C29.5883673,18 29.5766728,19.0638688 30.61916,20.0790108 C31.0117633,20.4314681 31.7702396,21.3897621 31.3057982,21.8412973 C30.9165361,22.2392329 30.263311,22.8824269 30.263311,22.8824269 C30.2349099,22.6485382 29.6084152,22.0979252 29.6084152,22.0979252 C29.6084152,22.0979252 29.6150978,23.7936184 29.6084152,24.0015194 C29.5950499,24.763282 29.316051,24.9809284 29.316051,24.9809284 C29.316051,24.9809284 30.734435,26.3810123 30.734435,28.1822802 C30.734435,29.0561144 30.7427883,29.8649796 30.7427883,30.0306507 C30.7427883,30.4025988 30.6492317,30.6852143 30.4036458,30.9727025 C30.2766762,31.1042649 28.8983878,32.4231374 28.7112747,32.6034266 C28.3437311,32.949387 27.9010082,33.0078592 27.6203386,33.0078592 Z M27.5668777,26.6457613 L24.362566,29.8649796 C23.8546876,30.3636173 23.7795082,30.490307 23.3100549,30.7599287 L28.9802498,30.7599287 C30.4738132,30.7599287 30.186461,29.8422404 29.8740489,29.374463 C29.3461227,28.4161689 27.5668777,26.6457613 27.5668777,26.6457613 Z M17.9940383,41.1257466 L17.9940383,36.7435817 C17.9940383,35.3759824 17,34.8497328 17,34.8497328 L17.9305535,34.8497328 C17.9305535,34.8497328 18.6121798,34.8497328 18.6121798,37.2941947 L18.6121798,39.6866813 C18.6121798,42.5631877 21.1916674,44.2296448 23.2682885,44.2296448 C23.6141136,44.2296448 28.4239225,44.2280205 28.6477899,44.2280205 C29.8189174,44.2280205 30.854722,42.5323274 29.5733315,41.5594153 C29.316051,41.3303992 28.6778617,40.7050718 28.6778617,40.7050718 L28.6778617,37.7619721 C28.6778617,37.7619721 29.3227336,38.3661846 29.5315651,38.5740857 C29.8757196,38.9151734 30.61916,39.4381746 30.61916,40.6790841 L30.61916,42.1035314 C30.61916,43.5669601 30.1062696,44.016871 29.5733315,44.5756052 C29.4213021,44.7510217 29.0236867,45.210678 28.6678377,45.4819239 C27.7690266,46.2648014 27.286208,46.6010165 25.7893033,46.6010165 L23.3518212,46.6010165 C20.40479,46.6010165 17.9940383,43.9746411 17.9940383,41.1257466 Z M20.3062215,39.7760138 L22.1088556,38.0202242 C23.3301027,39.212407 23.8279572,39.4495442 23.8279572,40.1853191 C23.8279572,40.6872053 22.1623165,42.0141989 22.0704306,42.1035314 C21.9618382,41.5756576 21.549187,40.9616997 20.3062215,39.7760138 Z M84.1490078,33.8574642 L84.1490078,42.1208165 C84.1490078,44.1310334 85.7670712,45.1701689 85.7670712,45.1701689 C85.7670712,45.1701689 83.7559342,45.164934 81.58326,45.164934 C81.58326,45.164934 80.3394243,45.1858737 80.3205783,42.1339039 C80.3205783,41.4559792 80.3313474,34.5484763 80.3313474,34.5484763 C80.3582702,33.4229642 79.3244327,32.3864462 78.0832893,32.3864462 C76.4894564,32.3864462 75.9483071,33.5014883 75.7840777,33.9490757 L75.7948468,42.0972593 C75.7948468,44.1205635 77.3994488,45.1701689 77.3994488,45.1701689 L73.2048685,45.1701689 C73.2048685,45.1701689 71.963725,45.164934 71.963725,42.1208165 L71.963725,34.524919 C71.982571,33.4020245 70.8760418,32.3655064 69.8987422,32.3655064 C68.0787574,32.3655064 67.4568396,33.5957172 67.4003016,33.9543106 L67.4003016,42.0998768 C67.4003016,44.073449 68.8999044,45.1439942 69.0156727,45.1701689 L64.8345538,45.1701689 C64.8345538,45.1701689 63.5557183,45.1439942 63.5557183,42.1208165 L63.5664875,32.92041 C63.5664875,30.4678408 62.118038,29.8998498 62.118038,29.8998498 L64.6407092,29.8919974 C67.2172262,29.8919974 67.2953025,32.7188648 67.2953025,32.7188648 C67.2953025,32.7188648 68.1110649,29.7872986 71.3014228,29.7872986 C73.0137162,29.7872986 75.0813913,30.6772384 75.6844631,32.6691329 C76.0156142,31.9624161 76.8313766,29.8108558 79.459047,29.8108558 C81.4621072,29.8108558 84.1490078,30.6405938 84.1490078,33.8574642 Z M91.4343316,33.3208829 L91.447793,42.1181991 C91.447793,44.1493557 93.0497027,45.1675514 93.0497027,45.1675514 L88.8847375,45.1675514 C88.8847375,45.1675514 87.6678246,45.1727864 87.6678246,42.1469912 L87.6678246,32.8968528 C87.6678246,30.491398 86.2193751,29.8867625 86.2193751,29.8867625 L88.6693547,29.8867625 C89.5901162,29.8867625 91.4343316,29.8867625 91.4343316,33.3208829 Z M104.324993,33.6245094 C103.226541,32.357654 101.366172,32.1508739 99.9931062,32.9910817 C99.3577269,33.3627624 99.0292681,33.8757865 98.9323458,34.5406239 L98.9323458,42.0894069 C98.9323458,44.0577442 100.423872,45.1335243 100.526179,45.164934 L96.3585212,45.164934 C96.3585212,45.164934 95.176608,45.1335243 95.176608,42.1181991 L95.1819926,32.8968528 C95.1819926,30.4495185 93.7093126,29.8736751 93.7093126,29.8736751 L96.1754458,29.8736751 C97.9685077,29.8736751 98.6819633,30.5594522 98.8919616,32.925645 C98.8919616,32.925645 99.4950334,29.9391119 102.138858,29.9391119 C103.851151,29.9391119 104.324993,31.0122745 104.324993,31.0122745 L104.324993,33.6245094 Z M122.678301,26.3793529 L122.678301,29.884145 L126.17558,29.884145 L126.162118,32.184901 C126.162118,32.184901 125.106743,31.5985877 123.690601,31.5985877 L122.678301,31.5985877 L122.662148,42.2150455 C122.662148,44.1467382 124.25598,45.1675514 124.25598,45.1675514 C124.25598,45.1675514 122.41715,45.164934 120.126015,45.164934 C120.126015,45.164934 118.844487,45.164934 118.844487,42.2412202 L118.849872,31.5881179 L116.203355,31.5436209 C116.203355,31.5436209 118.688335,30.3657594 119.881017,29.3972956 C121.776386,27.9315125 122.678301,26.3793529 122.678301,26.3793529 Z M132.892831,29.8082384 C137.141257,29.7872986 139.432392,33.0905456 136.35511,36.2027172 C134.018207,38.6029371 132.171299,38.1919943 130.749772,39.9378467 C130.749772,39.9378467 130.97054,42.3223617 132.790525,43.1311599 C133.425904,43.4086117 136.010498,44.2435846 137.677022,41.3853075 L137.666253,44.1074762 C137.666253,44.1074762 136.608185,45.1858737 133.178214,45.1858737 C129.131709,45.1858737 126.310194,42.1024943 126.310194,37.8360184 C126.310194,33.6899462 128.601329,29.8265607 132.892831,29.8082384 Z M132.661295,31.0044221 C129.944779,31.2138197 130.46439,38.2757533 130.46439,38.2757533 C131.360921,37.3256118 132.733987,37.131919 133.794747,35.2447232 C134.473203,33.9909552 135.027814,30.8342865 132.661295,31.0044221 Z M87.624748,26.7929131 C87.624748,25.7328378 88.4216644,24.931892 89.5281936,24.931892 C90.6239537,24.931892 91.4585621,25.7328378 91.4585621,26.7929131 C91.4585621,27.8137263 90.6239537,28.6199071 89.5281936,28.6199071 C88.4216644,28.6199071 87.624748,27.8137263 87.624748,26.7929131 Z M143.920432,34.5353889 C145.306958,35.3468046 147.065021,36.2393618 148.039628,37.4905124 C148.610392,38.2286389 148.973851,39.1342834 148.998081,40.1917413 C149.084235,43.0892804 146.254643,45.1675514 143.381974,45.1675514 C140.985841,45.1675514 139.437777,44.123181 139.437777,44.123181 L139.451238,41.3565153 C139.451238,41.3565153 140.372,43.5211629 142.458521,43.5211629 C144.574657,43.5211629 145.56811,42.1208165 145.53311,41.0267141 C145.522341,40.2912051 145.070037,39.4614672 143.839663,38.8201871 C143.010439,38.3699822 142.283522,37.911925 141.68045,37.4878949 C140.14854,36.3859401 139.383931,35.2394883 139.330085,33.4255817 C139.26547,31.3656329 141.502759,29.7742113 143.995816,29.7742113 C146.413488,29.7742113 148.020782,30.96516 148.020782,30.96516 L148.020782,33.5433678 C148.020782,33.5433678 147.132328,31.6038227 145.064653,31.4389221 C142.288907,31.1981149 142.035832,33.5014883 143.920432,34.5353889 Z M114.838367,33.5119582 L114.838367,42.1312864 C114.838367,44.1284159 116.448353,45.1701689 116.448353,45.1701689 C116.448353,45.1701689 114.464139,45.164934 112.299542,45.164934 C112.299542,45.164934 111.392242,45.0864099 111.104167,43.3536448 C110.670709,44.2697593 109.685333,45.1884912 107.822272,45.1884912 C105.329215,45.1884912 103.584615,43.8797563 103.584615,41.4926238 C103.584615,37.9799792 106.758819,36.8492323 109.28149,35.7760696 C110.121483,35.4253287 111.424549,34.7343166 111.424549,33.265916 C111.424549,32.3707414 110.899554,31.5357685 109.122645,31.5357685 C106.920356,31.5357685 106.093824,33.6375968 106.093824,33.6375968 L106.093824,30.9442203 C106.093824,30.9442203 107.617658,29.8579703 109.984177,29.8579703 C112.47454,29.8579703 114.838367,31.4546269 114.838367,33.5119582 Z M111.047629,42.5762563 L111.047629,36.1111058 C110.191483,37.1528588 106.955356,37.8438708 106.955356,41.298931 C106.955356,42.7542442 107.862656,43.4216991 109.18726,43.4216991 C110.484942,43.4216991 111.01263,42.5945786 111.047629,42.5762563 Z M53.2361891,43.0971328 C53.7315696,43.0971328 57.3984621,43.0997503 57.8803811,43.0997503 C60.8365103,43.0997503 61.5472736,41.6601418 61.5472736,41.6601418 L61.523043,42.8118286 C61.523043,43.6991509 60.7342034,45.1858737 58.4969144,45.1858737 L48.61892,45.1858737 C48.61892,45.1858737 47.4046994,45.1361418 47.4046994,42.1888708 L47.4235454,30.3657594 C47.4235454,27.3033197 45.7570209,25.9657926 45.7570209,25.9657926 L55.6457844,25.9657926 C60.8095874,25.9657926 61.2268916,29.3554161 61.2268916,29.3554161 C59.078448,28.017889 57.0188498,28.0702384 54.3561798,28.0676209 L51.3138975,28.057151 C51.7608169,28.5623227 51.7608169,30.3788468 51.7608169,30.3788468 L51.7608169,32.446648 L53.8823376,32.446648 C57.2342327,32.446648 58.3596079,35.1033799 58.3596079,35.1033799 C56.8061593,34.2134401 55.1907882,34.3888106 53.895799,34.3888106 C52.7677315,34.3888106 51.7608169,34.4097504 51.7608169,34.4097504 L51.7608169,40.9324852 C51.8792774,41.950681 51.7742783,43.0971328 53.2361891,43.0971328 Z" id="emirates-color" fill="#C6C7CE"></path>
    </g>
</svg>