<svg width="180" height="30" viewBox="0 0 180 30" fill="none" xmlns="http://www.w3.org/2000/svg">
<g opacity="0.8">
<path d="M16.5855 19.2298H6.83813L4.97864 23.7285H0L9.35744 2.73429H14.1561L23.5436 23.7285H18.445L16.5855 19.2298ZM15.0559 15.5408L11.7268 7.50298L8.3977 15.5408H15.0559Z" fill="white"/>
<path d="M25.2418 7.59296H29.9206V23.7285H25.2418V7.59296ZM27.5812 5.34357C26.7214 5.34357 26.0216 5.09364 25.4818 4.59378C24.9419 4.09392 24.672 3.47408 24.672 2.73429C24.672 1.99449 24.9419 1.37466 25.4818 0.874796C26.0216 0.374932 26.7214 0.125 27.5812 0.125C28.441 0.125 29.1408 0.364935 29.6806 0.844805C30.2205 1.32467 30.4904 1.92451 30.4904 2.64431C30.4904 3.4241 30.2205 4.07392 29.6806 4.59378C29.1408 5.09364 28.441 5.34357 27.5812 5.34357Z" fill="white"/>
<path d="M38.5816 9.72238C39.1415 8.94259 39.8913 8.35275 40.831 7.95286C41.7908 7.55297 42.8905 7.35303 44.1301 7.35303V11.6718C43.6103 11.6319 43.2604 11.6119 43.0804 11.6119C41.7408 11.6119 40.6911 11.9918 39.9313 12.7515C39.1715 13.4913 38.7916 14.611 38.7916 16.1106V23.7285H34.1129V7.59296H38.5816V9.72238Z" fill="white"/>
<path d="M60.8095 12.9015H65.2483V21.4192C64.1086 22.2789 62.789 22.9388 61.2894 23.3986C59.7898 23.8585 58.2802 24.0884 56.7607 24.0884C54.5812 24.0884 52.6218 23.6286 50.8823 22.7088C49.1427 21.7691 47.7731 20.4794 46.7734 18.8399C45.7937 17.1803 45.3038 15.3108 45.3038 13.2314C45.3038 11.152 45.7937 9.29249 46.7734 7.65294C47.7731 5.9934 49.1527 4.70375 50.9123 3.784C52.6718 2.84426 54.6512 2.37439 56.8506 2.37439C58.6901 2.37439 60.3597 2.6843 61.8593 3.30413C63.3588 3.92396 64.6185 4.82372 65.6382 6.00339L62.5191 8.88261C61.0195 7.30304 59.21 6.51325 57.0906 6.51325C55.7509 6.51325 54.5613 6.79318 53.5215 7.35303C52.4818 7.91287 51.672 8.70266 51.0922 9.72238C50.5124 10.7421 50.2224 11.9118 50.2224 13.2314C50.2224 14.5311 50.5124 15.6907 51.0922 16.7105C51.672 17.7302 52.4718 18.53 53.4915 19.1098C54.5313 19.6697 55.7109 19.9496 57.0306 19.9496C58.4302 19.9496 59.6899 19.6497 60.8095 19.0498V12.9015Z" fill="white"/>
<path d="M75.79 7.35303C78.2893 7.35303 80.2088 7.95286 81.5484 9.15253C82.888 10.3322 83.5579 12.1217 83.5579 14.5211V23.7285H79.1791V21.7191C78.2993 23.2187 76.6597 23.9685 74.2604 23.9685C73.0207 23.9685 71.941 23.7585 71.0213 23.3387C70.1215 22.9188 69.4317 22.3389 68.9519 21.5991C68.472 20.8593 68.232 20.0196 68.232 19.0798C68.232 17.5802 68.7919 16.4006 69.9116 15.5408C71.0513 14.681 72.8008 14.2511 75.1602 14.2511H78.8791C78.8791 13.2314 78.5692 12.4516 77.9494 11.9118C77.3296 11.3519 76.3998 11.072 75.1602 11.072C74.3004 11.072 73.4506 11.212 72.6109 11.4919C71.7911 11.7518 71.0913 12.1117 70.5114 12.5716L68.8319 9.30249C69.7116 8.68266 70.7614 8.20279 71.981 7.86289C73.2207 7.52298 74.4903 7.35303 75.79 7.35303ZM75.4301 20.8193C76.2299 20.8193 76.9397 20.6394 77.5595 20.2795C78.1793 19.8996 78.6192 19.3497 78.8791 18.6299V16.9804H75.67C73.7505 16.9804 72.7908 17.6102 72.7908 18.8699C72.7908 19.4697 73.0207 19.9496 73.4806 20.3095C73.9605 20.6494 74.6103 20.8193 75.4301 20.8193Z" fill="white"/>
<path d="M98.0495 22.9488C97.5896 23.2887 97.0198 23.5486 96.34 23.7285C95.6802 23.8885 94.9804 23.9685 94.2406 23.9685C92.3211 23.9685 90.8315 23.4786 89.7718 22.4989C88.7321 21.5192 88.2122 20.0795 88.2122 18.1801V11.5519H85.7229V7.95286H88.2122V4.02394H92.8909V7.95286H96.9098V11.5519H92.8909V18.1201C92.8909 18.7999 93.0609 19.3298 93.4008 19.7096C93.7607 20.0695 94.2606 20.2495 94.9004 20.2495C95.6402 20.2495 96.27 20.0496 96.7899 19.6497L98.0495 22.9488Z" fill="white"/>
<path d="M115.834 15.7207C115.834 15.7807 115.804 16.2006 115.744 16.9804H103.537C103.757 17.9801 104.277 18.7699 105.097 19.3497C105.916 19.9296 106.936 20.2195 108.156 20.2195C108.996 20.2195 109.735 20.0995 110.375 19.8596C111.035 19.5997 111.645 19.1998 112.205 18.6599L114.694 21.3592C113.174 23.0987 110.955 23.9685 108.036 23.9685C106.216 23.9685 104.607 23.6186 103.207 22.9188C101.808 22.199 100.728 21.2092 99.968 19.9496C99.2083 18.6899 98.8284 17.2603 98.8284 15.6608C98.8284 14.0812 99.1983 12.6616 99.9381 11.4019C100.698 10.1223 101.728 9.13254 103.027 8.43273C104.347 7.71293 105.816 7.35303 107.436 7.35303C109.016 7.35303 110.445 7.69293 111.725 8.37275C113.004 9.05256 114.004 10.0323 114.724 11.3119C115.464 12.5716 115.834 14.0412 115.834 15.7207ZM107.466 10.8921C106.406 10.8921 105.517 11.192 104.797 11.7918C104.077 12.3916 103.637 13.2114 103.477 14.2511H111.425C111.265 13.2314 110.825 12.4216 110.105 11.8218C109.385 11.202 108.506 10.8921 107.466 10.8921Z" fill="white"/>
<path d="M144.419 7.59296L138.57 23.7285H134.072L130.443 13.7113L126.694 23.7285H122.195L116.376 7.59296H120.785L124.594 18.51L128.553 7.59296H132.512L136.351 18.51L140.28 7.59296H144.419Z" fill="white"/>
<path d="M152.425 7.35303C154.924 7.35303 156.844 7.95286 158.183 9.15253C159.523 10.3322 160.193 12.1217 160.193 14.5211V23.7285H155.814V21.7191C154.934 23.2187 153.295 23.9685 150.895 23.9685C149.656 23.9685 148.576 23.7585 147.656 23.3387C146.756 22.9188 146.067 22.3389 145.587 21.5991C145.107 20.8593 144.867 20.0196 144.867 19.0798C144.867 17.5802 145.427 16.4006 146.546 15.5408C147.686 14.681 149.436 14.2511 151.795 14.2511H155.514C155.514 13.2314 155.204 12.4516 154.584 11.9118C153.964 11.3519 153.035 11.072 151.795 11.072C150.935 11.072 150.086 11.212 149.246 11.4919C148.426 11.7518 147.726 12.1117 147.146 12.5716L145.467 9.30249C146.347 8.68266 147.396 8.20279 148.616 7.86289C149.856 7.52298 151.125 7.35303 152.425 7.35303ZM152.065 20.8193C152.865 20.8193 153.575 20.6394 154.194 20.2795C154.814 19.8996 155.254 19.3497 155.514 18.6299V16.9804H152.305C150.385 16.9804 149.426 17.6102 149.426 18.8699C149.426 19.4697 149.656 19.9496 150.116 20.3095C150.595 20.6494 151.245 20.8193 152.065 20.8193Z" fill="white"/>
<path d="M180 7.59296L172.712 24.7183C171.972 26.5778 171.052 27.8874 169.953 28.6472C168.873 29.407 167.563 29.7869 166.024 29.7869C165.184 29.7869 164.354 29.6569 163.535 29.397C162.715 29.1371 162.045 28.7772 161.525 28.3173L163.235 24.9882C163.594 25.3081 164.004 25.558 164.464 25.738C164.944 25.918 165.414 26.0079 165.874 26.0079C166.514 26.0079 167.034 25.848 167.433 25.5281C167.833 25.2281 168.193 24.7183 168.513 23.9985L168.573 23.8485L161.585 7.59296H166.414L170.942 18.54L175.501 7.59296H180Z" fill="white"/>
</g>
</svg>
