<?xml version="1.0" encoding="utf-8"?>
<!-- Generator: Adobe Illustrator 21.0.0, SVG Export Plug-In . SVG Version: 6.00 Build 0)  -->
<svg version="1.1" id="Layer_1" xmlns="http://www.w3.org/2000/svg" xmlns:xlink="http://www.w3.org/1999/xlink" x="0px" y="0px"
	 viewBox="0 0 336.1 159.9" style="enable-background:new 0 0 336.1 159.9;" xml:space="preserve">
<style type="text/css">
	.st0{fill:#343642;}
	.st1{fill:#07A5D6;}
</style>
<path class="st0" d="M112,123.5V83.3c0-8.1-1.9-13.8-5.8-17.2c-3.9-3.4-8.9-5.1-15-5.1c-3,0-5.7,0.4-8.3,1.3
	c-2.6,0.9-4.9,2.3-6.8,4.2s-3.5,4.4-4.6,7.4c-1.1,3-1.7,6.6-1.7,10.9v38.9h-9.2V84.6c0-4.3-0.6-7.9-1.7-10.9c-1.1-3-2.6-5.5-4.5-7.4
	c-1.9-1.9-4.1-3.3-6.7-4.2c-2.6-0.9-5.4-1.3-8.3-1.3c-3.1,0-5.9,0.4-8.4,1.2c-2.5,0.8-4.8,2.2-6.7,4c-1.9,1.9-3.4,4.2-4.4,7.1
	c-1,2.9-1.5,6.3-1.5,10.4v39.9H9.2V79.4c0-4.4,0.7-8.2,2.2-11.5c1.5-3.3,3.5-6,6.2-8.3s5.7-3.9,9.3-5c3.6-1.1,7.4-1.7,11.6-1.7
	c5.9,0,11.2,1.2,16,3.6c4.7,2.4,8.4,6.1,11.1,11.1c2.7-4.8,6.4-8.5,11-11c4.7-2.5,9.9-3.8,15.6-3.8c4.1,0,7.9,0.5,11.4,1.6
	c3.5,1.1,6.6,2.7,9.2,4.9c2.6,2.2,4.6,4.9,6.1,8.1c1.5,3.2,2.2,7,2.2,11.4v44.6H112z"/>
<path class="st0" d="M139.9,63.3v40.3c0,5.2,1.3,8.8,4,11c2.7,2.1,6.2,3.2,10.6,3.2c2.8,0,5.4-0.5,7.8-1.4c2.4-0.9,4.3-1.8,5.6-2.6
	l4,6c-0.6,0.5-1.4,1-2.6,1.7c-1.2,0.6-2.5,1.3-4.2,1.9s-3.5,1.2-5.7,1.6c-2.2,0.4-4.6,0.6-7.2,0.6c-3.7,0-6.9-0.5-9.6-1.5
	c-2.7-1-4.9-2.4-6.7-4.2c-1.8-1.8-3.1-4-4-6.5c-0.9-2.5-1.3-5.2-1.3-8.2V41c0-1.4,0.4-2.5,1.2-3.4c0.8-0.9,2.1-1.3,3.8-1.3
	c0.8,0,1.6,0.1,2.4,0.3c0.8,0.2,1.4,0.4,1.7,0.6v17.6h24.4c1.9,0,3.3,0.4,4,1.3c0.7,0.9,1.1,2,1.1,3.3c0,0.7-0.1,1.4-0.3,2.1
	c-0.2,0.6-0.4,1.2-0.6,1.7H139.9z"/>
<path class="st0" d="M227.2,59.9c0,0.9-0.3,1.8-0.8,2.5c-0.5,0.7-1,1.3-1.5,1.8c-1.6-0.7-3.6-1.4-6-2.1c-2.4-0.6-5.2-1-8.5-1
	c-3.8,0-7,0.5-9.5,1.4c-2.5,0.9-4.6,2.3-6.2,4.1c-1.6,1.8-2.7,4.1-3.3,6.7c-0.6,2.7-1,5.7-1,9.2v41h-9.2V78.3
	c0-8.1,2.4-14.3,7.2-18.7c4.8-4.4,11.8-6.6,21.1-6.6c5,0,9.2,0.6,12.5,1.7C225.5,55.8,227.2,57.5,227.2,59.9z"/>
<path class="st0" d="M236.8,59.7c0-1.4,0.4-2.5,1.2-3.4c0.8-0.9,2.1-1.3,3.8-1.3c0.8,0,1.6,0.1,2.4,0.3c0.8,0.2,1.4,0.4,1.7,0.6
	v67.6h-9.2V59.7z"/>
<path class="st0" d="M255.5,92.6c0-2.2,0.1-4.2,0.2-5.9c0.1-1.7,0.3-3.2,0.5-4.5c0.8-4.5,2.3-8.6,4.3-12.2c2-3.6,4.6-6.7,7.6-9.2
	c3.1-2.5,6.6-4.4,10.6-5.8c4-1.3,8.3-2,12.9-2c5.4,0,10.3,1,14.9,2.8c4.5,1.9,8.4,4.5,11.7,7.8c3.2,3.3,5.8,7.1,7.6,11.5
	c1.8,4.4,2.7,9.1,2.7,14.1c0,5.1-0.9,9.8-2.7,14.2c-1.8,4.4-4.3,8.2-7.6,11.5c-3.2,3.3-7.1,5.9-11.7,7.7c-4.5,1.9-9.5,2.8-14.9,2.8
	c-5.9,0-11.2-1.2-16-3.7c-4.7-2.5-8.4-5.7-11-9.7v39.2h-9.2V92.6z M318.6,89.2c0-3.9-0.6-7.6-1.9-11c-1.3-3.5-3.1-6.5-5.4-9
	c-2.4-2.5-5.2-4.6-8.5-6c-3.3-1.5-7-2.2-11.2-2.2c-4.1,0-7.8,0.7-11,2.2c-3.3,1.4-6.1,3.4-8.4,5.9c-2.3,2.5-4.1,5.5-5.4,9
	c-1.3,3.5-1.9,7.2-1.9,11.3c0,3.9,0.6,7.6,1.9,11c1.3,3.5,3.1,6.5,5.5,9c2.4,2.5,5.2,4.6,8.5,6.1c3.3,1.5,6.9,2.3,10.9,2.3
	c4.2,0,7.9-0.7,11.2-2.2c3.3-1.4,6.1-3.4,8.5-6c2.4-2.6,4.2-5.6,5.4-9C318,97.1,318.6,93.3,318.6,89.2z"/>
<g>
	<path class="st1" d="M241,44.2C247.1,32.5,258.5,17,271.9,6c0,0-40.7,27.2-33.9,25.6c6.8-1.6-41.7-7.8-41.7-7.8
		C213.2,27.7,230.4,36.4,241,44.2z"/>
</g>
</svg>
