<svg width="32" height="32" viewBox="0 0 32 32" fill="none" xmlns="http://www.w3.org/2000/svg">
<path opacity="0.5" fill-rule="evenodd" clip-rule="evenodd" d="M16 32C24.8366 32 32 24.8366 32 16C32 7.16344 24.8366 0 16 0C7.16344 0 0 7.16344 0 16C0 24.8366 7.16344 32 16 32ZM24.0693 18.4439C25.2546 16.2451 25.8123 13.7626 25.6814 11.2681C26.7076 10.7638 27.5057 9.89092 27.9162 8.82378C27.0599 9.23631 26.1382 9.49628 25.1926 9.59199C26.2331 9.02399 27.0101 8.07151 27.3575 6.93816C26.4455 7.52973 25.4245 7.93336 24.3545 8.1254C23.6691 7.2833 22.7122 6.70578 21.6477 6.49178C20.5832 6.27779 19.4775 6.44065 18.5199 6.95246C17.5623 7.46427 16.8125 8.29317 16.399 9.29712C15.9855 10.3011 15.934 11.4176 16.2534 12.4553C14.3517 12.3523 12.4927 11.8516 10.7966 10.9855C9.1004 10.1194 7.60477 8.90711 6.40626 7.42702C5.82361 8.45041 5.62996 9.64973 5.86092 10.8045C6.09187 11.9593 6.7319 12.9918 7.66334 13.7124C6.9945 13.7311 6.32894 13.6122 5.70789 13.3632C5.75202 14.4686 6.16975 15.5263 6.8928 16.3635C7.61585 17.2007 8.60148 17.7679 9.68863 17.9725C8.98655 18.1806 8.24667 18.2284 7.52367 18.1122C7.82032 18.9858 8.3581 19.7576 9.07488 20.3384C9.79165 20.9192 10.6582 21.2854 11.5742 21.3945C9.65154 22.9039 7.23912 23.65 4.8 23.4897C6.91086 24.8253 9.34843 25.5547 11.846 25.598C14.3436 25.6412 16.805 24.9967 18.9608 23.7349C21.1166 22.4731 22.8839 20.6427 24.0693 18.4439Z" fill="white"/>
</svg>
