<?xml version="1.0" encoding="UTF-8"?>
<svg width="165px" height="65px" viewBox="0 0 165 65" version="1.1" xmlns="http://www.w3.org/2000/svg" xmlns:xlink="http://www.w3.org/1999/xlink">
    <!-- Generator: Sketch 45.2 (43514) - http://www.bohemiancoding.com/sketch -->
    <title>agw-logo-gris-s7</title>
    <desc>Created with Sketch.</desc>
    <defs></defs>
    <g id="Page-1" stroke="none" stroke-width="1" fill="none" fill-rule="evenodd">
        <g id="agw-logo-gris-s7"></g>
        <path d="M83.8805475,26.2279649 L87.4258824,26.2279649 L87.4258824,29.4414982 L83.8805475,29.4414982 L83.8805475,26.2279649 Z M83.8806968,31.3105649 L87.4260317,31.3105649 L87.4260317,44.8232772 L83.8806968,44.8232772 L83.8806968,31.3105649 Z M92.8225023,33.4705228 L92.9007466,33.4705228 C93.7088733,31.9425895 94.6212262,31.1522947 96.1853665,31.1522947 C96.5761403,31.1522947 96.8111719,31.1788491 97.0196244,31.2577579 L97.0196244,34.3922316 L96.9412308,34.3922316 C94.6213756,34.1553544 92.9528597,35.3933018 92.9528597,38.2379404 L92.9528597,44.8231263 L89.4073756,44.8231263 L89.4073756,31.310414 L92.8225023,31.310414 L92.8225023,33.4705228 Z M103.927226,26.2279649 L107.472561,26.2279649 L107.472561,29.4414982 L103.927226,29.4414982 L103.927226,26.2279649 Z M103.927376,31.3105649 L107.47286,31.3105649 L107.47286,44.8232772 L103.927376,44.8232772 L103.927376,31.3105649 Z M112.920697,33.1542842 L112.998792,33.1542842 C113.911294,31.7055614 115.136176,30.9416702 116.961032,30.9416702 C119.724819,30.9416702 121.575357,33.0488211 121.575357,35.9990737 L121.575357,44.8231263 L118.030172,44.8231263 L118.030172,36.525786 C118.030172,35.0770632 117.195765,34.0497404 115.709869,34.0497404 C114.145878,34.0497404 112.998792,35.3140912 112.998792,37.1579614 L112.998792,44.8231263 L109.453756,44.8231263 L109.453756,31.310414 L112.920846,31.310414 L112.920846,33.1542842 L112.920697,33.1542842 Z M123.034674,38.0537193 C123.034674,34.0498912 125.719471,30.9418211 129.629896,30.9418211 C133.931394,30.9418211 136.225267,34.2606667 136.225267,39.0808912 L126.527896,39.0808912 C126.788611,41.1616386 127.935548,42.4525439 129.942873,42.4525439 C131.324394,42.4525439 132.13252,41.8203684 132.523593,40.7928947 L136.016964,40.7928947 C135.521665,43.1900316 133.409964,45.2184246 129.969005,45.2184246 C125.537299,45.2182737 123.034674,42.0834982 123.034674,38.0537193 Z M126.57986,36.6049965 L132.523593,36.6049965 C132.419217,34.8926912 131.298412,33.7072491 129.682158,33.7072491 C127.805041,33.7072491 126.892688,34.8400351 126.57986,36.6049965 Z M137.041905,40.4504035 L140.326525,40.4504035 C140.561407,42.0045895 141.655932,42.6894211 143.246502,42.6894211 C144.810792,42.6894211 145.697014,42.0834982 145.697014,41.1355368 C145.697014,39.8447825 144.002516,39.7129158 142.17781,39.3444737 C139.779262,38.8702667 137.433127,38.2116877 137.433127,35.261586 C137.433127,32.3378877 139.831674,30.9418211 142.881561,30.9418211 C146.400765,30.9418211 148.355977,32.7066316 148.616692,35.4195544 L145.410317,35.4195544 C145.253679,33.9709825 144.341176,33.4441193 142.829448,33.4441193 C141.447778,33.4441193 140.535276,33.9709825 140.535276,34.9454982 C140.535276,36.104386 142.308018,36.2098491 144.211118,36.6051474 C146.453027,37.0792035 148.92967,37.7113789 148.92967,40.8722561 C148.92967,43.5853298 146.635348,45.2185754 143.298615,45.2185754 C139.414172,45.2182737 137.250805,43.3218982 137.041905,40.4504035 Z M75.5155701,26.2279649 L82.802448,44.8231263 L78.5530633,44.8231263 L77.1455611,41.0038211 L69.5333122,41.0038211 L68.1516425,44.8231263 L63.9285385,44.8231263 L71.3892262,26.2279649 L75.5155701,26.2279649 Z M70.5498914,37.8691965 L70.5498914,37.8690456 L76.102552,37.8690456 L73.2872489,29.9668526 L70.5498914,37.8691965 Z M98.4006968,26.2279649 L101.94648,26.2279649 L101.94648,44.8231263 L98.4006968,44.8231263 L98.4006968,26.2279649 Z M59.3272036,37.3888035 C59.3272036,49.2026386 49.8585928,58.7684035 38.1700226,58.7684035 C26.4799593,58.7684035 17,49.2026386 17,37.3888035 C17,25.5749684 26.4799593,16 38.1700226,16 C49.8587421,16 59.3272036,25.5749684 59.3272036,37.3888035 Z M36.6278326,26.2270596 C33.2942353,26.2270596 31.1316154,26.4132421 29.5661312,27.0004561 C26.9353891,28.0359263 25.1185973,30.2061439 25.1185973,33.0581754 C25.1185973,35.433586 26.2132715,37.1538877 29.3812715,39.1324912 C32.761457,41.2029789 33.4357919,41.887207 33.4357919,43.1348105 C33.4357919,44.5002491 32.1117602,46.0544351 28.7049955,46.0544351 C27.5159502,46.0544351 25.724991,45.8881684 24.5805928,45.6052737 L24.0345249,45.4661649 C23.7299095,46.2913123 23.0384027,48.2432105 22.8275611,48.9514281 L23.3682534,49.1121123 C24.3976742,49.4438912 26.8407195,49.7029474 28.5910633,49.7029474 C34.4138462,49.7029474 37.8879548,46.1484316 37.8879548,42.4262912 C37.8879548,40.1391439 36.8604751,38.4008877 33.3871131,36.2110561 C31.6448326,35.1282105 30.7569683,34.4260281 30.2177692,33.8824175 C29.7807059,33.3149684 29.7323258,32.8926632 29.7323258,32.4465193 C29.7323258,32.020593 29.8260995,31.5297895 30.1039864,31.1702491 C30.4045701,30.7257649 30.9558643,30.4425684 31.7020226,30.2088596 C32.4689367,29.9517649 33.8898778,29.9449754 36.1029683,29.9449754 L38.1636018,29.9449754 L39.6350136,26.2272105 L36.6278326,26.2272105 L36.6278326,26.2270596 Z M52.2006968,26.2270596 L41.8457149,26.2270596 L40.3741538,29.9446737 L43.8064525,29.9446737 C46.1160045,29.9446737 46.5602353,29.8944316 47.1401991,29.8944316 C46.3029548,31.8297333 41.2569412,44.8223719 41.2569412,44.8223719 L45.5275294,44.8223719 C45.5275294,44.8223719 51.9160905,28.6487895 52.5931131,26.9530807 C52.7806606,26.5746807 52.6874842,26.2270596 52.2006968,26.2270596 Z" id="Combined-Shape" fill="#C6C7CE" fill-rule="nonzero"></path>
    </g>
</svg>