<?xml version="1.0" encoding="UTF-8"?>
<svg width="165px" height="65px" viewBox="0 0 165 65" version="1.1" xmlns="http://www.w3.org/2000/svg" xmlns:xlink="http://www.w3.org/1999/xlink">
    <!-- Generator: Sketch 46.2 (44496) - http://www.bohemiancoding.com/sketch -->
    <title>swiss</title>
    <desc>Created with Sketch.</desc>
    <defs></defs>
    <g id="Page-1" stroke="none" stroke-width="1" fill="none" fill-rule="evenodd">
        <g id="swiss" fill-rule="nonzero" fill="#C6C7CE">
            <g id="Group" transform="translate(20.000000, 18.000000)">
                <path d="M91.39875,24.0529167 L86.5966667,24.0529167 L86.5966667,5.56166667 L91.39875,5.56166667 L91.39875,24.0529167 Z M80.03125,5.56166667 L76.9408333,17.9545833 L73.3233333,5.56166667 L68.68125,5.56166667 L65.0670833,17.9545833 L61.9683333,5.56166667 L57.2758333,5.56166667 L62.38125,24.0529167 L67.3379167,24.0529167 L70.99875,11.3704167 L74.66,24.0529167 L79.615,24.0529167 L84.73625,5.56166667 L80.03125,5.56166667 Z M56.875,18.825 C56.875,15.2804167 54.995,14.0925 50.88125,12.7508333 C48.9429167,12.1183333 47.1329167,11.6329167 47.1329167,10.12625 C47.1329167,8.80333333 48.4775,8.36458333 49.4820833,8.36458333 C50.3345833,8.36458333 51.9354167,8.54541667 52.065,10.5066667 L56.605,10.5066667 C56.5258333,6.7625 53.4808333,5.13208333 49.5625,5.13208333 C47.1329167,5.13208333 45.12625,5.82 43.8616667,7.06458333 C42.9791667,7.93458333 42.4416667,9.20916667 42.4416667,10.5354167 C42.4416667,13.9775 44.7420833,15.3575 47.34,16.1479167 C50.2595833,17.0395833 52.1908333,17.5708333 52.1908333,19.1783333 C52.1908333,20.2520833 51.3408333,21.3216667 49.6604167,21.3216667 C47.5254167,21.3216667 46.75,20.0470833 46.69875,18.7954167 L42.105,18.7954167 C42.105,23.0566667 45.6966667,24.6141667 49.6604167,24.6141667 C54.7225,24.6141667 56.875,21.7329167 56.875,18.825 L56.875,18.825 Z M108.383333,18.825 C108.383333,14.74625 105.415417,13.6695833 101.829583,12.59875 C100.100833,12.08875 98.5483333,11.6333333 98.5483333,10.12625 C98.5483333,8.80333333 99.8929167,8.36458333 100.898333,8.36458333 C101.752917,8.36458333 103.347917,8.54541667 103.47625,10.5066667 L108.020417,10.5066667 C107.942083,6.7625 104.900417,5.13208333 100.97375,5.13208333 C98.54875,5.13208333 96.53375,5.82 95.2758333,7.06458333 C94.39875,7.93458333 93.8575,9.20916667 93.8575,10.5354167 C93.8575,13.9775 96.1520833,15.3575 98.7595833,16.1479167 C101.67625,17.0395833 103.610417,17.5708333 103.610417,19.1783333 C103.610417,20.2520833 102.761667,21.3216667 101.0825,21.3216667 C98.9391667,21.3216667 98.1633333,20.0470833 98.11625,18.7954167 L93.5208333,18.7954167 C93.5208333,23.0566667 97.1095833,24.6141667 101.081667,24.6141667 C106.135833,24.6141667 108.383333,21.7329167 108.383333,18.825 L108.383333,18.825 Z M124.903333,18.825 C124.903333,14.74625 121.922917,13.6695833 118.339583,12.59875 C116.60625,12.08875 115.064167,11.6333333 115.064167,10.12625 C115.064167,8.80333333 116.40125,8.36458333 117.406667,8.36458333 C118.255417,8.36458333 119.8575,8.54541667 119.988333,10.5066667 L124.541667,10.5066667 C124.462083,6.7625 121.405833,5.13208333 117.490833,5.13208333 C115.064167,5.13208333 113.05,5.82 111.782917,7.06458333 C110.906667,7.93458333 110.368333,9.20916667 110.368333,10.5354167 C110.368333,13.9775 112.664167,15.3575 115.264583,16.1479167 C118.184167,17.0395833 120.117083,17.5708333 120.117083,19.1783333 C120.117083,20.2520833 119.268333,21.3216667 117.589167,21.3216667 C115.45,21.3216667 114.675417,20.0470833 114.624167,18.7954167 L110.027083,18.7954167 C110.027083,23.0566667 113.614167,24.6141667 117.589167,24.6141667 C122.65625,24.6141667 124.903333,21.7329167 124.903333,18.825 L124.903333,18.825 Z" id="path3059"></path>
                <path d="M23.3895833,0.39041625 L38.955,0.39041625 L31.835,29.2866663 L0.212916667,29.2866663 L23.3895833,0.39041625 Z M26.9966667,17.5033329 L33.2179167,17.5033329 L33.2179167,12.1724996 L26.9966667,12.1724996 L26.9966667,5.95041625 L21.6629167,5.95041625 L21.6629167,12.1724996 L15.4416667,12.1724996 L15.4416667,17.5033329 L21.66,17.5033329 L21.66,23.7266663 L26.9920833,23.7266663 L26.9920833,17.5033329 L26.9966667,17.5033329 Z" id="Combined-Shape"></path>
            </g>
        </g>
    </g>
</svg>