<?xml version="1.0" encoding="UTF-8"?>
<svg width="165px" height="65px" viewBox="0 0 165 65" version="1.1" xmlns="http://www.w3.org/2000/svg" xmlns:xlink="http://www.w3.org/1999/xlink">
    <!-- Generator: Sketch 45.2 (43514) - http://www.bohemiancoding.com/sketch -->
    <title>agw-logo-gris-westjet</title>
    <desc>Created with Sketch.</desc>
    <defs></defs>
    <g id="Page-1" stroke="none" stroke-width="1" fill="none" fill-rule="evenodd">
        <g id="agw-logo-gris-westjet" fill="#C6C7CE">
            <path d="M28.017544,28.8527939 L34.842926,28.8527939 L33.0728523,30.6475371 L51.1593486,30.6475371 L50.4069166,32.5233689 L38.846688,32.5233689 L38.0962651,34.3949883 L48.9949765,34.3949883 L48.2764491,36.1870988 L37.3769844,36.1870988 L36.5507156,38.2495923 L48.5019778,38.2495923 L47.7492947,40.125424 L28.7812775,40.125424 L32.2463324,31.4863301 L23.7264715,40.125424 L16.5630476,40.125424 L15.6729878,32.8487764 L9.28284101,40.125424 L2.04357116,40.125424 L0,30.6475371 L7.16794452,30.6475371 L7.13303529,36.4964465 L12.3330034,30.6475371 L21.2310895,30.6475371 L21.1941711,36.8073738 L28.017544,28.8527939 Z M86.977749,32.5232373 L80.4951806,32.5232373 L77.446525,40.1252924 L70.429519,40.1252924 L73.4786768,32.5232373 L69.0964385,32.5232373 L68.9221435,32.792304 C67.2336921,32.4950669 65.2503959,32.3605336 63.2520309,32.3605336 C61.4791946,32.3605336 58.5161797,32.4145049 58.1826584,33.2411872 C57.5681053,34.7750252 70.4267564,33.7453581 69.0552506,37.1660855 C68.0692533,39.6227011 62.0711447,40.2887859 56.2237233,40.2887859 C53.7705338,40.2887859 50.7700982,40.1521464 48.5414328,39.8815001 L49.9830081,37.7908362 C51.6531259,38.1428344 54.071155,38.4134807 56.9764065,38.4134807 C59.2013047,38.4134807 61.3792387,38.2523566 61.6846317,37.4912297 C62.3898483,35.7275529 49.4982972,36.8383086 50.8821091,33.3904639 C51.7975345,31.1102423 58.2316318,30.4844385 63.5132223,30.4844385 C65.1850981,30.4844385 66.8160371,30.5426222 68.2186849,30.6474055 L87.730181,30.6474055 L86.977749,32.5232373 Z M139.02987,33.1325864 L152.900386,31.5605736 L148.287345,39.7876427 L145.674929,44.4444444 C145.674929,44.4444444 146.198819,41.4109941 146.294003,40.8602235 C146.433389,40.0522337 145.873083,39.8897932 145.312024,39.9887845 C144.706261,40.095674 140.322767,40.8686483 140.322767,40.8686483 C140.322767,40.8686483 140.712294,40.3686898 141.311778,39.5980849 C142.077521,38.6134378 142.093092,38.2411675 141.343673,37.3149673 C141.211069,37.1514737 138.051407,33.2431618 138.051407,33.2431618 L139.02987,33.1325864 Z M89.6792712,30.6474055 L96.6955238,30.6474055 L93.3630738,38.9566163 C92.5463485,40.9917292 89.1307693,43.471513 82.0042638,43.471513 C80.4577097,43.471513 78.9347632,43.3224996 77.7691968,43.2156101 L78.6105343,41.1215236 C79.415958,41.2734331 80.4798105,41.3539951 81.6830487,41.3539951 C83.7585154,41.3539951 86.0306289,39.7427544 86.6524653,38.1933831 L89.6792712,30.6474055 Z M95.0487375,40.1252924 L98.8505785,30.6474055 L135.952307,30.6474055 L135.200378,32.5227107 L128.717307,32.5227107 L125.668651,40.1252924 L118.651896,40.1252924 L121.700301,32.5227107 L105.114399,32.5227107 L104.363976,34.3948567 L115.262185,34.3948567 L114.543658,36.1869671 L103.644444,36.1869671 L102.817924,38.2497239 L114.769438,38.2497239 L114.017257,40.1252924 L95.0487375,40.1252924 Z M160.149626,23.1463952 L157.185858,28.7875808 L147.765892,30.9985612 L149.307674,23.1556098 C149.307674,23.1556098 150.538538,24.030998 150.947905,24.3211266 C151.348231,24.6099389 151.649857,24.5649189 152.121257,24.095237 C152.56905,23.638982 155.807571,20.1961396 155.991912,20 C156.019538,20.1961396 156.495208,23.638982 156.577081,24.095237 C156.67327,24.5649189 156.928936,24.6099389 157.568604,24.3211266 C158.203249,24.030998 160.149626,23.1463952 160.149626,23.1463952 Z M165,28.5806996 C165,28.5806996 162.852455,31.5996699 162.650785,31.887429 C162.446352,32.1783475 162.193198,32.611171 162.650282,32.856543 L163.398947,33.2806784 C163.398947,33.2806784 155.938167,37.8013672 155.688277,37.965124 C155.427337,38.1283543 155.011942,38.2644673 154.972764,39.0419173 C154.945138,39.819104 154.925046,40.8685167 154.925046,40.8685167 L148.38597,39.8038341 L157.241863,28.8666159 L161.078614,26.9204897 C161.078614,26.9204897 161.163501,28.5912306 161.180328,28.7410339 C161.200922,29.0327422 161.276768,29.2301981 161.751684,29.167802 C162.359958,29.0859236 165,28.5806996 165,28.5806996 Z M145.16872,27.1322679 L147.67465,31.0203077 L139.158306,33.019352 C139.664615,32.5762608 139.760301,32.1926696 139.789685,31.8875343 C139.818065,31.5997752 140.003159,28.5808049 140.003159,28.5808049 C140.003159,28.5808049 142.337557,29.0860289 142.869232,29.1679073 C143.302207,29.2303034 143.538786,29.0328475 143.792192,28.7408759 C144.043337,28.4541698 145.16872,27.1322679 145.16872,27.1322679 Z" id="Combined-Shape"></path>
        </g>
    </g>
</svg>